<?xml version="1.0" encoding="UTF-8" standalone="no"?>
<!-- Created with Inkscape (http://www.inkscape.org/) -->

<svg
   width="660.38696mm"
   height="669.10425mm"
   viewBox="0 0 660.38696 669.10425"
   version="1.1"
   id="svg361"
   xml:space="preserve"
   xmlns="http://www.w3.org/2000/svg"
   xmlns:svg="http://www.w3.org/2000/svg"><defs
     id="defs358" /><g
     id="layer1"
     transform="translate(1020.5178,-1098.7961)"><path
       style="fill:#000000;stroke-width:0.352778"
       d="m -712.42996,1767.5077 -15.875,-0.3219 -23.1069,-4.8809 c -22.8609,-4.8291 -23.2967,-4.9372 -40.9223,-10.1556 l -17.8152,-5.2746 -22.0487,-9.8772 -22.04857,-9.8773 -15.34583,-10.6811 c -20.15638,-14.0294 -17.66623,-12.1941 -38.81691,-28.6088 l -18.53223,-14.3826 -13.5926,-17.2207 c -7.47592,-9.4714 -20.24496,-25.952 -28.37564,-36.6235 l -14.78308,-19.4028 -8.21154,-20.4338 c -4.51633,-11.2386 -8.16544,-20.4799 -8.10914,-20.5362 0.0563,-0.056 1.39028,1.5983 2.96448,3.6769 1.5742,2.0786 6.07038,7.9861 9.99151,13.1278 3.92112,5.1418 8.8756,11.6505 11.00995,14.4639 3.86969,5.1008 18.66028,17.9556 17.84484,15.5092 -0.0924,-0.2772 -3.32966,-2.9673 -7.19395,-5.9781 l -7.02593,-5.4741 -14.25599,-18.7624 -14.25601,-18.7624 -8.4438,-20.9251 c -4.6441,-11.5088 -8.4499,-21.2426 -8.4572,-21.6307 -0.01,-0.388 -0.6139,-9.3873 -1.3478,-19.9984 l -1.3343,-19.2928 5.2133,-20.8099 5.2132,-20.8099 3.3098,-5.6405 c 1.8204,-3.1023 3.416,-5.5348 3.5458,-5.4056 0.1297,0.1292 2.4001,5.6324 5.04527,12.2293 l 4.80935,11.9945 11.55749,15.1694 11.55749,15.1695 8.97361,6.9866 c 4.9355,3.8426 9.26419,7.2002 9.61933,7.4613 0.49326,0.3628 1.21772,3.1273 3.06875,11.7107 1.33269,6.1797 3.32256,14.4977 4.42196,18.4845 l 1.99895,7.2487 -7.05101,17.2694 -7.05097,17.2693 -0.40206,12.1709 c -0.54536,16.508 -0.72316,21.3648 -0.95088,25.9726 l -0.19395,3.9241 11.75261,9.1171 c 6.46391,5.0144 11.84402,9.2457 11.95578,9.403 0.32699,0.4601 29.06765,13.2521 29.17359,12.9847 0.053,-0.1336 -3.72861,-10.2333 -8.40345,-22.4438 -4.67483,-12.2104 -9.28511,-24.2645 -10.24505,-26.7869 -0.95994,-2.5224 -5.46259,-16.7972 -10.00587,-31.7219 l -8.26054,-27.1357 2.20331,-3.7929 c 1.9461,-3.3501 2.96997,-4.5785 8.76946,-10.5213 l 6.56614,-6.7283 11.75653,5.2515 11.75657,5.2515 21.87222,4.6073 21.87222,4.6072 14.99309,0.2326 c 8.2461,0.1279 15.5382,0.3389 16.2045,0.4689 l 1.2114,0.2363 2.5567,9.3377 c 4.9111,17.9365 20.9902,64.8372 28.5994,83.421 12.9462,31.6181 14.6524,35.8473 14.5166,35.9831 -0.076,0.076 -12.3572,-0.1051 -27.2918,-0.4023 l -27.1538,-0.5403 -26.95615,-5.6631 -26.95618,-5.663 -8.49799,-3.8007 c -4.67388,-2.0903 -8.53605,-3.6954 -8.58255,-3.5669 -0.0465,0.1286 5.13161,10.7266 11.50697,23.5513 l 11.59154,23.3175 1.5458,0.7128 c 0.8502,0.392 2.1808,0.9768 2.95691,1.2994 2.37617,0.9878 3.17913,1.4934 3.08049,1.9395 -0.13292,0.6014 0.70351,1.353 1.39302,1.2518 0.31842,-0.047 0.65694,0.2161 0.75335,0.5848 0.19266,0.7367 0.94675,0.9266 0.94675,0.2384 0,-0.2372 0.25432,-0.068 0.56515,0.3756 0.74624,1.0654 0.38714,1.3568 -0.75205,0.6104 -0.50295,-0.3295 -1.1032,-0.5205 -1.33392,-0.4243 -0.23492,0.098 -0.072,0.2806 0.37035,0.4151 0.43437,0.1321 0.70037,0.3849 0.59111,0.5617 -0.10926,0.1768 -0.0678,0.2918 0.0922,0.2557 0.15995,-0.036 0.76705,0.1434 1.34913,0.3991 0.58208,0.2557 1.33724,0.43 1.67809,0.3872 0.34089,-0.043 0.71469,0.1697 0.83072,0.472 0.11603,0.3024 0.35306,0.4619 0.52677,0.3545 0.17371,-0.1073 0.31581,-0.027 0.31581,0.1785 0,0.2054 -0.24751,0.3736 -0.54998,0.3736 -0.30251,0 -0.45188,0.1587 -0.33197,0.3527 0.11991,0.1941 0.0469,0.3528 -0.16227,0.3528 -0.22638,0 -0.29345,-0.3462 -0.16567,-0.8554 0.17484,-0.6965 0.0942,-0.8325 -0.43423,-0.7325 -0.35691,0.068 -0.72831,0.1374 -0.82533,0.1552 -0.097,0.018 0.0596,0.1816 0.34791,0.3639 0.4294,0.2715 0.45103,0.5257 0.11942,1.4042 -0.48839,1.2939 -0.019,1.7386 0.72058,0.6827 0.51559,-0.7361 3.01371,-1.3555 3.07241,-0.7618 0.0148,0.1501 0.0889,0.5904 0.16461,0.9784 0.0757,0.3881 -0.0969,0.8832 -0.38368,1.1001 -0.45519,0.3445 -0.45635,0.4484 -0.009,0.8196 0.28165,0.2337 0.42516,0.6515 0.31894,0.9284 -0.21752,0.5668 0.16983,0.6456 0.90012,0.1831 0.39038,-0.2473 0.33722,-0.3905 -0.26459,-0.7126 -1.0045,-0.5376 -0.95204,-0.9074 0.12873,-0.9074 0.48507,0 0.88195,0.1984 0.88195,0.4409 0,0.2426 0.15875,0.441 0.35277,0.441 0.46814,0 1.76389,1.3111 1.76389,1.7847 0,0.2055 0.14778,0.2823 0.3284,0.1706 0.18062,-0.1116 0.44235,-0.019 0.58159,0.2068 0.17614,0.285 -0.0257,0.3563 -0.6635,0.2344 -0.58149,-0.1112 -0.98422,0 -1.10137,0.306 -0.13667,0.3562 0.0369,0.4256 0.66784,0.2673 1.22565,-0.3077 1.88253,0.1831 1.05502,0.7882 -0.62199,0.4548 -0.0787,0.6829 1.27807,0.5367 0.31348,-0.034 0.26596,1.1238 -0.0634,1.5454 -0.19075,0.2441 0.0488,0.3485 0.69659,0.3037 0.73254,-0.051 1.21246,0.2173 1.86009,1.039 1.46279,1.8561 1.51441,2.0314 0.48228,1.639 l -0.91598,-0.3482 0.63122,0.8674 c 0.57055,0.784 1.45634,1.301 1.02034,0.5956 -0.0999,-0.1617 0.0469,-0.294 0.32636,-0.294 0.34925,0 0.40047,0.1296 0.16393,0.4146 -0.18926,0.2281 -0.23103,0.5278 -0.0928,0.666 0.13821,0.1382 0.0405,0.3815 -0.2171,0.5408 -0.31518,0.1948 -0.15519,0.2895 0.48884,0.2895 0.67,0 0.81365,-0.091 0.47865,-0.3033 -0.32029,-0.2029 -0.33962,-0.3051 -0.0585,-0.3087 0.65154,-0.01 0.89027,0.6301 0.49159,1.3147 -0.19939,0.3425 -0.36593,0.4227 -0.37186,0.1792 -0.006,-0.2425 -0.27919,-0.441 -0.60731,-0.441 -0.51985,0 -0.50849,0.066 0.0882,0.5129 0.60501,0.4532 0.73628,0.4451 1.12705,-0.069 0.34326,-0.4517 0.53683,-0.4876 0.86431,-0.1601 0.23213,0.2321 0.2933,0.422 0.13599,0.422 -0.1573,0 0.0888,0.3296 0.54681,0.7324 0.45805,0.4029 0.61856,0.6218 0.35666,0.4866 -0.59729,-0.3083 0.0696,1.0665 0.70898,1.4617 0.26588,0.1643 0.31668,0.08 0.1476,-0.2449 -0.14178,-0.2726 0.071,-0.1218 0.47279,0.335 0.40178,0.4568 0.62749,0.9972 0.50151,1.201 -0.12855,0.2081 -0.0611,0.2668 0.15392,0.1339 0.57785,-0.3572 0.94851,0.5068 0.38865,0.9059 -0.38251,0.2727 -0.36004,0.3064 0.10541,0.1579 0.60346,-0.1925 1.51183,0.547 1.13489,0.9239 -0.1142,0.1143 0.1253,0.4156 0.53223,0.6698 0.40697,0.2541 0.73992,0.662 0.73992,0.9064 0,0.2443 0.14503,0.4443 0.32226,0.4443 0.47636,0 2.5077,2.8771 2.2853,3.2369 -0.1048,0.1696 -0.06,0.2686 0.1003,0.2201 0.1599,-0.048 0.7355,0.3306 1.2792,0.8424 1.182,1.1129 -1.5077,0.4756 30.056,7.1222 l 25.7528,5.423 13.4055,0.2238 c 7.3731,0.1232 18.3268,0.3073 24.3417,0.4093 6.0149,0.102 12.2333,0.2725 13.8187,0.379 l 2.8825,0.1937 10.2328,10.4937 10.2327,10.4938 9.6389,4.5125 c 5.3014,2.4819 9.705,4.5728 9.7858,4.6464 0.081,0.074 -0.8716,0.1074 -2.1166,0.075 -1.2451,-0.032 -9.4074,-0.2033 -18.1387,-0.3803 z m -133.52639,-45.9514 c 0,-0.097 -0.0794,-0.1764 -0.17639,-0.1764 -0.097,0 -0.17639,0.079 -0.17639,0.1764 0,0.097 0.0794,0.1764 0.17639,0.1764 0.097,0 0.17639,-0.079 0.17639,-0.1764 z m -0.70556,-0.3528 c 0,-0.097 -0.0794,-0.1764 -0.17639,-0.1764 -0.097,0 -0.17639,0.079 -0.17639,0.1764 0,0.097 0.0794,0.1764 0.17639,0.1764 0.097,0 0.17639,-0.079 0.17639,-0.1764 z m -1.17591,-1.1172 c -0.12937,-0.1293 -0.34103,-0.1293 -0.4704,0 -0.12932,0.1294 -0.0236,0.2352 0.2352,0.2352 0.25869,0 0.36453,-0.1058 0.2352,-0.2352 z m 1.17591,-0.2939 c 0,-0.097 -0.0794,-0.1764 -0.17639,-0.1764 -0.097,0 -0.17639,0.079 -0.17639,0.1764 0,0.097 0.0794,0.1764 0.17639,0.1764 0.097,0 0.17639,-0.079 0.17639,-0.1764 z m -2.46944,-1.7639 c 0,-0.097 -0.0794,-0.1764 -0.17639,-0.1764 -0.097,0 -0.17639,0.079 -0.17639,0.1764 0,0.097 0.0794,0.1764 0.17639,0.1764 0.097,0 0.17639,-0.079 0.17639,-0.1764 z m -2.82222,-1.7639 c 0,-0.097 -0.0794,-0.1764 -0.17639,-0.1764 -0.097,0 -0.17639,0.079 -0.17639,0.1764 0,0.097 0.0794,0.1764 0.17639,0.1764 0.097,0 0.17639,-0.079 0.17639,-0.1764 z m 0.35277,-1.0583 c 0,-0.097 -0.0794,-0.1764 -0.17639,-0.1764 -0.097,0 -0.17638,0.079 -0.17638,0.1764 0,0.097 0.0794,0.1764 0.17638,0.1764 0.097,0 0.17639,-0.079 0.17639,-0.1764 z m -2.11666,-0.3528 c 0,-0.097 -0.0794,-0.1764 -0.17639,-0.1764 -0.097,0 -0.17639,0.079 -0.17639,0.1764 0,0.097 0.0794,0.1764 0.17639,0.1764 0.097,0 0.17639,-0.079 0.17639,-0.1764 z m 3.88055,0 c 0,-0.097 -0.0794,-0.1764 -0.17639,-0.1764 -0.097,0 -0.17639,0.079 -0.17639,0.1764 0,0.097 0.0794,0.1764 0.17639,0.1764 0.097,0 0.17639,-0.079 0.17639,-0.1764 z m -1.52869,-0.7644 c -0.12936,-0.1293 -0.34103,-0.1293 -0.47039,0 -0.12933,0.1294 -0.0236,0.2352 0.23519,0.2352 0.2587,0 0.36453,-0.1058 0.2352,-0.2352 z m -1.99909,-0.2939 c 0,-0.097 -0.0794,-0.1764 -0.17638,-0.1764 -0.097,0 -0.17639,0.079 -0.17639,0.1764 0,0.097 0.0794,0.1763 0.17639,0.1763 0.097,0 0.17638,-0.079 0.17638,-0.1763 z m -0.82313,-1.1172 c -0.12937,-0.1293 -0.2352,-0.024 -0.2352,0.2352 0,0.2587 0.10583,0.3645 0.2352,0.2352 0.12933,-0.1294 0.12933,-0.341 0,-0.4704 z m 1.76389,-0.3528 c -0.12937,-0.1293 -0.2352,-0.024 -0.2352,0.2352 0,0.2587 0.10583,0.3646 0.2352,0.2352 0.12933,-0.1293 0.12933,-0.341 0,-0.4704 z m -0.58798,0.059 c 0,-0.097 -0.0794,-0.1763 -0.17639,-0.1763 -0.097,0 -0.17639,0.079 -0.17639,0.1763 0,0.097 0.0794,0.1764 0.17639,0.1764 0.097,0 0.17639,-0.079 0.17639,-0.1764 z m -1.41111,-0.3527 c 0,-0.097 -0.0794,-0.1764 -0.17639,-0.1764 -0.097,0 -0.17639,0.079 -0.17639,0.1764 0,0.097 0.0794,0.1764 0.17639,0.1764 0.097,0 0.17639,-0.079 0.17639,-0.1764 z m -0.70555,-0.7056 c 0,-0.097 -0.0794,-0.1764 -0.17639,-0.1764 -0.097,0 -0.17639,0.079 -0.17639,0.1764 0,0.097 0.0794,0.1764 0.17639,0.1764 0.097,0 0.17639,-0.079 0.17639,-0.1764 z m -0.88195,-1.5875 c 0.11991,-0.194 0.13864,-0.3528 0.0416,-0.3528 -0.097,0 -0.2745,0.1588 -0.39441,0.3528 -0.11991,0.194 -0.13864,0.3528 -0.0416,0.3528 0.097,0 0.27449,-0.1588 0.3944,-0.3528 z m 0.88195,-0.1764 c 0,-0.097 -0.0794,-0.1764 -0.17639,-0.1764 -0.097,0 -0.17639,0.079 -0.17639,0.1764 0,0.097 0.0794,0.1764 0.17639,0.1764 0.097,0 0.17639,-0.079 0.17639,-0.1764 z m -1.59001,-0.8779 c 0.12361,-0.2 -0.018,-0.2591 -0.33196,-0.1386 -0.61115,0.2345 -0.72295,0.4874 -0.21551,0.4874 0.18256,0 0.42894,-0.157 0.54747,-0.3488 z m -1.23222,-0.886 c 0,-0.097 -0.0794,-0.1764 -0.17639,-0.1764 -0.097,0 -0.17638,0.079 -0.17638,0.1764 0,0.097 0.0794,0.1764 0.17638,0.1764 0.097,0 0.17639,-0.079 0.17639,-0.1764 z m 1.32056,-1.2347 c 0.11857,-0.4349 0.0837,-0.4426 -0.19594,-0.043 -0.18707,0.2674 -0.51667,0.3771 -0.7324,0.2438 -0.21572,-0.1333 -0.39222,-0.063 -0.39222,0.157 0,0.5797 1.14988,0.2681 1.32056,-0.3578 z m -2.37889,-0.3944 c 0,-0.194 -0.15875,-0.2547 -0.35278,-0.1348 -0.19403,0.12 -0.35277,0.3768 -0.35277,0.5708 0,0.1941 0.15874,0.2547 0.35277,0.1348 0.19403,-0.1199 0.35278,-0.3768 0.35278,-0.5708 z m -2.82222,-0.1348 c 0,-0.097 -0.0794,-0.1763 -0.17639,-0.1763 -0.097,0 -0.17639,0.079 -0.17639,0.1763 0,0.097 0.0794,0.1764 0.17639,0.1764 0.097,0 0.17639,-0.079 0.17639,-0.1764 z m 3.76297,-0.059 c -0.12936,-0.1293 -0.34103,-0.1293 -0.47039,0 -0.12933,0.1294 -0.0236,0.2352 0.2352,0.2352 0.25869,0 0.36452,-0.1058 0.23519,-0.2352 z m -2.35186,-0.2939 c 0,-0.097 -0.0794,-0.1764 -0.17639,-0.1764 -0.097,0 -0.17639,0.079 -0.17639,0.1764 0,0.097 0.0794,0.1764 0.17639,0.1764 0.097,0 0.17639,-0.079 0.17639,-0.1764 z m 3.4102,-0.059 c -0.12937,-0.1294 -0.34103,-0.1294 -0.4704,0 -0.12933,0.1293 -0.0236,0.2352 0.2352,0.2352 0.25869,0 0.36452,-0.1059 0.2352,-0.2352 z m -2.32922,-1.3383 c 0.17713,0.1094 0.22751,-0.047 0.11197,-0.3485 -0.11557,-0.3011 -0.47092,-0.5451 -0.78973,-0.5421 -0.45974,0 -0.48062,0.068 -0.10096,0.3087 0.33912,0.2149 0.36315,0.3746 0.0824,0.5481 -0.21791,0.1347 -0.27827,0.4324 -0.13416,0.6615 0.1796,0.2855 0.30085,0.2209 0.38524,-0.2051 0.0677,-0.3419 0.26811,-0.5321 0.4452,-0.4226 z m -2.13931,0.3387 c 0,-0.097 -0.0794,-0.1764 -0.17639,-0.1764 -0.097,0 -0.17639,0.079 -0.17639,0.1764 0,0.097 0.0794,0.1764 0.17639,0.1764 0.097,0 0.17639,-0.079 0.17639,-0.1764 z m -0.11758,-0.7643 c -0.12937,-0.1294 -0.34103,-0.1294 -0.4704,0 -0.12933,0.1293 -0.0236,0.2352 0.2352,0.2352 0.25869,0 0.36452,-0.1059 0.2352,-0.2352 z m -1.99909,-0.6468 c 0,-0.097 -0.0794,-0.1764 -0.17639,-0.1764 -0.097,0 -0.17639,0.079 -0.17639,0.1764 0,0.097 0.0794,0.1764 0.17639,0.1764 0.097,0 0.17639,-0.079 0.17639,-0.1764 z m 2.82222,0 c 0,-0.097 -0.0794,-0.1764 -0.17639,-0.1764 -0.097,0 -0.17639,0.079 -0.17639,0.1764 0,0.097 0.0794,0.1764 0.17639,0.1764 0.097,0 0.17639,-0.079 0.17639,-0.1764 z m -1.05833,-0.3319 c 0,-0.086 -0.15875,-0.2537 -0.35278,-0.3736 -0.19403,-0.1199 -0.35278,-0.05 -0.35278,0.1555 0,0.2055 0.15875,0.3736 0.35278,0.3736 0.19403,0 0.35278,-0.07 0.35278,-0.1555 z m -2.82222,-0.3736 c 0,-0.097 -0.0794,-0.1764 -0.17639,-0.1764 -0.097,0 -0.17639,0.079 -0.17639,0.1764 0,0.097 0.0794,0.1764 0.17639,0.1764 0.097,0 0.17639,-0.079 0.17639,-0.1764 z m 1.05833,0 c 0,-0.097 -0.0794,-0.1764 -0.17639,-0.1764 -0.097,0 -0.17639,0.079 -0.17639,0.1764 0,0.097 0.0794,0.1764 0.17639,0.1764 0.097,0 0.17639,-0.079 0.17639,-0.1764 z m 3.4102,-0.4116 c -0.12937,-0.1293 -0.34103,-0.1293 -0.4704,0 -0.12933,0.1293 -0.0236,0.2352 0.2352,0.2352 0.25869,0 0.36452,-0.1059 0.2352,-0.2352 z m -3.76298,-0.294 c 0,-0.097 -0.0794,-0.1764 -0.17639,-0.1764 -0.097,0 -0.17639,0.079 -0.17639,0.1764 0,0.097 0.0794,0.1764 0.17639,0.1764 0.097,0 0.17639,-0.079 0.17639,-0.1764 z m 1.64631,-0.4116 c -0.12936,-0.1293 -0.2352,-0.024 -0.2352,0.2352 0,0.2587 0.10584,0.3645 0.2352,0.2352 0.12933,-0.1293 0.12933,-0.341 0,-0.4704 z m -3.4102,-0.2939 c 0,-0.097 -0.0794,-0.1764 -0.17639,-0.1764 -0.097,0 -0.17638,0.079 -0.17638,0.1764 0,0.097 0.0794,0.1763 0.17638,0.1763 0.097,0 0.17639,-0.079 0.17639,-0.1763 z m 2.82223,-0.3528 c 0,-0.097 -0.0794,-0.1764 -0.17639,-0.1764 -0.097,0 -0.17639,0.079 -0.17639,0.1764 0,0.097 0.0794,0.1764 0.17639,0.1764 0.097,0 0.17639,-0.079 0.17639,-0.1764 z m 1.05833,-0.3736 c 0,-0.3025 -0.15875,-0.4519 -0.35278,-0.332 -0.19403,0.1199 -0.35278,0.3674 -0.35278,0.55 0,0.1826 0.15875,0.332 0.35278,0.332 0.19403,0 0.35278,-0.2475 0.35278,-0.55 z m -5.99722,0.021 c 0,-0.097 -0.0794,-0.1764 -0.17639,-0.1764 -0.097,0 -0.17639,0.079 -0.17639,0.1764 0,0.097 0.0794,0.1764 0.17639,0.1764 0.097,0 0.17639,-0.079 0.17639,-0.1764 z m 3.52777,0 c 0,-0.097 -0.0794,-0.1764 -0.17638,-0.1764 -0.097,0 -0.17639,0.079 -0.17639,0.1764 0,0.097 0.0794,0.1764 0.17639,0.1764 0.097,0 0.17638,-0.079 0.17638,-0.1764 z m 3.175,0 c 0,-0.097 -0.0794,-0.1764 -0.17638,-0.1764 -0.097,0 -0.17639,0.079 -0.17639,0.1764 0,0.097 0.0794,0.1764 0.17639,0.1764 0.097,0 0.17638,-0.079 0.17638,-0.1764 z m -3.88055,-0.3528 c 0,-0.097 -0.0794,-0.1764 -0.17639,-0.1764 -0.097,0 -0.17639,0.079 -0.17639,0.1764 0,0.097 0.0794,0.1764 0.17639,0.1764 0.097,0 0.17639,-0.079 0.17639,-0.1764 z m -1.05833,-0.3528 c 0,-0.097 -0.0794,-0.1763 -0.17639,-0.1763 -0.097,0 -0.17639,0.079 -0.17639,0.1763 0,0.097 0.0794,0.1764 0.17639,0.1764 0.097,0 0.17639,-0.079 0.17639,-0.1764 z m -0.4209,-1.0676 c -0.10862,-0.1086 -0.3059,0.087 -0.43837,0.4351 -0.19145,0.5028 -0.15091,0.5433 0.19749,0.1975 0.24109,-0.2394 0.3495,-0.524 0.24088,-0.6326 z m 1.47923,0.7149 c 0,-0.097 -0.0794,-0.1764 -0.17639,-0.1764 -0.097,0 -0.17639,0.079 -0.17639,0.1764 0,0.097 0.0794,0.1764 0.17639,0.1764 0.097,0 0.17639,-0.079 0.17639,-0.1764 z m 2.82222,0 c 0,-0.097 -0.0794,-0.1764 -0.17639,-0.1764 -0.097,0 -0.17639,0.079 -0.17639,0.1764 0,0.097 0.0794,0.1764 0.17639,0.1764 0.097,0 0.17639,-0.079 0.17639,-0.1764 z m -6.70278,-1.0584 c 0,-0.097 -0.0794,-0.1764 -0.17639,-0.1764 -0.097,0 -0.17638,0.079 -0.17638,0.1764 0,0.097 0.0794,0.1764 0.17638,0.1764 0.097,0 0.17639,-0.079 0.17639,-0.1764 z m -2.11666,-0.7055 c 0,-0.097 -0.0794,-0.1764 -0.17639,-0.1764 -0.097,0 -0.17639,0.079 -0.17639,0.1764 0,0.097 0.0794,0.1764 0.17639,0.1764 0.097,0 0.17639,-0.079 0.17639,-0.1764 z m 5.29166,0 c 0,-0.097 -0.0794,-0.1764 -0.17639,-0.1764 -0.097,0 -0.17638,0.079 -0.17638,0.1764 0,0.097 0.0794,0.1764 0.17638,0.1764 0.097,0 0.17639,-0.079 0.17639,-0.1764 z m -1.01977,-0.5054 c -0.26497,-0.1637 -0.37264,-0.4742 -0.23933,-0.6899 0.35331,-0.5717 0.90633,-0.4796 0.90633,0.1508 0,0.4469 0.0874,0.4626 0.49357,0.088 0.55961,-0.5157 0.45723,-0.7302 -0.40905,-0.8574 -0.57101,-0.084 -1.84841,0.7898 -1.84841,1.2641 0,0.1227 0.35517,0.2498 0.7893,0.2825 0.56134,0.042 0.65017,-0.026 0.30759,-0.2383 z m 1.90172,-0.024 c 0.11991,-0.194 0.0499,-0.3528 -0.15558,-0.3528 -0.20546,0 -0.37359,0.1588 -0.37359,0.3528 0,0.194 0.07,0.3528 0.15558,0.3528 0.0855,0 0.25368,-0.1588 0.37359,-0.3528 z m -4.52731,-0.9407 c -0.12936,-0.1294 -0.34103,-0.1294 -0.47039,0 -0.12933,0.1293 -0.0236,0.2352 0.2352,0.2352 0.25869,0 0.36452,-0.1059 0.23519,-0.2352 z m -0.78905,-0.4304 c 0.10632,-0.1721 -0.0303,-0.4984 -0.30364,-0.7253 -0.44958,-0.3731 -0.53005,-0.038 -0.22782,0.9499 0.0592,0.1933 0.34882,0.071 0.53146,-0.2246 z m -0.50448,-0.2164 c 0,-0.097 0.0794,-0.1764 0.17639,-0.1764 0.097,0 0.17639,0.079 0.17639,0.1764 0,0.097 -0.0794,0.1764 -0.17639,0.1764 -0.097,0 -0.17639,-0.079 -0.17639,-0.1764 z m -0.70555,-0.7055 c 0,-0.097 -0.0794,-0.1764 -0.17639,-0.1764 -0.097,0 -0.17639,0.079 -0.17639,0.1764 0,0.097 0.0794,0.1763 0.17639,0.1763 0.097,0 0.17639,-0.079 0.17639,-0.1763 z m -1.05833,-0.3528 c 0,-0.097 -0.0794,-0.1764 -0.17639,-0.1764 -0.097,0 -0.17639,0.079 -0.17639,0.1764 0,0.097 0.0794,0.1764 0.17639,0.1764 0.097,0 0.17639,-0.079 0.17639,-0.1764 z m 1.94027,-0.5292 c 0.11991,-0.194 0.13864,-0.3528 0.0416,-0.3528 -0.097,0 -0.2745,0.1588 -0.3944,0.3528 -0.11991,0.194 -0.13865,0.3528 -0.0416,0.3528 0.097,0 0.27449,-0.1588 0.3944,-0.3528 z m 0.88195,0.1764 c 0,-0.097 -0.0794,-0.1764 -0.17639,-0.1764 -0.097,0 -0.17639,0.079 -0.17639,0.1764 0,0.097 0.0794,0.1764 0.17639,0.1764 0.097,0 0.17639,-0.079 0.17639,-0.1764 z m -1.52869,-1.1171 c -0.12937,-0.1294 -0.2352,-0.024 -0.2352,0.2352 0,0.2586 0.10583,0.3645 0.2352,0.2352 0.12932,-0.1294 0.12932,-0.3411 0,-0.4704 z m -1.29353,-0.294 c -0.24155,-0.2911 -0.60883,-0.5292 -0.81619,-0.5292 -0.20736,0 -0.0689,0.2331 0.3078,0.518 0.88491,0.6693 1.05773,0.6731 0.50839,0.011 z m 0.70555,-0.3528 c 0,-0.097 -0.0794,-0.1764 -0.17639,-0.1764 -0.097,0 -0.17639,0.079 -0.17639,0.1764 0,0.097 0.0794,0.1764 0.17639,0.1764 0.097,0 0.17639,-0.079 0.17639,-0.1764 z m -2.11667,-1.0375 c 0,-0.086 -0.18326,-0.2689 -0.40728,-0.4073 -0.25234,-0.156 -0.31154,-0.097 -0.15557,0.1556 0.25132,0.4066 0.56285,0.546 0.56285,0.2517 z m -2.11666,-0.3736 c 0,-0.097 -0.0794,-0.1764 -0.17639,-0.1764 -0.097,0 -0.17639,0.079 -0.17639,0.1764 0,0.097 0.0794,0.1764 0.17639,0.1764 0.097,0 0.17639,-0.079 0.17639,-0.1764 z m 3.88055,-0.3528 c 0,-0.097 -0.0794,-0.1764 -0.17639,-0.1764 -0.097,0 -0.17638,0.079 -0.17638,0.1764 0,0.097 0.0794,0.1764 0.17638,0.1764 0.097,0 0.17639,-0.079 0.17639,-0.1764 z m -3.175,-0.3528 c 0,-0.097 -0.0794,-0.1763 -0.17639,-0.1763 -0.097,0 -0.17638,0.079 -0.17638,0.1763 0,0.097 0.0794,0.1764 0.17638,0.1764 0.097,0 0.17639,-0.079 0.17639,-0.1764 z m 0.70556,0 c 0,-0.097 -0.0794,-0.1763 -0.17639,-0.1763 -0.097,0 -0.17639,0.079 -0.17639,0.1763 0,0.097 0.0794,0.1764 0.17639,0.1764 0.097,0 0.17639,-0.079 0.17639,-0.1764 z m -1.76389,-0.3527 c 0,-0.097 -0.0794,-0.1764 -0.17639,-0.1764 -0.097,0 -0.17639,0.079 -0.17639,0.1764 0,0.097 0.0794,0.1764 0.17639,0.1764 0.097,0 0.17639,-0.079 0.17639,-0.1764 z m 1.41111,-0.4915 c 0,-0.1732 -0.26056,-0.415 -0.57905,-0.5372 -0.48419,-0.1858 -0.50602,-0.1342 -0.13321,0.315 0.50804,0.6122 0.71226,0.6759 0.71226,0.2222 z m 0.70556,-0.5669 c 0,-0.097 -0.0794,-0.1764 -0.17639,-0.1764 -0.097,0 -0.17639,0.079 -0.17639,0.1764 0,0.097 0.0794,0.1764 0.17639,0.1764 0.097,0 0.17639,-0.079 0.17639,-0.1764 z m -1.05834,-0.7055 c 0,-0.097 -0.0794,-0.1764 -0.17639,-0.1764 -0.097,0 -0.17638,0.079 -0.17638,0.1764 0,0.097 0.0794,0.1764 0.17638,0.1764 0.097,0 0.17639,-0.079 0.17639,-0.1764 z m -1.76389,-0.7056 c 0,-0.097 -0.0794,-0.1764 -0.17638,-0.1764 -0.097,0 -0.17639,0.079 -0.17639,0.1764 0,0.097 0.0794,0.1764 0.17639,0.1764 0.097,0 0.17638,-0.079 0.17638,-0.1764 z m -1.88146,-0.7643 c -0.12937,-0.1294 -0.2352,-0.024 -0.2352,0.2352 0,0.2586 0.10583,0.3645 0.2352,0.2352 0.12932,-0.1294 0.12932,-0.3411 0,-0.4704 z m -0.2352,-0.6468 c 0,-0.097 -0.0794,-0.1764 -0.17639,-0.1764 -0.097,0 -0.17639,0.079 -0.17639,0.1764 0,0.097 0.0794,0.1764 0.17639,0.1764 0.097,0 0.17639,-0.079 0.17639,-0.1764 z m 261.2319,72.6644 c 2.1343,-0.698 12.8252,-4.0472 23.7575,-7.4428 16.9321,-5.2592 20.5906,-6.5163 24.6944,-8.4855 2.6497,-1.2715 5.8269,-2.7794 7.0605,-3.3509 2.7311,-1.2654 2.6249,-1.5174 -0.4042,-0.9593 l -2.3027,0.4243 -9.9399,-4.7071 -9.9399,-4.7071 -10.2011,-10.3834 c -5.6105,-5.7108 -10.1988,-10.4833 -10.1962,-10.6055 0,-0.1221 12.2704,-6.1147 27.2616,-13.3167 l 27.2567,-13.0947 26.8017,-18.0166 26.8016,-18.0166 8.574,-7.7825 c 4.7157,-4.2804 8.7341,-7.7825 8.9298,-7.7825 0.1957,0 4.8665,3.8125 10.3795,8.4723 11.5675,9.7771 9.743,8.7716 18.507,10.1988 9.1089,1.4832 8.4696,0.887 5.836,5.4419 -1.8435,3.1886 -2.9741,4.6035 -6.7649,8.4667 -2.5033,2.5511 -5.1837,5.3408 -5.9564,6.1994 l -1.405,1.561 1.2815,-1.0318 c 0.7048,-0.5676 3.7139,-3.2544 6.6869,-5.9708 2.9729,-2.7164 5.3027,-4.7706 5.1773,-4.565 -2.2122,3.6278 -8.1795,9.8594 -17.7534,18.5396 -22.613,20.5023 -22.1589,20.1489 -9.4152,7.3274 6.4514,-6.4907 11.7299,-11.9472 11.7299,-12.1254 0,-0.1781 -0.5953,0.2403 -1.3229,0.93 -0.7276,0.6897 -5.7821,5.286 -11.2322,10.214 l -9.9093,8.96 -21.488,14.4363 -21.4879,14.4363 -11.6417,5.6232 c -6.4029,3.0927 -13.7705,6.6383 -16.3725,7.8791 -5.691,2.714 -5.6805,2.8681 0.1163,1.6939 2.4739,-0.5012 4.5554,-0.8539 4.6255,-0.7838 0.07,0.07 -3.793,2.0032 -8.5848,4.2958 l -8.7122,4.1683 -21.8723,6.8089 c -18.2716,5.6882 -22.5691,6.9069 -26.1055,7.4033 -2.3284,0.3269 -4.7096,0.6668 -5.2917,0.7554 -0.5821,0.089 0.6879,-0.4099 2.8222,-1.1079 z m -125.8368,-38.3352 -11.3937,-17 -11.5327,-22.5993 -11.5327,-22.5993 1.6533,-0.1111 c 0.9092,-0.061 9.5914,-1.296 19.2938,-2.7442 9.7023,-1.4482 23.0844,-3.4298 29.738,-4.4034 l 12.0975,-1.7702 29.9389,-9.3308 c 16.4664,-5.1319 30.6571,-9.6386 31.5348,-10.0148 l 1.596,-0.6842 11.4542,22.4706 11.4542,22.4706 11.4764,17.1609 11.4765,17.161 -1.6519,0.7055 c -0.9085,0.388 -14.9869,4.8685 -31.2852,9.9566 l -29.6333,9.251 -30.1625,4.5287 c -16.5894,2.4907 -30.8297,4.534 -31.6452,4.5405 l -1.4826,0.012 -11.3938,-17 z m 194.0993,15.7653 c 0,-0.097 0.079,-0.1764 0.1764,-0.1764 0.097,0 0.1764,0.079 0.1764,0.1764 0,0.097 -0.079,0.1763 -0.1764,0.1763 -0.097,0 -0.1764,-0.079 -0.1764,-0.1763 z m -304.44718,-26.8112 c 0,-0.097 0.0794,-0.1763 0.17639,-0.1763 0.097,0 0.17639,0.079 0.17639,0.1763 0,0.097 -0.0794,0.1764 -0.17639,0.1764 -0.097,0 -0.17639,-0.079 -0.17639,-0.1764 z m -10.23056,-9.8777 c 0,-0.097 0.0794,-0.1764 0.17639,-0.1764 0.097,0 0.17639,0.079 0.17639,0.1764 0,0.097 -0.0794,0.1764 -0.17639,0.1764 -0.097,0 -0.17639,-0.079 -0.17639,-0.1764 z m 0.52917,-2.2931 c 0.11991,-0.194 0.28804,-0.3528 0.37359,-0.3528 0.0856,0 0.15558,0.1588 0.15558,0.3528 0,0.194 -0.16814,0.3528 -0.37359,0.3528 -0.2055,0 -0.27549,-0.1588 -0.15558,-0.3528 z m -4.7625,-0.5292 c 0,-0.097 0.0794,-0.1763 0.17639,-0.1763 0.097,0 0.17639,0.079 0.17639,0.1763 0,0.097 -0.0794,0.1764 -0.17639,0.1764 -0.097,0 -0.17639,-0.079 -0.17639,-0.1764 z m 0.35278,-0.7055 c 0,-0.097 0.0794,-0.1764 0.17639,-0.1764 0.097,0 0.17639,0.079 0.17639,0.1764 0,0.097 -0.0794,0.1764 -0.17639,0.1764 -0.097,0 -0.17639,-0.079 -0.17639,-0.1764 z m 2.46944,-2.1167 c 0,-0.097 0.0794,-0.1764 0.17639,-0.1764 0.097,0 0.17639,0.079 0.17639,0.1764 0,0.097 -0.0794,0.1764 -0.17639,0.1764 -0.097,0 -0.17639,-0.079 -0.17639,-0.1764 z m -3.3287,-1.4841 c -0.19145,-0.5028 -0.15092,-0.5433 0.19748,-0.1975 0.24109,0.2394 0.3495,0.524 0.24088,0.6326 -0.10862,0.1086 -0.30589,-0.087 -0.43836,-0.4351 z m 1.41418,0.065 c -0.37388,-0.2828 -0.59782,-0.5962 -0.49759,-0.6965 0.10018,-0.1002 0.47039,0.1363 0.82267,0.5256 0.75011,0.8289 0.62886,0.8926 -0.32508,0.1709 z m -1.3933,-1.4172 c -0.34039,-0.8871 -0.23999,-1.116 0.1759,-0.4008 0.20591,0.3541 0.30007,0.7181 0.20923,0.8089 -0.0908,0.091 -0.26412,-0.093 -0.38513,-0.4081 z m -2.46419,-1.3974 c -0.11168,-0.2911 -0.0493,-0.5292 0.13865,-0.5292 0.18792,0 0.3417,0.2381 0.3417,0.5292 0,0.291 -0.0624,0.5292 -0.13864,0.5292 -0.0763,0 -0.23002,-0.2382 -0.34171,-0.5292 z m 1.1859,0.3528 c 0,-0.097 0.0794,-0.1764 0.17639,-0.1764 0.097,0 0.17639,0.079 0.17639,0.1764 0,0.097 -0.0794,0.1764 -0.17639,0.1764 -0.097,0 -0.17639,-0.079 -0.17639,-0.1764 z m -2.82222,-0.882 c 0,-0.194 0.15875,-0.3528 0.35278,-0.3528 0.19403,0 0.35278,0.1588 0.35278,0.3528 0,0.1941 -0.15875,0.3528 -0.35278,0.3528 -0.19403,0 -0.35278,-0.1587 -0.35278,-0.3528 z m 431.09438,-38.9607 c 0,-0.1269 1.0886,-2.8823 2.419,-6.1231 1.3304,-3.2409 4.5155,-11.0035 7.078,-17.2502 l 4.659,-11.3576 0.6765,-18.6285 c 0.3721,-10.2457 0.6848,-19.581 0.6951,-20.7452 l 0.019,-2.1166 7.0461,-8.6431 c 6.1579,-7.5535 7.4751,-9.399 10.4492,-14.6403 5.3302,-9.3934 10.3535,-18.3172 18.369,-32.6319 l 7.4077,-13.2292 8.0494,-23.8954 c 4.4272,-13.1425 8.1066,-23.8382 8.1765,-23.7683 0.07,0.07 0.7557,8.9545 1.524,19.7436 l 1.3969,19.6166 -5.1206,20.2485 c -6.9103,27.3253 -14.6356,50.7491 -19.6794,59.6689 -1.6457,2.9104 -7.1189,12.6112 -12.1626,21.5573 -9.9914,17.7216 -9.4533,16.929 -22.4898,33.1233 -3.9049,4.8507 -7.3966,9.2957 -7.7595,9.8778 -2.1149,3.3928 -7.5983,8.9958 -8.8038,8.9958 -0.4583,0 -1.0843,0.096 -1.3913,0.2141 -0.3069,0.1178 -0.558,0.1104 -0.558,-0.017 z m -49.222,-36.7983 -11.2192,-16.1396 -11.6149,-23.4107 c -6.3881,-12.8759 -11.4817,-23.537 -11.3189,-23.6912 0.1627,-0.1543 6.7443,-6.1294 14.6258,-13.2782 l 14.3298,-12.9977 11.3775,-14.1111 c 6.2576,-7.7611 11.6523,-14.4008 11.9884,-14.755 0.6248,-0.6585 1.9913,0.7621 8.2994,8.6271 1.3225,1.6491 11.7364,14.4043 15.5157,19.0043 1.0362,1.2612 3.2176,3.9283 4.8475,5.9269 l 2.9635,3.6339 7.2985,20.2131 c 4.0141,11.1171 7.2984,20.4714 7.2984,20.7873 0,0.3158 -5.3578,7.1983 -11.9063,15.2945 l -11.9062,14.7203 -14.4639,13.1555 c -7.9551,7.2355 -14.5611,13.1565 -14.6799,13.1578 -0.1187,0 -5.2646,-7.2604 -11.4352,-16.1372 z m -160.9962,14.4309 c -0.1678,-0.3214 -4.9326,-11.8919 -10.5885,-25.7122 l -10.2833,-25.1279 -9.8763,-29.5527 c -9.6062,-28.7444 -15.2567,-47.4026 -14.5651,-48.0943 0.1747,-0.1747 7.558,-3.7999 16.4074,-8.056 l 16.0898,-7.7384 21.647,-14.5584 21.647,-14.5585 11.6998,-10.6386 11.6999,-10.6387 11.5835,2.3571 c 10.7906,2.1958 21.6131,5.3311 23.1663,6.7114 0.1616,0.1437 3.9182,12.1463 8.348,26.6726 l 8.0541,26.4113 10.4373,27.2463 c 5.7406,14.9854 10.4375,27.3819 10.4375,27.5477 0,0.1658 -3.9132,3.8476 -8.6959,8.1818 l -8.6958,7.8802 -26.4937,17.8191 -26.4938,17.8191 -27.6101,13.3067 c -23.7451,11.4439 -27.6529,13.2249 -27.9151,12.7224 z m -169.7928,-99.7997 c -1.8555,-0.097 -2.3999,-0.2521 -2.5369,-0.7247 -6.6883,-23.0765 -17.3189,-65.6284 -18.627,-74.5597 -0.09,-0.6117 0.2465,-0.8982 1.8305,-1.5604 1.0672,-0.4462 5.0359,-2.0998 8.8195,-3.6748 3.7835,-1.575 7.7523,-3.2336 8.8194,-3.6857 3.2662,-1.3839 4.5397,-1.7772 22.7542,-7.0277 l 17.6389,-5.0845 19.5791,-3.3832 19.5792,-3.3831 13.1544,-0.9367 c 7.235,-0.5152 13.222,-0.8692 13.3046,-0.7866 0.083,0.082 1.6517,7.0482 3.4869,15.4793 2.5032,11.5001 4.8427,20.8368 9.3659,37.3778 3.3161,12.1268 6.0668,22.2508 6.1128,22.4978 0.322,1.7282 -13.206,6.9627 -38.127,14.7526 l -24.2309,7.5742 -24.6295,3.6933 c -26.099,3.9136 -26.4345,3.9454 -36.2941,3.4321 z m -109.90053,-23.679 c -6.51433,-2.9378 -7.01774,-3.2397 -12.73676,-7.6388 l -5.95436,-4.5802 -5.34726,-24.8708 c -2.94101,-13.679 -5.73829,-27.1727 -6.2162,-29.9861 -0.81731,-4.8113 -5.88281,-42.5029 -6.32936,-47.0958 -0.1132,-1.1642 -0.44041,-4.6412 -0.72714,-7.7266 l -0.52137,-5.6099 9.1102,-9.3832 c 7.20048,-7.4162 9.84299,-9.8944 12.60605,-11.8222 4.59254,-3.2044 19.1407,-12.554 19.53412,-12.554 0.16891,0 0.36001,-0.1219 0.42471,-0.2709 0.0647,-0.1491 0.99071,-0.808 2.05786,-1.4643 1.06715,-0.6564 2.83862,-1.8045 3.93661,-2.5513 1.09802,-0.7469 2.10393,-1.3579 2.23541,-1.3579 0.13145,0 0.89997,-0.4536 1.7078,-1.0079 0.80782,-0.5544 3.13566,-2.0878 5.17296,-3.4077 2.03729,-1.3198 4.38682,-2.8507 5.22114,-3.4018 0.83436,-0.5511 1.58348,-1.0021 1.66469,-1.0021 0.0812,0 1.24188,-0.7078 2.57919,-1.5729 1.33731,-0.8651 3.92197,-2.2336 5.74365,-3.0411 6.40732,-2.8403 31.8613,-13.3447 32.00011,-13.2059 0.0773,0.077 0.75142,7.0155 1.49814,15.4184 1.92921,21.7089 1.68604,19.8063 6.70938,52.496 5.85734,38.1166 5.37912,35.3928 9.71476,55.3336 4.3729,20.1121 4.7726,17.2995 -2.90947,20.4728 -24.3441,10.0562 -43.96778,23.068 -60.9287,40.3997 -6.96757,7.12 -12.54337,12.543 -12.87639,12.5237 -0.32304,-0.019 -3.63943,-1.4105 -7.36977,-3.0928 z m 437.31413,-26.1298 -21.6623,-15.4941 -23.2415,-10.4205 c -12.7828,-5.7313 -23.3038,-10.4829 -23.3799,-10.559 -0.6598,-0.6597 -6.9075,-26.8382 -8.6937,-36.4272 -0.039,-0.2096 4.2652,-5.7658 9.5649,-12.3472 l 9.636,-11.9662 11.5044,-20.4611 11.5045,-20.4611 4.8961,-14.4639 c 2.6928,-7.9551 5.0065,-14.561 5.1415,-14.6798 0.1351,-0.1188 4.0555,1.1589 8.7122,2.8393 l 8.4666,3.0552 25.0035,13.6624 25.0035,13.6623 18.1774,14.8956 c 9.9976,8.1926 18.7687,15.4512 19.4914,16.1303 l 1.3138,1.2347 -8.3491,24.5181 -8.3492,24.518 -8.7681,15.5223 c -4.8224,8.5372 -11.2244,19.8878 -14.2265,25.2236 -5.0832,9.0343 -15.9936,24.1183 -19.6249,27.132 -0.3494,0.2899 -5.6048,-3.3008 -22.1206,-15.1137 z m 119.8051,-43.6955 -8.1104,-20.2258 -14.0341,-18.2339 c -7.7187,-10.0287 -14.4286,-18.6574 -14.9107,-19.1749 -0.7623,-0.8182 -0.8268,-1.0713 -0.4951,-1.9403 0.2098,-0.5496 1.7205,-12.5545 3.357,-26.6774 l 2.9754,-25.6782 -0.8788,-7.1302 c -0.4834,-3.9216 -1.8307,-14.8542 -2.9941,-24.2947 -2.3461,-19.0392 -2.2066,-18.4794 -5.2247,-20.9582 -0.9297,-0.7636 -4.6813,-3.849 -8.3369,-6.8565 -3.6556,-3.0074 -7.2457,-5.9443 -7.9781,-6.5263 -3.3616,-2.672 -18.9996,-15.5762 -20.1022,-16.588 -0.679,-0.6232 -12.4651,-7.2608 -26.1912,-14.7502 l -24.9564,-13.6171 -7.8519,-2.8048 c -4.3185,-1.5427 -8.0979,-2.9022 -8.3986,-3.0212 -0.3207,-0.127 -2.5817,-5.3083 -5.4681,-12.5303 l -4.9212,-12.3139 -11.6624,-15.3347 -11.6624,-15.3346 -9.4161,-7.31 c -5.1788,-4.0204 -9.4161,-7.4253 -9.4161,-7.5664 0,-1.2046 5.0284,-5.9386 6.5504,-6.1668 2.2267,-0.3339 1.9365,-0.5121 -4.8909,-3.0033 -5.0931,-1.8584 -7.3969,-2.4559 -16.4042,-4.2548 -5.7634,-1.151 -10.8758,-2.1862 -11.3608,-2.3004 -1.9681,-0.4633 0.1321,0.6759 6.7824,3.6791 6.6838,3.0184 7.1098,3.274 12.7443,7.6462 l 5.8293,4.5233 -1.7729,2.0465 c -5.8718,6.7779 -8.5377,10.2224 -9.5084,12.2855 -1.5047,3.198 -6.4263,23.4539 -7.2002,29.6339 -0.3281,2.6194 -0.6497,4.8187 -0.7147,4.8873 -0.065,0.069 -7.5498,-1.4195 -16.6328,-3.3069 -13.2368,-2.7506 -17.6348,-3.526 -22.159,-3.9066 -12.0244,-1.0117 -66.7685,-4.0666 -69.4972,-3.8781 -1.5522,0.1071 -10.8741,0.7843 -20.7153,1.5048 -9.8413,0.7205 -17.9865,1.2166 -18.1007,1.1025 -0.2004,-0.2004 1.8214,-16.901 2.8317,-23.3905 0.4903,-3.1496 9.112,-30.0144 10.6584,-33.211 0.9379,-1.9386 7.419,-9.2729 8.3589,-9.4592 7.2071,-1.4285 54.5301,-1.3365 66.885,0.1301 4.4289,0.5257 42.4772,7.8825 50.3886,9.7429 2.2283,0.5239 -0.546,-0.872 -11.1298,-5.6001 l -11.5657,-5.1668 -21.7032,-4.5636 -21.7032,-4.5637 -15.1621,-0.2657 c -10.8481,-0.1901 -14.8288,-0.3641 -13.9907,-0.6117 0.7697,-0.2274 7.6659,-0.2133 20.1083,0.041 l 18.937,0.3872 22.6809,4.8029 c 22.2174,4.7047 23.0466,4.9106 40.5695,10.0753 l 17.8885,5.2725 12.7848,5.7092 c 7.0316,3.14 12.7466,5.7465 12.7,5.7922 -0.047,0.046 -3.1711,-0.4547 -6.9432,-1.112 -7.3283,-1.2769 -7.9997,-1.305 -5.6063,-0.2348 0.8407,0.3759 11.3711,5.0778 23.4008,10.4486 12.0297,5.3707 22.1897,9.9428 22.5778,10.16 1.0741,0.6014 33.4454,23.7352 36.8653,26.3454 19.7352,15.0627 20.7831,15.954 25.0378,21.294 14.2802,17.9229 25.3558,32.1343 38.22,49.0417 l 14.6945,19.3128 17.2497,42.9947 17.2498,42.9947 3.066,24.9569 3.066,24.957 -1.2719,10.9841 c -3.1074,26.8348 -4.7245,39.9634 -5.0039,40.6244 -0.2348,0.5558 -2.0851,-3.7365 -8.4115,-19.5133 z m -38.0988,-163.9812 c -0.2936,-0.7028 -0.5339,-1.3642 -0.5339,-1.4699 0,-0.1057 -0.082,-0.1106 -0.181,-0.011 -0.2011,0.2011 0.7932,2.7588 1.0724,2.7588 0.097,0 -0.064,-0.575 -0.3575,-1.2778 z m -1.7964,-4.5152 c -0.5177,-1.2932 -0.9984,-2.2941 -1.0683,-2.2243 -0.07,0.07 0.2939,1.1877 0.8083,2.4843 0.5144,1.2965 0.9951,2.2974 1.0683,2.2243 0.073,-0.073 -0.2906,-1.1911 -0.8083,-2.4843 z m -1.5166,-3.6173 c -0.4159,-0.7152 -0.5163,-0.4863 -0.1759,0.4008 0.121,0.3153 0.2943,0.499 0.3851,0.4081 0.091,-0.091 0,-0.4548 -0.2092,-0.8089 z m -0.7056,-1.7639 c -0.4158,-0.7152 -0.5162,-0.4863 -0.1759,0.4009 0.1211,0.3152 0.2943,0.4989 0.3852,0.408 0.091,-0.091 0,-0.4548 -0.2093,-0.8089 z m -0.7055,-1.7639 c -0.4159,-0.7152 -0.5163,-0.4863 -0.1759,0.4009 0.121,0.3152 0.2943,0.4989 0.3851,0.4081 0.091,-0.091 0,-0.4549 -0.2092,-0.809 z m -0.7056,-1.7639 c -0.4159,-0.7152 -0.5163,-0.4863 -0.1759,0.4009 0.121,0.3153 0.2943,0.4989 0.3852,0.4081 0.091,-0.091 0,-0.4549 -0.2093,-0.809 z m -0.7055,-1.7639 c -0.4159,-0.7151 -0.5163,-0.4862 -0.1759,0.4009 0.121,0.3153 0.2943,0.4989 0.3851,0.4081 0.091,-0.091 0,-0.4549 -0.2092,-0.809 z m -0.7056,-1.7639 c -0.4159,-0.7151 -0.5163,-0.4862 -0.1759,0.4009 0.121,0.3153 0.2943,0.4989 0.3852,0.4081 0.091,-0.091 0,-0.4549 -0.2093,-0.809 z m -0.7055,-1.7639 c -0.4159,-0.7151 -0.5163,-0.4862 -0.1759,0.4009 0.121,0.3153 0.2943,0.4989 0.3851,0.4081 0.091,-0.091 0,-0.4549 -0.2092,-0.809 z m -0.7056,-1.7639 c -0.4159,-0.7151 -0.5163,-0.4862 -0.1759,0.4009 0.121,0.3153 0.2943,0.4989 0.3851,0.4081 0.091,-0.091 0,-0.4549 -0.2092,-0.809 z m -0.7055,-1.7638 c -0.4159,-0.7152 -0.5163,-0.4863 -0.1759,0.4008 0.121,0.3153 0.2942,0.4989 0.3851,0.4081 0.091,-0.091 0,-0.4548 -0.2092,-0.8089 z m -0.3959,-0.9966 c 0,-0.097 -0.079,-0.1764 -0.1764,-0.1764 -0.097,0 -0.1764,0.079 -0.1764,0.1764 0,0.097 0.079,0.1763 0.1764,0.1763 0.097,0 0.1764,-0.079 0.1764,-0.1763 z m -0.4704,-1.1172 c -0.1293,-0.1293 -0.2352,-0.024 -0.2352,0.2352 0,0.2587 0.1059,0.3645 0.2352,0.2352 0.1294,-0.1294 0.1294,-0.341 0,-0.4704 z m -0.5449,-1.414 c -0.4158,-0.7152 -0.5162,-0.4863 -0.1759,0.4009 0.1211,0.3152 0.2943,0.4989 0.3852,0.408 0.091,-0.091 0,-0.4548 -0.2093,-0.8089 z m -0.7055,-1.7639 c -0.4159,-0.7152 -0.5163,-0.4863 -0.1759,0.4009 0.121,0.3152 0.2943,0.4989 0.3851,0.4081 0.091,-0.091 0,-0.4549 -0.2092,-0.809 z m -0.3959,-0.9966 c 0,-0.097 -0.079,-0.1764 -0.1764,-0.1764 -0.097,0 -0.1763,0.079 -0.1763,0.1764 0,0.097 0.079,0.1764 0.1763,0.1764 0.097,0 0.1764,-0.079 0.1764,-0.1764 z m -0.4703,-1.1171 c -0.1294,-0.1294 -0.2352,-0.024 -0.2352,0.2351 0,0.2587 0.1058,0.3646 0.2352,0.2352 0.1293,-0.1293 0.1293,-0.341 0,-0.4703 z m -0.2352,-0.6468 c 0,-0.097 -0.079,-0.1764 -0.1764,-0.1764 -0.097,0 -0.1764,0.079 -0.1764,0.1764 0,0.097 0.079,0.1764 0.1764,0.1764 0.097,0 0.1764,-0.079 0.1764,-0.1764 z m -0.4704,-1.1171 c -0.1293,-0.1294 -0.2352,-0.024 -0.2352,0.2352 0,0.2587 0.1059,0.3645 0.2352,0.2351 0.1294,-0.1293 0.1294,-0.341 0,-0.4703 z m -0.5449,-1.4141 c -0.4159,-0.7151 -0.5163,-0.4862 -0.1759,0.4009 0.121,0.3153 0.2943,0.4989 0.3852,0.4081 0.091,-0.091 0,-0.4549 -0.2093,-0.809 z m -0.3958,-0.9966 c 0,-0.097 -0.079,-0.1764 -0.1764,-0.1764 -0.097,0 -0.1764,0.079 -0.1764,0.1764 0,0.097 0.079,0.1764 0.1764,0.1764 0.097,0 0.1764,-0.079 0.1764,-0.1764 z m -0.4704,-1.1171 c -0.1294,-0.1294 -0.2352,-0.024 -0.2352,0.2352 0,0.2587 0.1058,0.3645 0.2352,0.2352 0.1293,-0.1294 0.1293,-0.3411 0,-0.4704 z m -0.5449,-1.4141 c -0.4159,-0.7151 -0.5163,-0.4862 -0.1759,0.4009 0.121,0.3153 0.2943,0.4989 0.3851,0.4081 0.091,-0.091 0,-0.4549 -0.2092,-0.809 z m -0.3958,-0.9966 c 0,-0.097 -0.079,-0.1763 -0.1764,-0.1763 -0.097,0 -0.1764,0.079 -0.1764,0.1763 0,0.097 0.079,0.1764 0.1764,0.1764 0.097,0 0.1764,-0.079 0.1764,-0.1764 z m -0.4704,-1.1171 c -0.1294,-0.1293 -0.2352,-0.024 -0.2352,0.2352 0,0.2587 0.1058,0.3645 0.2352,0.2352 0.1293,-0.1294 0.1293,-0.341 0,-0.4704 z m -0.2352,-0.6467 c 0,-0.097 -0.079,-0.1764 -0.1764,-0.1764 -0.097,0 -0.1764,0.079 -0.1764,0.1764 0,0.097 0.079,0.1763 0.1764,0.1763 0.097,0 0.1764,-0.079 0.1764,-0.1763 z m -0.3528,-0.7056 c 0,-0.097 -0.079,-0.1764 -0.1764,-0.1764 -0.097,0 -0.1764,0.079 -0.1764,0.1764 0,0.097 0.079,0.1764 0.1764,0.1764 0.097,0 0.1764,-0.079 0.1764,-0.1764 z m -192.793,197.175 c -31.174,-6.3491 -59.1411,-8.2571 -87.7957,-5.9897 -8.8386,0.6994 -7.133,2.999 -11.0383,-14.8825 -5.9445,-27.2186 -13.9995,-78.3446 -16.1604,-102.5722 -0.6922,-7.7612 -1.4351,-16.0616 -1.6509,-18.4456 -0.4857,-5.3653 -2.4704,-4.5921 15.2428,-5.9381 27.7525,-2.1088 22.7412,-2.098 56.5997,-0.122 41.7002,2.4336 39.2271,2.1802 56.6208,5.8016 8.0522,1.6765 15.5175,3.208 16.5897,3.4033 l 1.9494,0.3552 0.6236,7.12 c 2.613,29.8318 7.69,59.6225 18.2054,106.8259 0.5784,2.5968 -20.7679,26.3777 -26.0352,29.0045 -0.1212,0.06 -10.5391,-1.9917 -23.1509,-4.5604 z m -382.16864,-8.2925 c -0.3654,-0.8566 -1.3191,-3.2244 -2.1194,-5.2617 l -1.4552,-3.7041 -2.339,-19.4527 -2.3388,-19.4526 2.3504,-20.4113 2.3506,-20.4112 2.1499,-6.5264 2.1499,-6.5264 8.30464,-14.1111 8.30467,-14.1111 8.04503,-8.1446 c 4.42478,-4.4795 8.04506,-7.9211 8.04506,-7.6479 0,0.2731 -0.46962,4.1763 -1.04362,8.6737 -1.34994,10.577 -2.2497,33.2822 -1.78495,45.0424 0.16485,4.1716 0.40287,10.9978 0.52892,15.1694 0.18658,6.175 1.83303,28.1599 2.44902,32.7014 0.144,1.0619 -0.33655,1.6282 -8.23193,9.7014 -9.43741,9.6498 -7.07693,6.327 -19.24763,27.0945 -5.81031,9.9144 -5.29901,9.2977 -6.11761,7.3783 z m -4.8424,-93.6325 c 0.1306,-0.3881 2.4618,-7.2937 5.1803,-15.3458 l 4.94268,-14.6403 12.32746,-21.8722 c 6.78015,-12.0298 12.74354,-22.3485 13.25203,-22.9306 0.75322,-0.8622 0.82765,-0.8949 0.40185,-0.1764 -0.28748,0.4851 -5.02793,8.8957 -10.53437,18.6903 -11.12915,19.796 -10.111,17.5149 -16.86855,37.7939 -3.0623,9.1899 -3.4071,10.0085 -6.0925,14.4639 -1.5656,2.5975 -2.7396,4.4053 -2.6089,4.0172 z m 468.20634,-23.3016 -20.052,-7.184 -14.873,-3.0703 c -8.1802,-1.6887 -15,-3.1797 -15.1552,-3.3132 -3.7601,-3.2368 -3.9441,-99.7806 -0.1973,-103.5274 0.093,-0.093 6.986,1.2497 15.3174,2.9841 l 15.1481,3.1536 19.4028,6.9007 c 10.6715,3.7954 19.8282,7.0705 20.3481,7.278 0.8004,0.3193 1.272,1.1972 3.0748,5.7244 l 2.1295,5.3474 2.3751,19.481 2.3752,19.481 -2.3922,20.6534 -2.3923,20.6534 -2.1181,6.3441 c -1.1774,3.5263 -2.3004,6.3293 -2.5286,6.3109 -0.2257,-0.018 -9.4338,-3.2659 -20.4623,-7.2171 z m -324.59053,6.4565 c -0.0731,-0.2426 -0.46387,-5.2035 -0.86843,-11.0243 -2.58622,-37.2074 -2.51626,-59.6619 0.26775,-85.9828 0.74479,-7.0414 -0.79759,-5.5468 9.92784,-9.6206 37.14697,-14.1091 62.49697,-19.9941 104.71737,-24.3099 13.6516,-1.3955 11.7908,-2.3177 10.9929,5.4478 -1.7191,16.7316 -1.9302,21.269 -1.9111,41.0877 0.019,19.4397 0.2417,24.8841 1.9137,46.7273 0.4058,5.3028 0.5558,9.0614 0.366,9.1787 -0.1767,0.1092 -4.8164,0.6461 -10.3105,1.1932 -42.4839,4.23 -68.8316,10.3171 -106.24152,24.5451 -9.41204,3.5796 -8.67561,3.3502 -8.85401,2.7578 z m -104.25094,-38.5634 c -0.0853,-3.8048 5.26683,-27.7801 7.26736,-32.5545 1.11199,-2.6539 1.00397,-2.5124 17.54519,-22.9856 l 12.96857,-16.0514 16.82002,-15.2875 c 9.99148,-9.0812 18.18061,-16.234 20.17141,-17.6189 8.72497,-6.0693 46.82313,-26.1839 49.59392,-26.1839 0.106,0 -1.38388,1.8055 -3.31096,4.0123 l -3.50383,4.0122 -5.14152,15.4825 c -2.82787,8.5154 -5.30504,16.5127 -5.50489,17.7718 -0.19981,1.2591 -1.00118,7.2752 -1.78078,13.3691 -0.77964,6.0938 -1.4587,11.1101 -1.50905,11.1472 -0.0503,0.037 -6.52088,2.7296 -14.37901,5.9833 -21.66979,8.9726 -19.32512,7.7268 -42.50971,22.5865 -29.38343,18.8327 -26.97664,17.0515 -37.6427,27.8579 -6.54868,6.6348 -9.07224,8.9847 -9.08402,8.459 z m 474.82257,-105.8109 c 0,-0.097 0.079,-0.1764 0.1764,-0.1764 0.097,0 0.1763,0.079 0.1763,0.1764 0,0.097 -0.079,0.1763 -0.1763,0.1763 -0.097,0 -0.1764,-0.079 -0.1764,-0.1763 z m -347.1699,-27.6044 c 3.5426,-4.7903 4.9211,-5.7544 15.206,-10.635 l 9.7014,-4.6037 21.5327,-6.6987 21.5328,-6.6986 23.6228,-3.5143 c 34.5794,-5.1442 36.5868,-5.3857 43.7311,-5.2611 l 5.9972,0.1046 -5.1039,1.0326 c -5.7059,1.1542 -4.8589,0.6246 -9.4649,5.9183 -2.808,3.2272 -0.8913,2.7946 -17.7103,3.9971 -12.5178,0.8951 -13.5775,1.0351 -30.8631,4.08 -3.2958,0.5806 -9.2245,1.6115 -13.175,2.291 -12.5651,2.1611 -40.4973,10.4933 -53.8578,16.0657 -5.6268,2.3469 -10.5987,4.4078 -11.0487,4.5799 l -0.8181,0.3129 z"
       id="path801" /></g></svg>
