<?xml version="1.0" encoding="UTF-8" standalone="no"?>
<!-- Created with Inkscape (http://www.inkscape.org/) -->

<svg
   width="672.46588mm"
   height="670.67871mm"
   viewBox="0 0 672.46588 670.67871"
   version="1.1"
   id="svg361"
   xml:space="preserve"
   xmlns="http://www.w3.org/2000/svg"
   xmlns:svg="http://www.w3.org/2000/svg"><defs
     id="defs358" /><g
     id="layer1"
     transform="translate(-816.85054,-1091.3882)"><path
       style="fill:#000000;stroke-width:0.352778"
       d="m 1133.9367,1761.7209 -16.9333,-0.3222 -22.5778,-4.738 c -22.3906,-4.6988 -22.7313,-4.7833 -41.0986,-10.1886 l -18.5208,-5.4505 -14.6403,-6.5684 c -8.0522,-3.6126 -17.4816,-7.8332 -20.9543,-9.3792 -3.47271,-1.546 -6.96521,-3.1427 -7.76111,-3.5484 -4.78469,-2.4386 -36.50844,-25.2912 -54.54014,-39.2886 l -19.22639,-14.9248 -14.12759,-17.9252 c -7.77017,-9.8588 -20.52203,-26.3389 -28.3374,-36.6224 l -14.20982,-18.6972 -8.575,-21.3431 c -4.71622,-11.7386 -12.48819,-31.1061 -17.27105,-43.0389 l -8.69609,-21.6958 -1.0586,-8.643 c -0.58224,-4.7537 -1.91742,-15.6281 -2.96708,-24.1653 -1.04966,-8.5372 -2.737,-24.9351 -3.74965,-36.4397 l -1.84118,-20.9175 2.7458,-23.8853 2.7458,-23.8853 4.38126,-18.4414 4.38128,-18.4415 7.43987,-22.128 7.43987,-22.128 12.20068,-21.6771 c 9.49329,-16.8668 12.81797,-22.4641 14.9824,-25.2236 1.52996,-1.9506 5.00571,-6.4536 7.72393,-10.0068 2.71822,-3.5532 11.12587,-14.11 18.68367,-23.4597 l 13.74147,-16.9995 16.82401,-15.2905 16.82397,-15.2906 18.52083,-12.359 c 10.18646,-6.7974 18.76587,-12.572 19.06538,-12.8322 0.4941,-0.4294 16.32218,-8.1774 35.96798,-17.6067 7.5633,-3.6301 7.6458,-3.6594 29.2073,-10.368 l 21.6226,-6.7275 22.4746,-3.3432 c 45.8991,-6.8275 43.0803,-6.5539 63.7496,-6.189 9.5074,0.1678 20.6993,0.4015 24.8709,0.5193 l 7.5847,0.2142 22.5617,4.7563 c 22.2513,4.6909 22.8094,4.8295 40.5694,10.0736 l 18.0078,5.3173 13.2291,5.9205 c 7.2761,3.2562 17.2773,7.7404 22.225,9.9647 l 8.9959,4.0443 17.1097,11.9302 c 12.9602,9.0368 21.7861,15.5573 36.3919,26.8857 l 19.2821,14.9554 13.5724,17.2035 c 7.4648,9.462 20.2387,25.9613 28.3864,36.6652 l 14.8141,19.4616 17.2886,43.1294 17.2887,43.1294 2.9015,23.8125 c 1.8256,14.983 3.599,31.661 4.7826,44.9792 l 1.8811,21.1667 -2.8214,24.2973 -2.8213,24.2973 -4.3579,18.2124 -4.3579,18.2124 -7.4363,22.0216 -7.4363,22.0217 -12.0854,21.4814 -12.0854,21.4815 -8.0859,10.4719 c -4.4472,5.7595 -14.1122,17.9332 -21.4777,27.0525 l -13.3919,16.5805 -16.7986,15.2861 -16.7987,15.2861 -19.5993,13.1675 -19.5994,13.1675 -9.152,4.4036 c -5.0336,2.422 -14.3114,6.9023 -20.6173,9.9563 l -11.4653,5.5526 -21.8722,6.8567 -21.8723,6.8567 -22.225,3.3272 c -47.492,7.1098 -42.7908,6.7493 -79.0222,6.0599 z m 44.5055,-2.0097 c 7.3426,-0.962 19.7795,-2.7162 27.6376,-3.898 7.8581,-1.1819 15.1168,-2.2422 16.1305,-2.3562 1.0136,-0.114 1.7768,-0.3142 1.696,-0.445 -0.081,-0.1308 10.2024,-3.4585 22.8515,-7.3951 23.5969,-7.3436 24.5343,-7.674 31.8923,-11.242 4.0957,-1.986 4.2259,-2.0813 2.6458,-1.937 -1.5331,0.1401 -2.4007,-0.1947 -11.187,-4.3174 l -9.525,-4.4693 -10.7597,-10.7082 -10.7597,-10.7083 -0.968,0.5188 c -0.5323,0.2854 -14.6611,4.7853 -31.3972,9.9998 l -30.4292,9.4809 -29.8673,4.4437 c -16.4271,2.444 -30.5143,4.4437 -31.305,4.4437 h -1.4376 l 10.3747,10.5056 10.3746,10.5057 9.2886,4.3992 9.2886,4.3992 4.2334,0.1977 c 2.3283,0.1088 5.052,0.2279 6.0527,0.2646 1.0006,0.037 7.8269,-0.7203 15.1694,-1.6824 z m -35.5096,-2.9822 -9.3486,-4.3735 -10.2772,-10.5201 c -10.6575,-10.9095 -11.0306,-11.4194 -8.3568,-11.4194 0.8664,0 14.9153,-1.9942 31.2198,-4.4316 l 29.6445,-4.4316 29.8612,-9.3144 c 16.4237,-5.1229 30.5121,-9.5927 31.3075,-9.933 l 1.4464,-0.6185 -11.516,-17.2973 -11.516,-17.2972 -11.2302,-22.0486 c -13.0992,-25.7181 -11.1941,-22.3977 -12.4715,-21.7371 -0.5743,0.297 -14.5881,4.7667 -31.1417,9.9327 l -30.0976,9.3928 -24.7182,3.6901 c -13.5949,2.0295 -27.6946,4.1199 -31.3325,4.6454 -3.6378,0.5253 -6.6144,1.0534 -6.6146,1.1734 -10e-5,0.1199 5.0844,10.171 11.2988,22.3356 l 11.2991,22.1175 11.2936,16.9205 c 6.2956,9.4324 11.1855,17.0955 11.0493,17.3158 -0.1762,0.2852 -2.8595,0.3322 -9.6281,0.1688 -5.1611,-0.1245 -14.7019,-0.3257 -21.2018,-0.4471 -6.4999,-0.1213 -14.7549,-0.3293 -18.3444,-0.4623 l -6.5264,-0.2417 -25.5238,-5.4369 c -14.0381,-2.9903 -25.3777,-5.4856 -25.1991,-5.5451 0.2933,-0.098 10.1322,1.9187 39.0812,8.0095 5.4328,1.143 11.3859,2.2395 13.2292,2.4366 3.7681,0.4029 52.8061,1.3318 53.1315,1.0064 0.115,-0.115 -4.7868,-7.6563 -10.8927,-16.7585 l -11.1018,-16.5495 -11.5402,-22.6194 c -11.4125,-22.3693 -11.8451,-23.3503 -10.2973,-23.3503 0.4352,0 14.548,-2.0544 31.3618,-4.5654 l 30.5705,-4.5654 29.5598,-9.2114 c 30.5568,-9.5222 33.3863,-10.4695 33.14,-11.096 -0.08,-0.2044 -4.7056,-11.484 -10.2785,-25.066 l -10.1325,-24.6944 -10.0399,-29.8097 c -6.3675,-18.9059 -10.9364,-33.1003 -12.4909,-38.8056 -1.348,-4.9477 -2.5681,-9.2653 -2.7113,-9.5946 -0.2262,-0.52 -1.1655,-0.1646 -7.1396,2.7012 -6.7497,3.2378 -7.3383,3.4431 -31.2561,10.9009 l -24.3769,7.6009 -23.9537,3.6067 -23.9536,3.6066 -7.5301,-0.093 c -7.4839,-0.093 -7.5287,-0.089 -7.2974,0.6401 0.128,0.4032 1.2627,4.5049 2.5215,9.1148 1.3038,4.7745 6.6091,21.2695 12.3272,38.3275 l 10.0384,29.9458 10.4056,25.4213 c 6.497,15.8726 10.2809,25.546 10.0738,25.7531 -0.2071,0.2071 -10.6429,0.1146 -27.7826,-0.2464 l -27.4509,-0.5781 -19.9319,-4.2092 c -36.9249,-7.7978 -32.218,-6.6029 -40.49554,-10.28 -8.29701,-3.6857 -10.08242,-4.5461 -9.87164,-4.7569 0.0816,-0.082 3.86733,1.525 8.41266,3.5703 l 8.26424,3.7187 26.81111,5.6441 26.81107,5.6442 27.0887,0.5574 c 14.8987,0.3067 27.1745,0.4715 27.2796,0.3665 0.16,-0.1601 -5.6037,-14.5123 -12.5691,-31.298 -6.6404,-16.0027 -9.1259,-22.8226 -18.2566,-50.0944 -5.925,-17.6971 -10.8324,-33.0131 -12.2924,-38.3646 l -2.4302,-8.9077 -3.7044,-0.014 c -2.0375,-0.01 -9.4988,-0.1599 -16.5808,-0.3381 l -12.87643,-0.324 -21.51944,-4.5692 -21.51944,-4.5693 -11.52246,-5.1769 -11.5225,-5.1769 -6.46917,6.5801 c -5.77529,5.8743 -6.70793,6.9921 -8.6947,10.4211 l -2.22553,3.8409 7.98935,26.3862 c 4.58403,15.1395 9.09649,29.3182 10.58683,33.2653 1.42864,3.7835 6.0368,15.8485 10.24043,26.8111 7.46559,19.4695 8.39795,22.0214 7.58137,20.7503 -0.32469,-0.5053 -17.12277,-44.0513 -20.18428,-52.3239 -1.60331,-4.3325 -16.52517,-53.3859 -16.52517,-54.3241 0,-0.4548 -0.1378,-0.8798 -0.30621,-0.9445 -0.86494,-0.3321 -9.22292,-35.1911 -8.73961,-36.4506 0.0875,-0.2281 -0.0411,-0.4146 -0.28568,-0.4146 -0.24465,0 -4.66104,-3.2747 -9.81421,-7.277 l -9.36942,-7.277 -11.66538,-15.3417 -11.66537,-15.3417 -4.62054,-11.5714 c -2.54131,-6.3642 -4.74292,-11.6985 -4.8925,-11.8538 -0.14954,-0.1554 -1.69143,2.1465 -3.42639,5.1153 l -3.15443,5.3977 -5.06324,20.1084 c -4.79183,19.0305 -5.62938,22.0729 -5.65573,20.5445 -0.0135,-0.7818 9.74252,-39.9831 10.24893,-41.182 1.04457,-2.4731 6.52159,-11.2882 7.00973,-11.282 0.38597,0 1.98042,3.5844 5.4429,12.2195 l 4.89705,12.2127 11.57658,15.2157 11.57658,15.2158 6.6156,5.1084 c 3.63859,2.8097 7.86917,6.1103 9.40135,7.3346 1.53215,1.2244 2.69258,2.0754 2.5787,1.8912 -0.32325,-0.523 -10.25348,-46.8837 -11.29111,-52.7139 -1.3432,-7.5473 -6.41597,-46.1662 -7.12632,-54.2524 l -0.60558,-6.8935 -8.17619,8.4137 -8.17619,8.4138 -8.08376,13.7394 c -9.36434,15.916 -8.43431,15.2068 -11.13553,8.4914 l -2.03793,-5.0665 -2.43297,-19.8038 -2.43296,-19.8039 2.40439,-20.7712 c 2.36139,-20.3997 2.42986,-20.8474 3.82654,-25.0226 1.72445,-5.155 1.68804,-5.2618 -0.50207,-1.4718 -0.94746,1.6395 -1.79998,2.9037 -1.89445,2.8092 -0.29616,-0.2961 -4.24886,12.1192 -5.50549,17.2926 -0.65983,2.7163 -2.63576,10.9713 -4.39095,18.3444 l -3.19127,13.4056 -2.79133,24.3416 c -1.53524,13.3879 -2.72648,24.9767 -2.64721,25.7528 0.0793,0.7761 0.92891,10.1424 1.88808,20.8139 1.00445,11.1752 2.87979,28.6027 4.42255,41.0986 1.47322,11.9327 2.76794,22.4896 2.87715,23.4597 0.12769,1.1343 3.34848,9.6342 9.02305,23.8125 4.85348,12.1268 9.10879,22.8424 9.45624,23.8125 0.34745,0.9702 4.17583,10.5341 8.50748,21.2533 l 7.87573,19.4895 14.2875,18.7801 c 7.85813,10.3291 20.59256,26.7793 28.29874,36.556 l 14.0112,17.7758 19.17785,14.8743 c 17.17071,13.3176 29.73609,22.4371 52.8122,38.3294 0.48507,0.3341 6.04132,2.9105 12.34724,5.7252 6.3059,2.8148 16.1484,7.2203 21.8722,9.7901 l 10.407,4.6723 18.2347,5.3911 c 18.0655,5.3409 18.4455,5.4354 40.9222,10.175 l 22.6875,4.7839 14.1111,0.3034 c 7.7611,0.1668 15.6986,0.3275 17.6389,0.357 l 3.5278,0.054 -9.3486,-4.3734 z m -139.3964,-38.6485 c -1.0689,-0.8905 -0.7992,-0.8939 0.9311,-0.012 1.0058,0.5128 1.1814,0.7055 0.6428,0.7055 -0.4075,0 -1.1158,-0.3122 -1.5739,-0.6938 z m -45.10641,-77.7992 c 0,-0.097 0.0794,-0.1764 0.17639,-0.1764 0.097,0 0.17639,0.079 0.17639,0.1764 0,0.097 -0.0794,0.1764 -0.17639,0.1764 -0.097,0 -0.17639,-0.079 -0.17639,-0.1764 z m -17.51714,-7.7763 c -0.32819,-0.8553 0.12975,-1.0097 0.56765,-0.1914 0.27301,0.5101 0.27841,0.7357 0.0176,0.7357 -0.20694,0 -0.47025,-0.2449 -0.58515,-0.5443 z m -15.36665,-8.0251 c -7.89965,-3.533 -14.4381,-6.609 -14.52989,-6.8356 -0.0918,-0.2266 0.73589,0.029 1.83934,0.5677 1.10346,0.5388 7.48316,3.4094 14.17712,6.3791 10.11629,4.488 14.10134,6.4215 13.04018,6.327 -0.0901,-0.01 -6.62714,-2.9052 -14.52675,-6.4382 z m -29.18188,-60.802 c -3.57675,-2.7857 -6.80512,-5.2654 -7.1742,-5.5104 -0.63718,-0.4231 -0.38738,-1.1398 4.94877,-14.1992 3.09093,-7.5646 6.31931,-15.4814 7.17423,-17.593 0.85488,-2.1116 1.60669,-3.5749 1.67061,-3.2518 0.064,0.3231 -3.00647,8.2219 -6.82314,17.5528 -5.75063,14.0591 -6.85835,17.042 -6.46624,17.4123 0.65902,0.6224 11.58444,9.0383 12.65276,9.7465 0.48024,0.3183 0.79379,0.6528 0.69677,0.7433 -0.097,0.091 -3.10282,-2.1147 -6.67956,-4.9005 z m 329.35368,189.0807 c -0.1294,-0.1293 -0.3411,-0.1293 -0.4704,0 -0.1294,0.1293 -0.024,0.2352 0.2352,0.2352 0.2586,0 0.3645,-0.1059 0.2352,-0.2352 z m 5.5856,-0.8243 c 1.7105,-0.2468 11.4378,-3.0911 24.6944,-7.2206 l 21.8723,-6.8134 7.9947,-3.8303 c 4.3971,-2.1067 7.9683,-3.8575 7.936,-3.8907 -0.033,-0.033 -1.5545,0.2464 -3.3826,0.6214 -7.6623,1.5716 -7.1717,1.2596 14.0295,-8.9215 l 13.2862,-6.3802 21.7931,-14.6121 21.793,-14.6121 9.8058,-8.8856 c 10.7396,-9.7318 11.7695,-10.6357 11.029,-9.6794 -0.4026,0.5198 -0.4021,0.6173 0,0.6173 0.2645,0 -2.772,3.2925 -6.7478,7.3167 -3.9758,4.0241 -6.1968,6.3507 -4.9356,5.17 1.2611,-1.1806 6.6586,-6.114 11.9944,-10.963 5.3358,-4.849 10.7319,-10.0661 11.9915,-11.5935 2.6986,-3.2726 2.3453,-3.1454 -1.9373,0.6979 -4.7558,4.2679 -4.645,4.1837 -4.645,3.5254 0,-0.3068 2.2715,-2.9056 5.0478,-5.7751 4.1907,-4.3315 5.4054,-5.8392 7.1548,-8.8802 l 2.1072,-3.663 -5.3616,-0.9296 c -2.9488,-0.5113 -6.5098,-1.1206 -7.9132,-1.354 l -2.5518,-0.4244 -10.3912,-8.77 -10.3913,-8.7699 -8.7529,7.9313 -8.7528,7.9313 -26.6198,17.891 -26.6198,17.8911 -27.0024,12.9871 c -14.8514,7.1429 -27.1278,13.1102 -27.281,13.2607 -0.1532,0.1505 4.314,4.9425 9.927,10.649 l 10.2055,10.3754 9.8161,4.5861 c 5.3989,2.5224 9.9805,4.5689 10.1813,4.5478 0.2009,-0.021 1.0797,-0.1495 1.9528,-0.2854 1.2285,-0.1912 1.4678,-0.1557 1.0583,0.1571 -0.4364,0.3333 -0.39,0.3737 0.2646,0.2302 1.5795,-0.3461 0.6832,0.163 -5.768,3.2769 -6.3499,3.0649 -7.281,3.391 -28.8396,10.1024 -19.8453,6.1781 -24.6991,7.7614 -21.7486,7.0945 0.485,-0.1096 2.1519,-0.3826 3.7041,-0.6066 z m 55.7977,-21.0479 c -0.1294,-0.1294 -0.341,-0.1294 -0.4704,0 -0.1293,0.1293 -0.024,0.2352 0.2352,0.2352 0.2587,0 0.3645,-0.1059 0.2352,-0.2352 z m 4.6127,-0.9631 c 2.1812,-0.463 3.8796,-0.7024 3.7743,-0.5318 -0.1054,0.1705 1.8405,-0.6987 4.3243,-1.9315 2.4838,-1.2328 7.9291,-3.8749 12.1007,-5.8712 6.9866,-3.3435 45.5632,-28.1456 46.1551,-29.6746 0.065,-0.1671 0.3113,-0.3038 0.5482,-0.3038 0.2368,0 0.969,-0.5556 1.6273,-1.2347 0.6582,-0.6791 1.0479,-1.2347 0.866,-1.2347 -0.1819,0 3.081,-3.4424 7.2509,-7.6498 4.1699,-4.2073 6.1438,-6.3108 4.3865,-4.6743 -9.949,9.2648 -10.6058,9.7593 -32.6118,24.5539 l -21.343,14.3489 -10.9361,5.2779 c -6.0149,2.9028 -13.0793,6.2875 -15.6986,7.5215 -2.6194,1.234 -4.6832,2.2442 -4.5862,2.2448 0.097,0 1.9611,-0.3776 4.1424,-0.8406 z m 68.1771,-39.8572 c 0,-0.073 0.2778,-0.351 0.6173,-0.6173 0.5596,-0.4388 0.572,-0.4264 0.1333,0.1332 -0.4609,0.5876 -0.7506,0.7745 -0.7506,0.4841 z m -65.2639,39.8207 c 0,-0.097 -0.079,-0.1764 -0.1764,-0.1764 -0.097,0 -0.1764,0.079 -0.1764,0.1764 0,0.097 0.079,0.1764 0.1764,0.1764 0.097,0 0.1764,-0.079 0.1764,-0.1764 z m -51.0693,-30.6397 c 2.1854,-1.0386 14.4485,-6.9275 27.2513,-13.0865 l 23.2779,-11.1981 26.8165,-18.0155 26.8167,-18.0155 7.5847,-6.8759 c 4.1716,-3.7817 8.0317,-7.3016 8.5781,-7.8218 l 0.9934,-0.946 -11.3802,-16.3741 -11.3802,-16.3741 -11.3995,-23.0187 c -6.2697,-12.6604 -11.4722,-23.0188 -11.5611,-23.0188 -0.089,0 -3.9626,3.4578 -8.6083,7.6839 l -8.4467,7.684 -26.7439,17.9678 -26.7439,17.9679 -27.3268,13.1582 c -15.0297,7.2369 -27.3975,13.2288 -27.484,13.3154 -0.086,0.086 4.9619,10.1955 11.2188,22.4645 l 11.3761,22.3072 10.9379,16.4249 c 10.1104,15.1822 11.8125,17.6595 12.1328,17.6595 0.064,0 1.905,-0.8497 4.0904,-1.8883 z m 122.6832,-14.5893 c 0,-0.2649 -0.3167,0.015 -1.7787,1.5728 l -1.5727,1.6757 1.6757,-1.5728 c 0.9216,-0.865 1.6757,-1.619 1.6757,-1.6757 z m 13.0616,-13.773 2.637,-2.7341 -2.734,2.637 c -2.5393,2.4492 -2.895,2.8311 -2.637,2.8311 0.053,0 1.2836,-1.2303 2.734,-2.734 z m 10.9273,-10.4952 c 1.0539,-1.0671 1.8368,-1.9403 1.7398,-1.9403 -0.097,0 -1.0387,0.8732 -2.0926,1.9403 -1.0539,1.0672 -1.8368,1.9403 -1.7398,1.9403 0.097,0 1.0387,-0.8731 2.0926,-1.9403 z m 9.0478,-8.2903 c 0.2149,0 0.6087,-0.2686 0.875,-0.5969 0.4171,-0.5142 0.4108,-0.5569 -0.045,-0.3085 -0.2911,0.1586 0.059,-0.2135 0.7778,-0.8268 0.7189,-0.6133 1.2292,-1.318 1.1341,-1.5658 -0.095,-0.2478 0.1871,-0.7581 0.6272,-1.1339 0.7949,-0.6789 0.7967,-0.6787 0.277,0.022 -0.4836,0.6524 -0.4768,0.6693 0.09,0.2246 0.3374,-0.2645 0.5336,-0.6102 0.436,-0.7682 -0.098,-0.158 0.1819,-0.6638 0.6212,-1.1239 0.5516,-0.5776 0.6387,-0.6128 0.2814,-0.1137 -0.5024,0.7019 -0.4974,0.7046 0.1724,0.097 0.3795,-0.3443 0.6917,-0.8995 0.6939,-1.2338 0,-0.3343 0.1891,-0.6082 0.4155,-0.6087 0.2263,0 0.4971,-0.087 0.6017,-0.1911 0.1046,-0.1045 -0.6601,-0.1839 -1.6993,-0.1764 -1.0393,0.01 -1.8125,0.1395 -1.7184,0.2931 0.4458,0.7276 -4.3089,7.9523 -7.2457,11.0096 l -3.0499,3.175 3.182,-3.0868 c 1.75,-1.6977 3.3578,-3.0868 3.5727,-3.0868 z m 1.7119,-2.4694 c 0.3512,-0.3881 0.7179,-0.7056 0.8149,-0.7056 0.097,0 -0.1109,0.3175 -0.4621,0.7056 -0.3512,0.388 -0.7179,0.7055 -0.8149,0.7055 -0.097,0 0.1109,-0.3175 0.4621,-0.7055 z m -2.6458,4.0569 c 0.4556,-0.485 0.7491,-0.8819 0.6521,-0.8819 -0.097,0 -0.5492,0.3969 -1.0049,0.8819 -0.4557,0.4851 -0.7492,0.882 -0.6522,0.882 0.097,0 0.5493,-0.3969 1.005,-0.882 z m 7.9038,-18.9621 c 1.9218,-4.705 5.1114,-12.5366 7.0881,-17.4035 l 3.5938,-8.849 0.713,-20.0788 c 0.3922,-11.0433 0.695,-20.1016 0.6731,-20.1294 -0.022,-0.028 -5.3209,6.4809 -11.7754,14.4639 l -11.7355,14.5145 -14.2531,12.8764 c -7.8393,7.082 -14.2264,12.9896 -14.1937,13.1279 0.068,0.2872 19.9814,17.1931 20.5206,17.4214 0.6199,0.2624 13.7166,2.5394 14.8166,2.576 1.0566,0.035 1.0643,0.021 4.5525,-8.5194 z m 1.5419,6.8456 c 1.1476,-1.2802 2.1838,-2.5782 15.0861,-18.8987 12.1366,-15.3518 11.2176,-13.9458 24.2645,-37.1255 l 12.1431,-21.574 6.3629,-18.9954 c 6.0756,-18.1375 6.5667,-19.8155 10.8744,-37.1537 l 4.5114,-18.1583 -1.3168,-18.8834 c -1.3489,-19.343 -1.4404,-21.0908 -1.0861,-20.7365 0.1126,0.1125 0.8015,8.6331 1.5309,18.9346 0.7294,10.3014 1.405,18.8087 1.5013,18.905 0.4861,0.486 1.5976,-7.4388 4.0331,-28.7545 l 2.6804,-23.4597 -1.6623,-17.9917 c -0.9143,-9.8954 -1.7305,-19.0235 -1.8138,-20.2847 -0.083,-1.2612 -1.5014,-13.3541 -3.1512,-26.8732 l -2.9996,-24.5801 -17.2211,-42.9194 -17.2211,-42.9194 -12.4858,-16.4471 c -15.0385,-19.8096 -20.2803,-26.569 -33.918,-43.7374 l -10.4459,-13.1502 -8.0498,-6.26 c -4.4274,-3.443 -10.4311,-8.0777 -13.3415,-10.2993 -2.9104,-2.2216 -7.911,-6.1108 -11.1125,-8.6427 -3.2015,-2.5319 -10.2658,-7.6807 -15.6986,-11.4418 -5.4328,-3.7611 -10.4209,-7.2827 -11.0847,-7.8257 -0.6638,-0.5431 -1.3385,-0.9061 -1.4993,-0.8067 -0.1608,0.099 -0.2924,0.022 -0.2924,-0.1723 0,-2.0674 -26.0482,-15.9681 -30.8681,-16.4729 -0.7761,-0.081 -3.5542,-0.5316 -6.1736,-1.0007 -2.6193,-0.4691 -4.7873,-0.8265 -4.8176,-0.7943 -0.03,0.032 7.9072,3.6203 17.6389,7.9737 21.204,9.4855 25.7973,11.6157 25.5597,11.8533 -0.099,0.099 -10.2025,-4.3068 -22.4522,-9.7908 -15.2295,-6.8179 -22.078,-10.0477 -21.6581,-10.2141 0.4151,-0.1644 0.4521,-0.2513 0.1143,-0.268 -0.2749,-0.014 -0.4203,-0.1043 -0.323,-0.2015 0.097,-0.097 2.7033,0.2806 5.7914,0.8395 3.0881,0.559 5.6421,0.9948 5.6755,0.9685 0.034,-0.026 -5.5227,-2.5313 -12.3472,-5.5665 l -12.4081,-5.5186 -18.168,-5.3218 c -17.8278,-5.2221 -18.5926,-5.411 -40.8386,-10.0897 l -22.6706,-4.768 -5.728,0.049 c -4.9433,0.043 -5.3656,0.087 -3.0823,0.3239 1.4553,0.151 11.9328,2.2452 23.2834,4.6538 l 20.6375,4.3793 11.3697,5.0844 c 7.8083,3.4917 11.1787,5.1601 10.7597,5.3262 -0.4157,0.1648 -0.4508,0.2497 -0.1102,0.2666 0.2749,0.014 0.4124,0.1121 0.3057,0.2189 -0.1068,0.1067 -10.459,-1.8784 -23.0049,-4.4114 -30.5722,-6.1725 -58.3419,-8.0557 -86.4561,-5.8631 -3.8806,0.3027 -7.3086,0.5514 -7.6179,0.5528 -0.3093,0 -2.1915,1.8424 -4.1827,4.091 -4.3238,4.8829 -3.878,3.8857 -9.9032,22.1504 l -4.5577,13.8164 -1.2564,9.5175 c -0.691,5.2347 -1.4604,11.0732 -1.7097,12.9745 l -0.4534,3.4569 1.7877,-0.2022 c 24.5904,-2.7812 39.5504,-3.0102 71.8141,-1.0992 40.326,2.3884 37.5393,2.0899 56.7226,6.077 8.9813,1.8667 16.4293,3.2943 16.5511,3.1725 0.1219,-0.1219 0.5134,-2.4044 0.8702,-5.0723 2.3576,-17.6309 6.5586,-29.6108 13.0823,-37.3063 2.6317,-3.1044 4.8054,-5.7714 4.8305,-5.9265 0.216,-1.3366 -11.4861,-9.1618 -18.1296,-12.1233 -3.8238,-1.7046 -6.7807,-3.1564 -6.5709,-3.2263 0.2098,-0.07 0.2775,-0.2956 0.1503,-0.5013 -0.1496,-0.2421 0.067,-0.3031 0.6152,-0.1727 0.4655,0.1108 5.3707,1.0939 10.9005,2.1847 7.593,1.4978 11.0905,2.3643 14.2875,3.5397 2.3284,0.856 5.138,1.8888 6.2436,2.295 2.2186,0.8152 2.5047,1.7599 0.533,1.7599 -1.5311,0 -6.8312,5.5665 -6.0371,6.3406 0.1754,0.1709 4.4069,3.4751 9.4034,7.3426 l 9.0845,7.0318 11.6376,15.3071 11.6377,15.307 4.8229,11.9945 c 2.6526,6.5969 4.8313,12.2606 4.8416,12.5859 0.01,0.3253 0.139,0.5171 0.2859,0.4263 0.2956,-0.1827 15.8173,5.2284 17.2205,6.0033 0.4851,0.2679 11.8357,6.4714 25.2236,13.7856 26.3242,14.3816 25.4895,13.8811 25.4855,15.2796 v 0.9554 l -0.5185,-1.0878 c -0.4672,-0.9801 -43.8842,-25.2584 -50.3201,-28.1384 -3.1236,-1.3978 -16.8334,-6.1163 -16.6842,-5.7423 0.087,0.218 0.9501,2.3806 1.9181,4.806 2.1844,5.4726 1.7667,3.1094 4.4908,25.4074 l 2.3066,18.881 -2.457,20.9829 -2.457,20.9829 -1.9969,5.9301 c -1.0983,3.2616 -1.9254,6.0015 -1.8382,6.0888 0.087,0.087 3.8764,1.4842 8.4202,3.1044 l 8.2615,2.9458 25.0992,13.7196 25.0993,13.7196 19.2662,15.8028 c 10.5965,8.6916 19.4108,15.7136 19.5874,15.6044 1.1084,-0.685 6.912,-51.5562 6.3802,-55.9253 -0.2008,-1.6492 -1.4746,-12.2061 -2.8306,-23.4597 -1.3562,-11.2536 -2.6127,-20.8977 -2.7925,-21.4312 -0.1892,-0.5617 -0.194,-0.9702 -0.011,-0.9702 0.4979,0 6.463,46.6767 6.3696,49.8415 -0.078,2.6488 -5.7183,50.5523 -6.0864,51.6939 -0.3021,0.9365 -0.2743,1.2535 0.1391,1.5875 0.6855,0.554 28.5902,36.8728 29.1868,37.9876 1.2246,2.2882 15.8734,39.4205 15.8602,40.203 -0.01,0.4929 -3.6992,-8.2785 -8.2021,-19.4921 l -8.1869,-20.3883 -14.2343,-18.4913 c -13.468,-17.4957 -15.0876,-19.5205 -15.3478,-19.1872 -0.059,0.076 -3.8009,11.0846 -8.3142,24.4632 l -8.2061,24.3246 -14.2864,25.3709 -14.2864,25.3708 -6.7237,8.3364 c -3.698,4.5851 -6.8884,8.547 -7.0897,8.8043 -0.2537,0.3243 -0.251,0.5409 0.01,0.7056 0.2061,0.1307 7.2603,8.6675 15.6759,18.9707 l 15.3011,18.733 7.2319,20.1569 c 3.9776,11.0862 7.3216,20.1585 7.4311,20.1607 0.6554,0.013 13.9524,-17.2231 15.7909,-20.4685 6.3759,-11.2553 25.4739,-45.2027 26.0082,-46.2306 0.3449,-0.6637 4.3243,-12.0811 8.843,-25.372 4.5186,-13.2909 8.2232,-23.7107 8.2324,-23.1552 0.01,0.5556 -3.5886,11.6681 -7.995,24.6945 l -8.0116,23.6843 -14.4158,25.5764 -14.4158,25.5764 -7.0428,8.6897 -7.0428,8.6898 -0.7429,20.7501 -0.743,20.75 -7.0049,17.109 c -3.8527,9.41 -7.0048,17.1586 -7.0048,17.2192 0,0.7045 3.1872,-0.5291 4.1541,-1.6077 z m 71.1513,-194.0821 c 0.086,-0.6791 1.0768,-9.0134 2.2013,-18.5208 1.1246,-9.5074 2.0912,-16.9613 2.148,-16.5643 0.1497,1.0459 -3.7308,34.0042 -4.1517,35.2615 l -0.3543,1.0583 z m 4.5004,-37.0416 c -0.01,-0.6791 0.1075,-2.0285 0.2585,-2.9987 0.2223,-1.4269 0.2779,-1.528 0.291,-0.5291 0.01,0.6791 -0.1074,2.0285 -0.2585,2.9986 -0.2222,1.4269 -0.2778,1.528 -0.291,0.5292 z m 0.7237,-6.35 c 0,-0.8732 0.069,-1.2304 0.1528,-0.7938 0.084,0.4366 0.084,1.1509 0,1.5875 -0.084,0.4366 -0.1528,0.079 -0.1528,-0.7937 z m 0.3456,-2.9987 c 0,-0.7761 0.076,-1.052 0.1606,-0.6132 0.084,0.4388 0.081,1.0738 -0.01,1.4111 -0.088,0.3373 -0.1574,-0.022 -0.1535,-0.7979 z m -84.0501,-117.8277 c 0,-0.097 0.079,-0.1764 0.1764,-0.1764 0.097,0 0.1764,0.079 0.1764,0.1764 0,0.097 -0.079,0.1764 -0.1764,0.1764 -0.097,0 -0.1764,-0.079 -0.1764,-0.1764 z m -5.5455,-45.4116 c -0.1949,-0.2473 -0.4555,-0.9258 -0.579,-1.5079 -0.2088,-0.9841 -0.1734,-0.9633 0.506,0.2979 0.7196,1.3358 0.765,2.0876 0.073,1.21 z m -69.5961,-97.1107 c 0,-0.097 0.079,-0.1763 0.1764,-0.1763 0.097,0 0.1763,0.079 0.1763,0.1763 0,0.097 -0.079,0.1764 -0.1763,0.1764 -0.097,0 -0.1764,-0.079 -0.1764,-0.1764 z m 54.8411,468.5771 14.4458,-13.1409 11.7143,-14.4639 c 6.4429,-7.9552 11.8837,-14.4256 12.0907,-14.3787 0.2557,0.058 0.2695,-0.1683 0.043,-0.7055 -0.1833,-0.435 -3.5271,-9.6808 -7.4305,-20.5464 -3.9035,-10.8655 -7.3499,-20.1524 -7.6586,-20.6375 -2.3961,-3.7646 -30.5525,-37.4112 -30.9529,-36.9885 -0.248,0.2618 -5.5667,6.826 -11.8194,14.5871 l -11.3685,14.1111 -14.5101,13.1972 c -7.9807,7.2585 -14.5565,13.3108 -14.6131,13.4496 -0.057,0.1388 5.0731,10.6307 11.3993,23.3153 l 11.5022,23.0629 11.1769,16.1396 c 6.1473,8.8768 11.2575,16.1396 11.356,16.1396 0.098,0 6.6797,-5.9134 14.6249,-13.141 z m -154.8536,-3.2587 22.5777,-10.8591 26.8112,-18.0102 26.8111,-18.0101 8.5759,-7.7834 c 6.6889,-6.0707 8.5437,-7.9386 8.4295,-8.4889 -0.081,-0.388 -4.7153,-12.6118 -10.2996,-27.1639 l -10.1532,-26.4583 -8.1772,-26.8111 -8.1771,-26.8111 -5.9742,-2.2 c -5.2744,-1.9422 -7.3095,-2.4678 -17.3762,-4.4878 l -11.4021,-2.2879 -11.7474,10.6615 -11.7474,10.6614 -21.4769,14.4372 -21.4769,14.4372 -16.4335,7.9121 -16.4335,7.9122 2.7362,9.9298 c 6.2136,22.5487 21.1133,65.2188 32.3699,92.7013 5.454,13.3157 10.0732,24.6227 10.2647,25.1266 l 0.3484,0.9162 4.6864,-2.2323 c 2.5775,-1.2278 14.8464,-7.1189 27.2642,-13.0914 z m 94.368,-62.4461 c 0,-0.097 -0.079,-0.1764 -0.1764,-0.1764 -0.097,0 -0.1764,0.079 -0.1764,0.1764 0,0.097 0.079,0.1764 0.1764,0.1764 0.097,0 0.1764,-0.079 0.1764,-0.1764 z m 14.4718,-13.9348 14.1731,-12.8763 11.5413,-14.2875 c 6.3478,-7.8582 11.6482,-14.4675 11.7787,-14.6875 0.1476,-0.2488 -7.8977,-6.2248 -21.2848,-15.8102 l -21.5221,-15.4102 -21.2477,-9.5389 c -11.6863,-5.2464 -22.0712,-9.9059 -23.0776,-10.3543 -1.021,-0.455 -1.7643,-0.6334 -1.6817,-0.4037 0.082,0.2264 3.6428,11.9211 7.914,25.9881 l 7.7658,25.5764 10.4964,27.4278 c 5.7731,15.0854 10.6033,27.3885 10.734,27.3403 0.1306,-0.048 6.6154,-5.8819 14.4106,-12.964 z m -420.13065,-22.0486 6.30474,-6.35 -7.05573,-3.1285 c -5.41443,-2.4008 -7.64956,-3.5938 -9.60836,-5.1283 -7.61792,-5.968 -8.65505,-6.7139 -8.51493,-6.1232 0.0811,0.3419 1.17179,5.3842 2.42373,11.205 2.36967,11.0181 3.48159,15.6085 4.98831,20.5936 l 0.89302,2.9546 2.13222,-3.8366 c 1.966,-3.5374 2.62379,-4.3317 8.437,-10.1866 z m 106.85615,13.7584 c 0,-0.097 -0.079,-0.1764 -0.1764,-0.1764 -0.097,0 -0.1764,0.079 -0.1764,0.1764 0,0.097 0.079,0.1764 0.1764,0.1764 0.097,0 0.1764,-0.079 0.1764,-0.1764 z m -0.8719,-1.1466 c -0.1336,-0.5335 -2.9084,-10.7332 -6.1662,-22.6659 -4.381,-16.0465 -6.7712,-25.5999 -9.1793,-36.6889 -1.7908,-8.2462 -3.2966,-15.0363 -3.3463,-15.0892 -0.9936,-1.0584 -41.64326,20.2995 -49.4044,25.9579 -3.5107,2.5595 -30.34965,28.9535 -29.89432,29.3987 0.14355,0.1403 5.26161,2.4928 11.37349,5.2278 l 11.1125,4.9726 21.72042,4.5847 21.72045,4.5846 12.49896,0.2881 c 6.8745,0.1584 14.1435,0.3132 16.1533,0.3439 l 3.6542,0.056 z m 39.5796,-2.5932 23.9103,-3.5633 24.3417,-7.5729 c 25.8356,-8.0377 39.0181,-13.1521 38.4571,-14.9202 -2.8461,-8.9684 -12.8214,-47.3777 -15.3958,-59.2802 -1.7415,-8.0522 -3.2375,-14.8846 -3.3244,-15.1832 -0.1407,-0.4834 -1.6365,-0.4357 -13.6517,0.4354 l -13.4936,0.9784 -19.4027,3.3812 -19.4028,3.3812 -18.3382,5.3184 c -16.6038,4.8154 -39.0913,12.963 -40.9738,14.8455 -0.744,0.744 15.2067,64.811 18.7479,75.3021 0.1126,0.3336 1.9101,0.441 7.3823,0.441 h 7.2333 z m -138.54385,-16.3686 c 0,-0.097 -0.0794,-0.1764 -0.17639,-0.1764 -0.097,0 -0.17639,0.079 -0.17639,0.1764 0,0.097 0.0794,0.1764 0.17639,0.1764 0.097,0 0.17639,-0.079 0.17639,-0.1764 z m 29.60694,-29.659 c 4.92185,-3.6662 34.93787,-20.3291 41.83055,-23.2215 2.71639,-1.1399 5.7489,-2.4287 6.73887,-2.864 l 1.79999,-0.7914 -3.6555,-16.7112 c -4.27746,-19.5545 -4.05775,-18.3039 -9.9707,-56.7515 -2.95624,-19.2223 -4.834,-32.5662 -5.28701,-37.5708 -0.38636,-4.2686 -1.12772,-12.603 -1.64747,-18.5208 -0.51975,-5.9179 -0.98993,-10.8118 -1.04486,-10.8754 -0.11387,-0.1319 -24.62039,9.9835 -31.03054,12.8083 -3.37633,1.4879 -8.51838,4.6109 -25.39999,15.4265 -29.91468,19.1657 -27.36879,17.2735 -38.08222,28.3036 l -9.07489,9.343 0.57552,6.6282 c 2.16799,24.969 6.73978,53.9632 13.36629,84.7685 l 5.04638,23.4598 5.91086,4.6318 c 5.81822,4.5592 6.02245,4.6819 13.02614,7.8297 l 7.11525,3.1979 13.05278,-13.1756 c 9.51198,-9.6015 14.05043,-13.9187 16.73055,-15.9151 z m 196.52361,20.8396 c 0,-0.097 -0.079,-0.1764 -0.1764,-0.1764 -0.097,0 -0.1764,0.079 -0.1764,0.1764 0,0.097 0.079,0.1764 0.1764,0.1764 0.097,0 0.1764,-0.079 0.1764,-0.1764 z m 20.2903,-10.2972 12.3528,-5.96 21.8666,-14.7172 21.8667,-14.7172 11.2052,-10.2192 c 9.5824,-8.7393 11.0896,-10.2462 10.4069,-10.4048 -10.0572,-2.3369 -47.0869,-9.3824 -51.7746,-9.8511 -13.7205,-1.3715 -63.3402,-1.1927 -64.7664,0.2335 -0.6425,0.6425 6.5619,31.1376 12.4116,52.5359 3.3775,12.3552 6.1409,22.5438 6.1409,22.6416 0,0.2067 3.3993,-1.3918 20.2903,-9.5415 z m 212.1842,-4.2836 7.0834,-8.76 14.2658,-25.3187 14.2658,-25.3187 8.2691,-24.3915 c 4.548,-13.4153 8.1997,-24.5038 8.1148,-24.6411 -0.085,-0.1373 -8.8074,-7.3462 -19.3834,-16.0198 l -19.229,-15.7702 -25.1229,-13.7235 -25.1228,-13.7236 -8.2903,-2.9438 c -5.713,-2.0285 -8.3619,-2.8177 -8.5207,-2.5385 -0.1267,0.2229 -2.3851,6.7752 -5.0186,14.5608 l -4.7883,14.1556 -8.5157,15.1249 c -4.6837,8.3188 -9.711,17.2681 -11.1718,19.8875 -3.0979,5.5547 -11.6642,16.8703 -22.1726,29.2888 -0.7298,0.8625 6.9156,34.9286 8.2889,36.9338 0.1193,0.1741 10.6347,4.9803 23.3675,10.6806 l 23.1507,10.3641 21.4757,15.4223 c 11.8117,8.4823 21.5872,15.4378 21.7234,15.4567 0.1363,0.019 3.4352,-3.9078 7.331,-8.7257 z m -377.8189,-32.6914 c 0,-0.097 -0.079,-0.1764 -0.1764,-0.1764 -0.097,0 -0.1764,0.079 -0.1764,0.1764 0,0.097 0.079,0.1764 0.1764,0.1764 0.097,0 0.1764,-0.079 0.1764,-0.1764 z m 14.6402,-6.6871 c 7.3135,-3.0593 9.9219,-3.9178 26.441,-8.7025 l 18.3272,-5.3084 19.0673,-3.3445 19.0673,-3.3445 13.9069,-1.0365 c 7.6487,-0.5701 13.9554,-1.0851 14.0147,-1.1445 0.059,-0.059 -1.4834,-7.4008 -3.4285,-16.3144 -4.2204,-19.3407 -4.3883,-20.2957 -10.0116,-56.9524 -4.9585,-32.3237 -4.6378,-29.8022 -6.5496,-51.48 -0.7773,-8.8143 -1.4569,-16.0695 -1.5102,-16.1228 -0.053,-0.053 -5.3299,0.4414 -11.7259,1.0992 -42.3455,4.3548 -67.5714,10.2053 -104.30399,24.1905 -5.0727,1.9314 -9.27661,3.5651 -9.34201,3.6305 -0.12213,0.1221 2.42386,29.5646 3.0637,35.4292 0.36078,3.307 7.47455,50.0703 9.69853,63.7548 0.94297,5.8022 5.83755,29.3935 8.31967,40.0997 l 0.3818,1.6468 3.2349,-1.353 c 1.7792,-0.7442 6.8862,-2.8804 11.3488,-4.7472 z m 265.8181,-3.1907 c 0,-0.097 -0.079,-0.1764 -0.1764,-0.1764 -0.097,0 -0.1764,0.079 -0.1764,0.1764 0,0.097 0.079,0.1764 0.1764,0.1764 0.097,0 0.1764,-0.079 0.1764,-0.1764 z m -2.4496,-6.9486 c -0.9462,-3.4144 -2.7689,-11.1058 -4.0505,-17.0922 -1.2816,-5.9863 -2.4469,-11.1557 -2.5894,-11.4875 -0.2019,-0.4701 -1.5329,0.9713 -6.0264,6.5264 -5.0028,6.1846 -6.6715,7.9472 -12.5888,13.2969 -3.7518,3.392 -6.7835,6.2052 -6.7371,6.2516 0.046,0.047 5.1558,1.1246 11.3541,2.396 9.6667,1.9827 12.0474,2.6027 16.7377,4.3587 3.0074,1.1261 5.5024,2.0273 5.5444,2.0027 0.042,-0.025 -0.6978,-2.8382 -1.644,-6.2526 z m -32.8282,-2.2236 c 0,-0.097 -0.079,-0.1764 -0.1764,-0.1764 -0.097,0 -0.1764,0.079 -0.1764,0.1764 0,0.097 0.079,0.1764 0.1764,0.1764 0.097,0 0.1764,-0.079 0.1764,-0.1764 z m 6.8439,-7.1438 c 8.455,-7.6935 19.1633,-20.1933 18.7409,-21.8762 -0.9746,-3.8828 -10.2652,-47.8197 -11.0954,-52.4717 -1.4384,-8.0599 -6.1794,-43.9507 -7.0805,-53.6012 -0.8662,-9.2766 1.8979,-7.4272 -17.0024,-11.3756 -19.1775,-4.0063 -17.0221,-3.7739 -56.9051,-6.1345 -34.2103,-2.0249 -31.0688,-2.0174 -55.869,-0.1319 -8.8028,0.6692 -16.3831,1.2168 -16.8451,1.2168 -0.7356,0 -0.84,0.1645 -0.8398,1.3229 3e-4,1.2937 2.102,25.5577 2.8494,32.8966 0.3356,3.2957 8.4313,56.7711 10.2274,67.5569 0.6756,4.0569 8.0504,38.6611 8.2991,38.9411 0.066,0.075 4.0546,-0.1349 8.8631,-0.4655 29.8775,-2.0543 55.6399,-0.2353 86.7066,6.1221 12.2237,2.5013 22.3277,4.563 22.4533,4.5814 0.1256,0.018 3.4995,-2.9432 7.4975,-6.5812 z m -403.55837,-18.7854 7.99694,-13.5819 5.89023,-5.9973 c 3.23959,-3.2984 6.96926,-7.1213 8.28812,-8.4953 l 2.3979,-2.4981 -1.08588,-11.7894 c -2.8606,-31.0576 -2.43156,-75.9204 0.86208,-90.1419 0.0944,-0.4077 -3.43697,2.926 -7.84757,7.4084 l -8.01928,8.1497 -5.70004,9.7014 c -11.03563,18.7824 -10.41439,17.7913 -10.76198,17.1701 -0.26977,-0.482 3.65347,-12.7328 9.05739,-28.2826 0.13484,-0.3881 -0.79353,1.12 -2.06304,3.3513 -2.0126,3.5373 -12.42448,32.1028 -11.70122,32.1028 0.0691,0 0.95406,-1.4477 1.9666,-3.2171 2.82201,-4.9314 3.0075,-3.5855 0.53026,3.8477 l -1.96494,5.8958 -2.39257,20.5908 -2.39258,20.5908 2.39716,19.6259 c 2.04097,16.7096 2.532,19.9666 3.30444,21.9189 1.73454,4.3839 3.04521,7.4442 3.14286,7.3384 0.054,-0.059 3.69683,-6.2183 8.09512,-13.6884 z m 433.04137,-15.101 8.9061,-11.044 11.6039,-20.594 11.604,-20.5941 4.9099,-14.507 c 4.7976,-14.1753 4.8923,-14.5135 4.1441,-14.7908 -0.4211,-0.1561 -9.5764,-3.4221 -20.3449,-7.2577 l -19.5792,-6.974 -14.993,-3.1298 c -8.2462,-1.7213 -14.9989,-3.1297 -15.006,-3.1298 -2.5504,-0.011 10.7002,80.1128 18.7219,113.2085 0.2574,1.0621 -0.7572,2.1934 10.0332,-11.1873 z m -407.80188,-15.0615 c 0,-0.097 -0.0794,-0.1764 -0.17639,-0.1764 -0.097,0 -0.17639,0.079 -0.17639,0.1764 0,0.097 0.0794,0.1764 0.17639,0.1764 0.097,0 0.17639,-0.079 0.17639,-0.1764 z m 557.03608,-0.7056 c 0,-0.097 -0.079,-0.1763 -0.1764,-0.1763 -0.097,0 -0.1764,0.079 -0.1764,0.1763 0,0.097 0.079,0.1764 0.1764,0.1764 0.097,0 0.1764,-0.079 0.1764,-0.1764 z m -540.70445,-16.9503 c 3.0468,-3.4513 49.43648,-33.145 56.86975,-36.402 10.91985,-4.7846 30.61416,-12.774 30.96073,-12.5598 0.21943,0.1356 0.26356,0.057 0.10876,-0.1932 -0.2884,-0.4666 -1.23014,-12.2335 -2.19139,-27.3808 -0.78927,-12.4371 -0.90653,-44.454 -0.19575,-53.4458 0.60113,-7.605 1.78632,-20.3204 2.03263,-21.8073 0.18024,-1.088 0.14372,-1.1431 -0.52218,-0.7867 -0.39377,0.2107 -6.79263,2.9022 -14.21966,5.9809 -20.64787,8.5593 -18.4326,7.3812 -40.84397,21.7218 -30.27948,19.3752 -28.26597,17.884 -38.81709,28.749 -4.90379,5.0497 -9.12978,9.1812 -9.39112,9.1812 -1.11122,0 0.3605,-9.1463 3.54785,-22.0486 1.43796,-5.8209 2.56738,-10.6319 2.5098,-10.6913 -0.0575,-0.059 -1.61008,1.8491 -3.45009,4.241 -1.83999,2.3919 -3.60208,4.5619 -3.91573,4.8222 -0.31366,0.2603 -0.48885,0.6051 -0.38929,0.7661 0.0995,0.1611 -4.68429,8.9141 -10.63075,19.4511 l -10.81168,19.1581 -4.48557,13.0528 c -2.46705,7.179 -4.60873,13.3703 -4.75926,13.7583 -0.15053,0.3881 0.67621,-0.9613 1.83723,-2.9986 1.16103,-2.0373 4.58887,-7.8874 7.61746,-13.0002 l 5.50651,-9.296 8.16342,-8.431 c 4.48984,-4.6371 8.3826,-8.4311 8.65057,-8.4311 0.64844,0 0.64502,0.056 -0.55679,9.1824 -2.52924,19.2053 -2.52882,53.4398 0,81.6438 0.57362,6.3951 1.04295,11.8076 1.04295,12.0277 0,0.3755 13.58805,-13.1562 16.33164,-16.264 z m -55.13719,-32.7913 c 0,-0.097 -0.0794,-0.1764 -0.17639,-0.1764 -0.097,0 -0.17639,0.079 -0.17639,0.1764 0,0.097 0.0794,0.1764 0.17639,0.1764 0.097,0 0.17639,-0.079 0.17639,-0.1764 z m 0.35278,-0.7056 c 0,-0.097 -0.0794,-0.1764 -0.17639,-0.1764 -0.097,0 -0.17639,0.079 -0.17639,0.1764 0,0.097 0.0794,0.1764 0.17639,0.1764 0.097,0 0.17639,-0.079 0.17639,-0.1764 z m 0.35278,-1.0583 c 0,-0.097 -0.0794,-0.1764 -0.17639,-0.1764 -0.097,0 -0.17639,0.079 -0.17639,0.1764 0,0.097 0.0794,0.1764 0.17639,0.1764 0.097,0 0.17639,-0.079 0.17639,-0.1764 z m 3.175,-3.5278 c 0,-0.097 -0.0794,-0.1764 -0.17639,-0.1764 -0.097,0 -0.17639,0.079 -0.17639,0.1764 0,0.097 0.0794,0.1764 0.17639,0.1764 0.097,0 0.17639,-0.079 0.17639,-0.1764 z m 0.35278,-0.7055 c 0,-0.097 -0.0794,-0.1764 -0.17639,-0.1764 -0.097,0 -0.17639,0.079 -0.17639,0.1764 0,0.097 0.0794,0.1763 0.17639,0.1763 0.097,0 0.17639,-0.079 0.17639,-0.1763 z m 0.35277,-0.7056 c 0,-0.097 -0.0794,-0.1764 -0.17639,-0.1764 -0.097,0 -0.17638,0.079 -0.17638,0.1764 0,0.097 0.0794,0.1764 0.17638,0.1764 0.097,0 0.17639,-0.079 0.17639,-0.1764 z m 0.2352,-1.1171 c -0.12936,-0.1294 -0.2352,-0.024 -0.2352,0.2352 0,0.2587 0.10584,0.3645 0.2352,0.2351 0.12933,-0.1293 0.12933,-0.341 0,-0.4703 z m 1.17591,-2.0579 c 0,-0.097 -0.0794,-0.1764 -0.17638,-0.1764 -0.097,0 -0.17639,0.079 -0.17639,0.1764 0,0.097 0.0794,0.1764 0.17639,0.1764 0.097,0 0.17638,-0.079 0.17638,-0.1764 z m 0.35278,-0.7056 c 0,-0.097 -0.0794,-0.1763 -0.17639,-0.1763 -0.097,0 -0.17639,0.079 -0.17639,0.1763 0,0.097 0.0794,0.1764 0.17639,0.1764 0.097,0 0.17639,-0.079 0.17639,-0.1764 z m 484.50504,-12.4069 2.0664,-6.2333 2.3865,-20.4896 2.3864,-20.4896 -2.3979,-19.5792 -2.3979,-19.5791 -2.108,-5.2785 -2.1081,-5.2784 -20.45,-7.2903 -20.4499,-7.2902 -14.8926,-3.0783 c -8.191,-1.6931 -14.9418,-3.0222 -15.0019,-2.9536 -3.2308,3.691 -3.918,58.9524 -1.1269,90.6123 l 1.1041,12.5236 15.3459,3.2217 15.3458,3.2216 19.7555,7.0803 c 10.8656,3.8942 19.9177,7.0879 20.1159,7.0971 0.1982,0.01 1.2902,-2.7882 2.4267,-6.2165 z m -336.21099,1.8631 c 35.51269,-13.4185 61.44259,-19.3361 103.06009,-23.52 6.0149,-0.6046 10.996,-1.1586 11.0692,-1.2309 0.073,-0.072 -0.2048,-4.7019 -0.6178,-10.2879 -2.7332,-36.969 -2.7342,-57.8258 0,-85.2352 0.8811,-8.8457 2.5975,-7.8766 -11.3597,-6.4138 -36.8511,3.8624 -58.5664,8.3874 -87.2822,18.1879 -7.92499,2.7048 -25.37743,9.1837 -25.74033,9.5557 -0.21037,0.2157 -1.54676,14.1548 -2.19368,22.8811 -1.25847,16.9755 -0.78504,42.3559 1.30626,70.0264 0.38129,5.0447 0.69445,9.3706 0.69593,9.6132 0.004,0.632 -0.51855,0.8008 11.06618,-3.5765 z m 262.33929,-16.7372 c 0,-0.1614 -0.4702,-5.5192 -1.0448,-11.9062 -2.5628,-28.4855 -2.5566,-63.0558 0.015,-82.7424 0.5856,-4.4834 0.9801,-8.2364 0.8766,-8.3399 -0.1752,-0.1751 -13.6308,-3.0451 -27.5398,-5.8741 -7.2709,-1.4788 -10.7655,-1.767 -47.8013,-3.9424 -20.8579,-1.2251 -28.9121,-1.5752 -32.632,-1.4183 -5.5961,0.2361 -38.7338,2.6932 -38.94,2.8873 -0.1892,0.1783 -1.312,11.2572 -2.0533,20.2601 -0.8851,10.7515 -0.8824,42.978 0,56.6455 0.8693,13.3891 1.8705,26.2389 2.0592,26.4276 0.088,0.088 7.3744,-0.39 16.1929,-1.0614 26.5083,-2.0181 22.2653,-2.0091 55.0155,-0.1171 42.9717,2.4826 40.3168,2.2069 58.9139,6.117 16.3635,3.4404 16.9333,3.5435 16.9333,3.0643 z m -401.6375,-1.1176 c 0.1199,-0.194 0.13864,-0.3527 0.0416,-0.3527 -0.097,0 -0.27449,0.1587 -0.3944,0.3527 -0.11991,0.1941 -0.13864,0.3528 -0.0416,0.3528 0.097,0 0.2745,-0.1587 0.39441,-0.3528 z m 0.52916,-0.8819 c 0,-0.097 -0.0794,-0.1764 -0.17639,-0.1764 -0.097,0 -0.17639,0.079 -0.17639,0.1764 0,0.097 0.0794,0.1764 0.17639,0.1764 0.097,0 0.17639,-0.079 0.17639,-0.1764 z m 0.35278,-0.7056 c 0,-0.097 -0.0794,-0.1764 -0.17639,-0.1764 -0.097,0 -0.17639,0.079 -0.17639,0.1764 0,0.097 0.0794,0.1764 0.17639,0.1764 0.097,0 0.17639,-0.079 0.17639,-0.1764 z m 0.35278,-0.7055 c 0,-0.097 -0.0794,-0.1764 -0.17639,-0.1764 -0.097,0 -0.17639,0.079 -0.17639,0.1764 0,0.097 0.0794,0.1764 0.17639,0.1764 0.097,0 0.17639,-0.079 0.17639,-0.1764 z m 0.52916,-0.882 c 0.11991,-0.194 0.13865,-0.3527 0.0416,-0.3527 -0.097,0 -0.27449,0.1587 -0.3944,0.3527 -0.11991,0.1941 -0.13865,0.3528 -0.0416,0.3528 0.097,0 0.27449,-0.1587 0.3944,-0.3528 z m 0.52917,-0.8819 c 0,-0.097 -0.0794,-0.1764 -0.17639,-0.1764 -0.097,0 -0.17639,0.079 -0.17639,0.1764 0,0.097 0.0794,0.1764 0.17639,0.1764 0.097,0 0.17639,-0.079 0.17639,-0.1764 z m 0.35278,-0.7056 c 0,-0.097 -0.0794,-0.1764 -0.17639,-0.1764 -0.097,0 -0.17639,0.079 -0.17639,0.1764 0,0.097 0.0794,0.1764 0.17639,0.1764 0.097,0 0.17639,-0.079 0.17639,-0.1764 z m 0.52917,-0.8819 c 0.1199,-0.194 0.13864,-0.3528 0.0416,-0.3528 -0.097,0 -0.27449,0.1588 -0.3944,0.3528 -0.11991,0.194 -0.13864,0.3528 -0.0416,0.3528 0.097,0 0.2745,-0.1588 0.39441,-0.3528 z m 0.52916,-0.882 c 0,-0.097 -0.0794,-0.1763 -0.17639,-0.1763 -0.097,0 -0.17639,0.079 -0.17639,0.1763 0,0.097 0.0794,0.1764 0.17639,0.1764 0.097,0 0.17639,-0.079 0.17639,-0.1764 z m 0.35278,-0.7055 c 0,-0.097 -0.0794,-0.1764 -0.17639,-0.1764 -0.097,0 -0.17639,0.079 -0.17639,0.1764 0,0.097 0.0794,0.1764 0.17639,0.1764 0.097,0 0.17639,-0.079 0.17639,-0.1764 z m 0.35278,-0.7056 c 0,-0.097 -0.0794,-0.1764 -0.17639,-0.1764 -0.097,0 -0.17639,0.079 -0.17639,0.1764 0,0.097 0.0794,0.1764 0.17639,0.1764 0.097,0 0.17639,-0.079 0.17639,-0.1764 z m 0.52916,-0.8819 c 0.11991,-0.194 0.13865,-0.3528 0.0416,-0.3528 -0.097,0 -0.27449,0.1588 -0.3944,0.3528 -0.11991,0.194 -0.13864,0.3528 -0.0416,0.3528 0.097,0 0.27449,-0.1588 0.3944,-0.3528 z m 0.52917,-0.882 c 0,-0.097 -0.0794,-0.1763 -0.17639,-0.1763 -0.097,0 -0.17639,0.079 -0.17639,0.1763 0,0.097 0.0794,0.1764 0.17639,0.1764 0.097,0 0.17639,-0.079 0.17639,-0.1764 z m 0.35278,-0.7055 c 0,-0.097 -0.0794,-0.1764 -0.17639,-0.1764 -0.097,0 -0.17639,0.079 -0.17639,0.1764 0,0.097 0.0794,0.1764 0.17639,0.1764 0.097,0 0.17639,-0.079 0.17639,-0.1764 z m 0.52916,-0.882 c 0.11991,-0.194 0.13865,-0.3527 0.0416,-0.3527 -0.097,0 -0.27449,0.1587 -0.3944,0.3527 -0.11991,0.1941 -0.13864,0.3528 -0.0416,0.3528 0.097,0 0.2745,-0.1587 0.3944,-0.3528 z m 0.52917,-0.8819 c 0,-0.097 -0.0794,-0.1764 -0.17639,-0.1764 -0.097,0 -0.17639,0.079 -0.17639,0.1764 0,0.097 0.0794,0.1764 0.17639,0.1764 0.097,0 0.17639,-0.079 0.17639,-0.1764 z m 0.35278,-0.7056 c 0,-0.097 -0.0794,-0.1763 -0.17639,-0.1763 -0.097,0 -0.17639,0.079 -0.17639,0.1763 0,0.097 0.0794,0.1764 0.17639,0.1764 0.097,0 0.17639,-0.079 0.17639,-0.1764 z m 0.35278,-0.7055 c 0,-0.097 -0.0794,-0.1764 -0.17639,-0.1764 -0.097,0 -0.17639,0.079 -0.17639,0.1764 0,0.097 0.0794,0.1764 0.17639,0.1764 0.097,0 0.17639,-0.079 0.17639,-0.1764 z m 0.52916,-0.882 c 0.11991,-0.194 0.13865,-0.3527 0.0416,-0.3527 -0.097,0 -0.27449,0.1587 -0.3944,0.3527 -0.11991,0.1941 -0.13864,0.3528 -0.0416,0.3528 0.097,0 0.27449,-0.1587 0.3944,-0.3528 z m 0.52917,-0.8819 c 0,-0.097 -0.0794,-0.1764 -0.17639,-0.1764 -0.097,0 -0.17639,0.079 -0.17639,0.1764 0,0.097 0.0794,0.1764 0.17639,0.1764 0.097,0 0.17639,-0.079 0.17639,-0.1764 z m 0.35278,-0.7056 c 0,-0.097 -0.0794,-0.1763 -0.17639,-0.1763 -0.097,0 -0.17639,0.079 -0.17639,0.1763 0,0.097 0.0794,0.1764 0.17639,0.1764 0.097,0 0.17639,-0.079 0.17639,-0.1764 z m 37.53492,-21.7401 c 2.73614,-1.8677 14.0796,-9.2202 25.2077,-16.339 22.6872,-14.5132 19.46761,-12.8272 43.46437,-22.7613 l 12.19171,-5.0472 0.79732,-6.3909 c 2.52239,-20.2186 2.05422,-17.9974 6.94742,-32.9616 5.85918,-17.9184 6.01843,-18.3139 8.50816,-21.1264 2.93821,-3.3191 4.2171,-4.8715 3.81282,-4.6282 -0.19357,0.1165 -2.87828,1.2731 -5.966,2.5701 -6.33988,2.6632 -35.15921,18.4203 -41.74659,22.8251 -2.90714,1.944 -8.08083,6.4092 -20.7797,17.9343 l -16.90882,15.3458 -14.62539,18.0905 c -9.24704,11.4378 -15.03218,18.8974 -15.73152,20.2847 -1.31579,2.6103 -6.50649,23.5238 -7.15529,28.829 -0.22542,1.8432 -0.48267,3.6956 -0.57164,4.1163 -0.0942,0.4451 3.54704,-3.0209 8.70941,-8.2903 8.15185,-8.3209 9.2746,-9.3306 13.84604,-12.4509 z m -37.00576,20.8582 c 0.11991,-0.194 0.13865,-0.3528 0.0416,-0.3528 -0.097,0 -0.27449,0.1588 -0.3944,0.3528 -0.11991,0.194 -0.13864,0.3528 -0.0416,0.3528 0.097,0 0.27449,-0.1588 0.3944,-0.3528 z m 0.52917,-0.8819 c 0,-0.097 -0.0794,-0.1764 -0.17639,-0.1764 -0.097,0 -0.17639,0.079 -0.17639,0.1764 0,0.097 0.0794,0.1763 0.17639,0.1763 0.097,0 0.17639,-0.079 0.17639,-0.1763 z m 0.35278,-0.7056 c 0,-0.097 -0.0794,-0.1764 -0.17639,-0.1764 -0.097,0 -0.17639,0.079 -0.17639,0.1764 0,0.097 0.0794,0.1764 0.17639,0.1764 0.097,0 0.17639,-0.079 0.17639,-0.1764 z m 0.35278,-0.7056 c 0,-0.097 -0.0794,-0.1763 -0.17639,-0.1763 -0.097,0 -0.17639,0.079 -0.17639,0.1763 0,0.097 0.0794,0.1764 0.17639,0.1764 0.097,0 0.17639,-0.079 0.17639,-0.1764 z m 0.52916,-0.8819 c 0.11991,-0.194 0.13865,-0.3528 0.0416,-0.3528 -0.097,0 -0.27449,0.1588 -0.3944,0.3528 -0.11991,0.194 -0.13864,0.3528 -0.0416,0.3528 0.097,0 0.27449,-0.1588 0.3944,-0.3528 z m 0.52917,-0.8819 c 0,-0.097 -0.0794,-0.1764 -0.17639,-0.1764 -0.097,0 -0.17639,0.079 -0.17639,0.1764 0,0.097 0.0794,0.1763 0.17639,0.1763 0.097,0 0.17639,-0.079 0.17639,-0.1763 z m 0.35278,-0.7056 c 0,-0.097 -0.0794,-0.1764 -0.17639,-0.1764 -0.097,0 -0.17639,0.079 -0.17639,0.1764 0,0.097 0.0794,0.1764 0.17639,0.1764 0.097,0 0.17639,-0.079 0.17639,-0.1764 z m 0.52916,-0.8819 c 0.11991,-0.1941 0.13865,-0.3528 0.0416,-0.3528 -0.097,0 -0.27449,0.1587 -0.3944,0.3528 -0.11991,0.194 -0.13864,0.3527 -0.0416,0.3527 0.097,0 0.27449,-0.1587 0.3944,-0.3527 z m 0.52917,-0.882 c 0,-0.097 -0.0794,-0.1764 -0.17639,-0.1764 -0.097,0 -0.17639,0.079 -0.17639,0.1764 0,0.097 0.0794,0.1764 0.17639,0.1764 0.097,0 0.17639,-0.079 0.17639,-0.1764 z m 0.35278,-0.7055 c 0,-0.097 -0.0794,-0.1764 -0.17639,-0.1764 -0.097,0 -0.17639,0.079 -0.17639,0.1764 0,0.097 0.0794,0.1763 0.17639,0.1763 0.097,0 0.17639,-0.079 0.17639,-0.1763 z m 0.35278,-0.7056 c 0,-0.097 -0.0794,-0.1764 -0.17639,-0.1764 -0.097,0 -0.17639,0.079 -0.17639,0.1764 0,0.097 0.0794,0.1764 0.17639,0.1764 0.097,0 0.17639,-0.079 0.17639,-0.1764 z m 0.70555,-1.0583 c 0,-0.097 -0.0794,-0.1764 -0.17639,-0.1764 -0.097,0 -0.17639,0.079 -0.17639,0.1764 0,0.097 0.0794,0.1764 0.17639,0.1764 0.097,0 0.17639,-0.079 0.17639,-0.1764 z m 0.35278,-0.7056 c 0,-0.097 -0.0794,-0.1764 -0.17639,-0.1764 -0.097,0 -0.17639,0.079 -0.17639,0.1764 0,0.097 0.0794,0.1764 0.17639,0.1764 0.097,0 0.17639,-0.079 0.17639,-0.1764 z m 0.35278,-0.7055 c 0,-0.097 -0.0794,-0.1764 -0.17639,-0.1764 -0.097,0 -0.17639,0.079 -0.17639,0.1764 0,0.097 0.0794,0.1763 0.17639,0.1763 0.097,0 0.17639,-0.079 0.17639,-0.1763 z m 0.52916,-0.882 c 0.11991,-0.194 0.13865,-0.3528 0.0416,-0.3528 -0.097,0 -0.27449,0.1588 -0.3944,0.3528 -0.11991,0.194 -0.13864,0.3528 -0.0416,0.3528 0.097,0 0.2745,-0.1588 0.3944,-0.3528 z m 0.52917,-0.8819 c 0,-0.097 -0.0794,-0.1764 -0.17639,-0.1764 -0.097,0 -0.17639,0.079 -0.17639,0.1764 0,0.097 0.0794,0.1764 0.17639,0.1764 0.097,0 0.17639,-0.079 0.17639,-0.1764 z m 0.35278,-0.7056 c 0,-0.097 -0.0794,-0.1764 -0.17639,-0.1764 -0.097,0 -0.17639,0.079 -0.17639,0.1764 0,0.097 0.0794,0.1764 0.17639,0.1764 0.097,0 0.17639,-0.079 0.17639,-0.1764 z m 0.35278,-0.7055 c 0,-0.097 -0.0794,-0.1764 -0.17639,-0.1764 -0.097,0 -0.17639,0.079 -0.17639,0.1764 0,0.097 0.0794,0.1763 0.17639,0.1763 0.097,0 0.17639,-0.079 0.17639,-0.1763 z m 0.70555,-1.0584 c 0,-0.097 -0.0794,-0.1764 -0.17639,-0.1764 -0.097,0 -0.17639,0.079 -0.17639,0.1764 0,0.097 0.0794,0.1764 0.17639,0.1764 0.097,0 0.17639,-0.079 0.17639,-0.1764 z m 0.35278,-0.7055 c 0,-0.097 -0.0794,-0.1764 -0.17639,-0.1764 -0.097,0 -0.17639,0.079 -0.17639,0.1764 0,0.097 0.0794,0.1764 0.17639,0.1764 0.097,0 0.17639,-0.079 0.17639,-0.1764 z m 0.35278,-0.7056 c 0,-0.097 -0.0794,-0.1764 -0.17639,-0.1764 -0.097,0 -0.17639,0.079 -0.17639,0.1764 0,0.097 0.0794,0.1764 0.17639,0.1764 0.097,0 0.17639,-0.079 0.17639,-0.1764 z m 0.52916,-0.8819 c 0.11991,-0.1941 0.13865,-0.3528 0.0416,-0.3528 -0.097,0 -0.27449,0.1587 -0.3944,0.3528 -0.11991,0.194 -0.13864,0.3527 -0.0416,0.3527 0.097,0 0.2745,-0.1587 0.3944,-0.3527 z m 0.52917,-0.882 c 0,-0.097 -0.0794,-0.1764 -0.17639,-0.1764 -0.097,0 -0.17639,0.079 -0.17639,0.1764 0,0.097 0.0794,0.1764 0.17639,0.1764 0.097,0 0.17639,-0.079 0.17639,-0.1764 z m 0.88195,-1.2347 c 0.1199,-0.194 0.13864,-0.3528 0.0416,-0.3528 -0.097,0 -0.2745,0.1588 -0.39441,0.3528 -0.11991,0.194 -0.13864,0.3528 -0.0416,0.3528 0.097,0 0.2745,-0.1588 0.39441,-0.3528 z m 0.88194,-1.2347 c 0,-0.097 -0.0794,-0.1764 -0.17639,-0.1764 -0.097,0 -0.17639,0.079 -0.17639,0.1764 0,0.097 0.0794,0.1764 0.17639,0.1764 0.097,0 0.17639,-0.079 0.17639,-0.1764 z m 446.80755,-56.8433 -4.7813,-11.9484 -11.5513,-15.1694 -11.5514,-15.1695 -9.3486,-7.3068 c -5.1417,-4.0188 -9.4421,-7.3128 -9.5565,-7.3201 -0.6586,-0.042 -10.3144,12.1406 -11.2146,14.1497 -2.4091,5.3762 -8.4859,33.9891 -7.2966,34.3561 0.2061,0.064 6.9628,1.4721 15.015,3.1299 l 14.6402,3.0142 20.1084,7.1843 c 11.0595,3.9513 20.1555,7.1492 20.2131,7.1063 0.058,-0.043 -2.0467,-5.4547 -4.6764,-12.0263 z m -330.69654,8.4732 c 37.34364,-14.1504 64.03624,-20.2693 106.13894,-24.3308 5.5298,-0.5334 10.083,-0.9856 10.1182,-1.0049 0.035,-0.019 0.8055,-5.8272 1.7119,-12.9063 l 1.648,-12.8713 4.388,-13.4055 c 6.3953,-19.5384 5.8694,-18.3331 10.0597,-23.0512 l 3.5536,-4.0013 -2.2459,0.2219 c -1.2353,0.122 -7.4847,0.6088 -13.8876,1.0817 -11.2937,0.8341 -12.2084,0.9595 -30.5998,4.1952 l -18.958,3.3354 -18.2734,5.3056 c -16.461,4.7794 -19.0737,5.6414 -26.3415,8.6906 -15.4516,6.4828 -14.6716,6.1879 -14.8861,5.6291 -0.1197,-0.3121 0.7045,-1.5087 2.1122,-3.0664 1.2697,-1.4051 2.2633,-2.5998 2.2081,-2.6551 -1.1599,-1.1598 -36.40393,19.1842 -40.95875,23.6427 -0.38982,0.3816 0.31034,0 13.10796,-7.0822 7.46587,-4.1336 13.26987,-6.887 22.21249,-10.5376 1.4027,-0.5727 0.379,1.2817 -2.57971,4.6729 -4.38495,5.0259 -4.10629,4.3662 -11.38756,26.9562 l -3.12698,9.7014 -1.43701,11.2889 c -0.79036,6.2089 -1.52502,11.8048 -1.63255,12.4354 -0.24327,1.4264 -1.36574,1.7046 9.05577,-2.2444 z m 13.88764,-63.9896 c 0.1199,-0.1941 0.1386,-0.3528 0.042,-0.3528 -0.097,0 -0.2745,0.1587 -0.3945,0.3528 -0.1199,0.194 -0.1386,0.3527 -0.042,0.3527 0.097,0 0.2745,-0.1587 0.3944,-0.3527 z m 11.4652,-4.8513 c 9.67,-4.0406 10.762,-4.4052 28.575,-9.5406 l 18.5209,-5.3394 19.4027,-3.3381 19.4028,-3.3381 13.2292,-0.9278 c 7.276,-0.5102 13.3239,-0.9582 13.4398,-0.9955 0.1158,-0.037 1.6052,-1.6554 3.3098,-3.5956 1.7046,-1.9403 3.2051,-3.6467 3.3344,-3.792 0.1293,-0.1453 2.053,-0.632 4.2749,-1.0816 l 4.0397,-0.8173 -3.9653,-0.2474 c -4.7161,-0.2943 -10.0472,0.3691 -44.8944,5.5867 l -22.0486,3.3012 -21.6227,6.752 -21.6227,6.7519 -9.5981,4.5815 -9.5982,4.5814 -2.5436,2.714 c -2.4446,2.6082 -3.0715,3.5299 -2.1307,3.1323 0.2425,-0.1025 4.9653,-2.0769 10.4951,-4.3876 z m 258.5861,2.911 c 0,-0.097 -0.079,-0.1764 -0.1764,-0.1764 -0.097,0 -0.1763,0.079 -0.1763,0.1764 0,0.097 0.079,0.1764 0.1763,0.1764 0.097,0 0.1764,-0.079 0.1764,-0.1764 z m 2.1399,-3.3514 c 2.5852,-3.0534 2.7141,-3.1624 3.7483,-3.1696 1.6562,-0.012 1.0303,-0.6447 -1.4012,-1.4176 -1.4007,-0.4453 -3.7373,-1.2722 -5.1925,-1.8376 -2.3286,-0.9049 -21.4342,-5.067 -21.7606,-4.7405 -0.066,0.066 2.2754,1.1794 5.2028,2.4745 4.9354,2.1834 5.7495,2.6869 11.1889,6.9204 3.2264,2.5111 5.8905,4.5321 5.9202,4.491 0.03,-0.041 1.0621,-1.2654 2.2941,-2.7206 z m 20.4379,-1.2347 c 0,-0.097 -0.079,-0.1764 -0.1764,-0.1764 -0.097,0 -0.1764,0.079 -0.1764,0.1764 0,0.097 0.079,0.1764 0.1764,0.1764 0.097,0 0.1764,-0.079 0.1764,-0.1764 z m -45.6259,-10.2894 c -0.1294,-0.1293 -0.341,-0.1293 -0.4704,0 -0.1293,0.1294 -0.024,0.2352 0.2352,0.2352 0.2587,0 0.3645,-0.1058 0.2352,-0.2352 z m -1.0583,-0.3528 c -0.1294,-0.1293 -0.3411,-0.1293 -0.4704,0 -0.1294,0.1294 -0.024,0.2352 0.2352,0.2352 0.2587,0 0.3645,-0.1058 0.2352,-0.2352 z m -4.5861,-1.4111 c -0.1294,-0.1293 -0.3411,-0.1293 -0.4704,0 -0.1294,0.1294 -0.024,0.2352 0.2352,0.2352 0.2586,0 0.3645,-0.1058 0.2352,-0.2352 z m -1.0584,-0.3528 c -0.1293,-0.1293 -0.341,-0.1293 -0.4704,0 -0.1293,0.1294 -0.024,0.2352 0.2352,0.2352 0.2587,0 0.3645,-0.1058 0.2352,-0.2352 z m -0.9701,-0.2556 c -0.081,-0.076 -4.5126,-2.087 -9.8484,-4.4691 l -9.7014,-4.3311 -21.3431,-4.5403 -21.343,-4.5403 -12.7,-0.3197 c -6.985,-0.1759 -14.3669,-0.3473 -16.4042,-0.3809 -2.2323,-0.037 -3.2836,-0.156 -2.6458,-0.2997 l 1.0583,-0.2385 -1.4111,-0.2451 c -0.7761,-0.1347 -3.2367,-0.216 -5.468,-0.1806 l -4.057,0.064 3.5278,0.2162 c 1.9403,0.1189 2.9721,0.2678 2.293,0.3309 l -1.2347,0.1147 1.2347,0.2186 c 1.0213,0.1808 0.2896,0.4146 -4.2333,1.3527 l -5.468,1.1342 -1.706,1.864 c -0.9382,1.0252 -2.3581,2.6373 -3.1553,3.5823 l -1.4494,1.7183 1.3915,-0.2065 c 21.433,-3.1806 61.7207,-0.9502 90.9969,5.0378 19.1661,3.9201 22.037,4.4657 21.6665,4.1177 z m -73.613,-19.1748 c -1.7947,-0.064 -4.7316,-0.064 -6.5264,0 -1.7947,0.064 -0.3263,0.1164 3.2632,0.1164 3.5895,0 5.058,-0.052 3.2632,-0.1164 z m -15.1694,-0.3389 c -0.4366,-0.084 -1.151,-0.084 -1.5875,0 -0.4366,0.084 -0.079,0.1529 0.7937,0.1529 0.8731,0 1.2303,-0.069 0.7938,-0.1529 z"
       id="path855" /></g></svg>
