<?xml version="1.0" encoding="UTF-8" standalone="no"?>
<!-- Created with Inkscape (http://www.inkscape.org/) -->

<svg
   width="2477.5391mm"
   height="439.69666mm"
   viewBox="0 0 2477.5391 439.69666"
   version="1.1"
   id="svg361"
   xml:space="preserve"
   inkscape:version="1.2 (dc2aeda, 2022-05-15)"
   sodipodi:docname="xosera-logo-scans.svg"
   xmlns:inkscape="http://www.inkscape.org/namespaces/inkscape"
   xmlns:sodipodi="http://sodipodi.sourceforge.net/DTD/sodipodi-0.dtd"
   xmlns="http://www.w3.org/2000/svg"
   xmlns:svg="http://www.w3.org/2000/svg"><sodipodi:namedview
     id="namedview363"
     pagecolor="#ffffff"
     bordercolor="#666666"
     borderopacity="1.0"
     inkscape:showpageshadow="2"
     inkscape:pageopacity="0.0"
     inkscape:pagecheckerboard="0"
     inkscape:deskcolor="#d1d1d1"
     inkscape:document-units="mm"
     showgrid="false"
     inkscape:zoom="0.078306982"
     inkscape:cx="2445.5035"
     inkscape:cy="3160.6377"
     inkscape:window-width="1676"
     inkscape:window-height="1123"
     inkscape:window-x="0"
     inkscape:window-y="25"
     inkscape:window-maximized="0"
     inkscape:current-layer="layer1" /><defs
     id="defs358" /><g
     inkscape:label="Layer 1"
     inkscape:groupmode="layer"
     id="layer1"
     transform="translate(992.24032,-1797.6888)"><g
       id="g1334"><g
         aria-label="rosco_m68k"
         id="text1096"
         style="font-size:505.622px;line-height:1.25;font-family:AppleGothic;-inkscape-font-specification:AppleGothic;stroke-width:0.758432"><path
           d="m -962.40866,2124.3207 q -4.5506,-2.5281 -4.5506,-10.6181 0,-8.0899 4.5506,-10.1124 5.05622,-2.5281 20.7305,-2.5281 15.67429,0 20.22488,2.5281 5.05622,2.0225 5.05622,10.1124 0,8.09 -5.05622,10.6181 -4.55059,2.0225 -20.22488,2.0225 -15.67428,0 -20.7305,-2.0225 z m 0,-50.5622 q -4.5506,-2.5281 -4.5506,-10.6181 0,-8.0899 4.5506,-10.1124 5.05622,-2.5281 20.7305,-2.5281 15.67429,0 20.22488,2.5281 5.05622,2.0225 5.05622,10.1124 0,8.09 -5.05622,10.6181 -4.55059,2.0225 -20.22488,2.0225 -15.67428,0 -20.7305,-2.0225 z m 0,-50.5622 q -4.5506,-2.5281 -4.5506,-10.6181 0,-8.0899 4.5506,-10.1124 5.05622,-2.5281 20.7305,-2.5281 15.67429,0 20.22488,2.5281 5.05622,2.0225 5.05622,10.1124 0,8.09 -5.05622,10.6181 -4.55059,2.0225 -20.22488,2.0225 -15.67428,0 -20.7305,-2.0225 z m 126.4055,-50.5622 q -4.55059,-2.5281 -4.55059,-10.6181 0,-8.0899 4.55059,-10.1124 5.05622,-2.5281 20.73051,-2.5281 15.67428,0 20.22488,2.5281 5.05622,2.0225 5.05622,10.1124 0,8.09 -5.05622,10.6181 -4.5506,2.0225 -20.22488,2.0225 -15.67429,0 -20.73051,-2.0225 z m -124.38301,0 q -6.57309,-2.0225 -6.57309,-10.6181 0,-8.5956 6.57309,-10.618 6.57309,-2.0225 31.34856,-2.0225 24.77548,0 31.34857,2.0225 6.57309,2.0224 6.57309,10.618 0,8.5956 -6.57309,10.6181 -6.57309,2.0225 -31.34857,2.0225 -24.77547,0 -31.34856,-2.0225 z m 52.07907,-50.5622 q -8.08996,-2.0225 -8.08996,-10.6181 0,-8.5956 8.08996,-10.618 8.08995,-2.0225 42.47225,-2.0225 34.38229,0 42.47224,2.0225 8.08996,2.0224 8.08996,10.618 0,8.5956 -8.08996,10.6181 -8.08995,2.0225 -42.47224,2.0225 -34.3823,0 -42.47225,-2.0225 z m -79.38266,0 q -4.5506,-2.5281 -4.5506,-10.6181 0,-8.0899 4.5506,-10.1124 5.05622,-2.5281 20.7305,-2.5281 15.67429,0 20.22488,2.5281 5.05622,2.0225 5.05622,10.1124 0,8.09 -5.05622,10.6181 -4.55059,2.0225 -20.22488,2.0225 -15.67428,0 -20.7305,-2.0225 z"
           style="font-family:'Glass TTY VT220';-inkscape-font-specification:'Glass TTY VT220'"
           id="path1252" /><path
           d="m -714.14921,2113.7026 q 0,-8.0899 7.58433,-10.1124 9.60682,-2.5281 68.25897,-2.5281 65.22524,0 72.30395,4.5506 3.53935,2.0225 3.53935,8.0899 0,8.09 -7.58433,10.1125 -9.60682,2.5281 -68.25897,2.5281 -65.22524,0 -72.30395,-4.5506 -3.53935,-2.0225 -3.53935,-8.09 z m 130.9561,-39.9441 q -4.5506,-2.5281 -4.5506,-10.6181 0,-8.0899 4.5506,-10.1124 5.05622,-2.5281 20.7305,-2.5281 15.67428,0 20.22488,2.5281 5.05622,2.0225 5.05622,10.1124 0,8.09 -5.05622,10.6181 -4.5506,2.0225 -20.22488,2.0225 -15.67428,0 -20.7305,-2.0225 z m -151.68661,0 q -4.55059,-2.5281 -4.55059,-10.6181 0,-8.0899 4.55059,-10.1124 5.05623,-2.5281 20.73051,-2.5281 15.67428,0 20.22488,2.5281 5.05622,2.0225 5.05622,10.1124 0,8.09 -5.05622,10.6181 -4.5506,2.0225 -20.22488,2.0225 -15.67428,0 -20.73051,-2.0225 z m 151.68661,-50.5622 q -4.5506,-2.5281 -4.5506,-10.6181 0,-8.0899 4.5506,-10.1124 5.05622,-2.5281 20.7305,-2.5281 15.67428,0 20.22488,2.5281 5.05622,2.0225 5.05622,10.1124 0,8.09 -5.05622,10.6181 -4.5506,2.0225 -20.22488,2.0225 -15.67428,0 -20.7305,-2.0225 z m -151.68661,0 q -4.55059,-2.5281 -4.55059,-10.6181 0,-8.0899 4.55059,-10.1124 5.05623,-2.5281 20.73051,-2.5281 15.67428,0 20.22488,2.5281 5.05622,2.0225 5.05622,10.1124 0,8.09 -5.05622,10.6181 -4.5506,2.0225 -20.22488,2.0225 -15.67428,0 -20.73051,-2.0225 z m 151.68661,-50.5622 q -4.5506,-2.5281 -4.5506,-10.6181 0,-8.0899 4.5506,-10.1124 5.05622,-2.5281 20.7305,-2.5281 15.67428,0 20.22488,2.5281 5.05622,2.0225 5.05622,10.1124 0,8.09 -5.05622,10.6181 -4.5506,2.0225 -20.22488,2.0225 -15.67428,0 -20.7305,-2.0225 z m -151.68661,0 q -4.55059,-2.5281 -4.55059,-10.6181 0,-8.0899 4.55059,-10.1124 5.05623,-2.5281 20.73051,-2.5281 15.67428,0 20.22488,2.5281 5.05622,2.0225 5.05622,10.1124 0,8.09 -5.05622,10.6181 -4.5506,2.0225 -20.22488,2.0225 -15.67428,0 -20.73051,-2.0225 z m 20.73051,-61.1803 q 0,-8.0899 7.58433,-10.1124 9.60682,-2.5281 68.25897,-2.5281 65.22524,0 72.30395,4.5506 3.53935,2.0224 3.53935,8.0899 0,8.09 -7.58433,10.1125 -9.60682,2.5281 -68.25897,2.5281 -65.22524,0 -72.30395,-4.5506 -3.53935,-2.0225 -3.53935,-8.09 z"
           style="font-family:'Glass TTY VT220';-inkscape-font-specification:'Glass TTY VT220'"
           id="path1254" /><path
           d="m -486.62027,2113.7026 q 0,-7.5843 7.58433,-9.6068 11.12368,-3.0337 80.89952,-3.0337 76.34893,0 84.43888,4.5506 4.04497,2.0225 4.04497,8.0899 0,7.5843 -7.58433,9.6068 -11.12368,3.0338 -80.89952,3.0338 -76.34892,0 -84.43887,-4.5506 -4.04498,-2.0225 -4.04498,-8.09 z m 156.2372,-39.9441 q -4.5506,-2.5281 -4.5506,-10.6181 0,-8.0899 4.5506,-10.1124 5.05622,-2.5281 20.7305,-2.5281 15.67429,0 20.22488,2.5281 5.05622,2.0225 5.05622,10.1124 0,8.09 -5.05622,10.6181 -4.55059,2.0225 -20.22488,2.0225 -15.67428,0 -20.7305,-2.0225 z m -130.9561,-61.1803 q 0,-8.0899 7.58433,-10.1124 9.60682,-2.5281 68.25897,-2.5281 65.22524,0 72.30395,4.5506 3.53935,2.0225 3.53935,8.0899 0,8.09 -7.58433,10.1125 -9.60681,2.5281 -68.25897,2.5281 -65.22524,0 -72.30395,-4.5506 -3.53935,-2.0225 -3.53935,-8.09 z m -20.7305,-39.9441 q -4.5506,-2.5281 -4.5506,-10.6181 0,-8.0899 4.5506,-10.1124 5.05622,-2.5281 20.7305,-2.5281 15.67428,0 20.22488,2.5281 5.05622,2.0225 5.05622,10.1124 0,8.09 -5.05622,10.6181 -4.5506,2.0225 -20.22488,2.0225 -15.67428,0 -20.7305,-2.0225 z m 20.7305,-61.1803 q 0,-8.0899 7.58433,-10.1124 9.60682,-2.5281 68.25897,-2.5281 65.22524,0 72.30395,4.5506 3.53935,2.0224 3.53935,8.0899 0,8.09 -7.58433,10.1125 -9.60681,2.5281 -68.25897,2.5281 -65.22524,0 -72.30395,-4.5506 -3.53935,-2.0225 -3.53935,-8.09 z"
           style="font-family:'Glass TTY VT220';-inkscape-font-specification:'Glass TTY VT220'"
           id="path1256" /><path
           d="m -208.52914,2113.7026 q 0,-7.5843 7.58433,-9.6068 11.12368,-3.0337 80.89952,-3.0337 76.348924,0 84.438876,4.5506 4.044976,2.0225 4.044976,8.0899 0,7.5843 -7.58433,9.6068 -11.123684,3.0338 -80.899522,3.0338 -76.34892,0 -84.43888,-4.5506 -4.04497,-2.0225 -4.04497,-8.09 z m -20.7305,-39.9441 q -4.5506,-2.5281 -4.5506,-10.6181 0,-8.0899 4.5506,-10.1124 5.05622,-2.5281 20.7305,-2.5281 15.67428,0 20.22488,2.5281 5.05622,2.0225 5.05622,10.1124 0,8.09 -5.05622,10.6181 -4.5506,2.0225 -20.22488,2.0225 -15.67428,0 -20.7305,-2.0225 z m 0,-50.5622 q -4.5506,-2.5281 -4.5506,-10.6181 0,-8.0899 4.5506,-10.1124 5.05622,-2.5281 20.7305,-2.5281 15.67428,0 20.22488,2.5281 5.05622,2.0225 5.05622,10.1124 0,8.09 -5.05622,10.6181 -4.5506,2.0225 -20.22488,2.0225 -15.67428,0 -20.7305,-2.0225 z m 151.686599,-50.5622 q -4.550598,-2.5281 -4.550598,-10.6181 0,-8.0899 4.550598,-10.1124 5.05622,-2.5281 20.730503,-2.5281 15.674282,0 20.22488,2.5281 5.05622,2.0225 5.05622,10.1124 0,8.09 -5.05622,10.6181 -4.550598,2.0225 -20.22488,2.0225 -15.674283,0 -20.730503,-2.0225 z m -151.686599,0 q -4.5506,-2.5281 -4.5506,-10.6181 0,-8.0899 4.5506,-10.1124 5.05622,-2.5281 20.7305,-2.5281 15.67428,0 20.22488,2.5281 5.05622,2.0225 5.05622,10.1124 0,8.09 -5.05622,10.6181 -4.5506,2.0225 -20.22488,2.0225 -15.67428,0 -20.7305,-2.0225 z m 20.7305,-61.1803 q 0,-8.0899 7.58433,-10.1124 9.60682,-2.5281 68.25897,-2.5281 65.225239,0 72.303947,4.5506 3.539355,2.0224 3.539355,8.0899 0,8.09 -7.584331,10.1125 -9.606818,2.5281 -68.258971,2.5281 -65.22524,0 -72.30395,-4.5506 -3.53935,-2.0225 -3.53935,-8.09 z"
           style="font-family:'Glass TTY VT220';-inkscape-font-specification:'Glass TTY VT220'"
           id="path1258" /><path
           d="m 44.280917,2113.7026 q 0,-8.0899 7.58433,-10.1124 9.606819,-2.5281 68.258973,-2.5281 65.22524,0 72.30395,4.5506 3.53935,2.0225 3.53935,8.0899 0,8.09 -7.58433,10.1125 -9.60682,2.5281 -68.25897,2.5281 -65.22524,0 -72.303949,-4.5506 -3.539354,-2.0225 -3.539354,-8.09 z m 130.956103,-39.9441 q -4.5506,-2.5281 -4.5506,-10.6181 0,-8.0899 4.5506,-10.1124 5.05622,-2.5281 20.7305,-2.5281 15.67428,0 20.22488,2.5281 5.05622,2.0225 5.05622,10.1124 0,8.09 -5.05622,10.6181 -4.5506,2.0225 -20.22488,2.0225 -15.67428,0 -20.7305,-2.0225 z m -151.686605,0 q -4.550598,-2.5281 -4.550598,-10.6181 0,-8.0899 4.550598,-10.1124 5.05622,-2.5281 20.730502,-2.5281 15.674283,0 20.224881,2.5281 5.05622,2.0225 5.05622,10.1124 0,8.09 -5.05622,10.6181 -4.550598,2.0225 -20.224881,2.0225 -15.674282,0 -20.730502,-2.0225 z m 151.686605,-50.5622 q -4.5506,-2.5281 -4.5506,-10.6181 0,-8.0899 4.5506,-10.1124 5.05622,-2.5281 20.7305,-2.5281 15.67428,0 20.22488,2.5281 5.05622,2.0225 5.05622,10.1124 0,8.09 -5.05622,10.6181 -4.5506,2.0225 -20.22488,2.0225 -15.67428,0 -20.7305,-2.0225 z m -151.686605,0 q -4.550598,-2.5281 -4.550598,-10.6181 0,-8.0899 4.550598,-10.1124 5.05622,-2.5281 20.730502,-2.5281 15.674283,0 20.224881,2.5281 5.05622,2.0225 5.05622,10.1124 0,8.09 -5.05622,10.6181 -4.550598,2.0225 -20.224881,2.0225 -15.674282,0 -20.730502,-2.0225 z m 151.686605,-50.5622 q -4.5506,-2.5281 -4.5506,-10.6181 0,-8.0899 4.5506,-10.1124 5.05622,-2.5281 20.7305,-2.5281 15.67428,0 20.22488,2.5281 5.05622,2.0225 5.05622,10.1124 0,8.09 -5.05622,10.6181 -4.5506,2.0225 -20.22488,2.0225 -15.67428,0 -20.7305,-2.0225 z m -151.686605,0 q -4.550598,-2.5281 -4.550598,-10.6181 0,-8.0899 4.550598,-10.1124 5.05622,-2.5281 20.730502,-2.5281 15.674283,0 20.224881,2.5281 5.05622,2.0225 5.05622,10.1124 0,8.09 -5.05622,10.6181 -4.550598,2.0225 -20.224881,2.0225 -15.674282,0 -20.730502,-2.0225 z m 20.730502,-61.1803 q 0,-8.0899 7.58433,-10.1124 9.606819,-2.5281 68.258973,-2.5281 65.22524,0 72.30395,4.5506 3.53935,2.0224 3.53935,8.0899 0,8.09 -7.58433,10.1125 -9.60682,2.5281 -68.25897,2.5281 -65.22524,0 -72.303949,-4.5506 -3.539354,-2.0225 -3.539354,-8.09 z"
           style="font-family:'Glass TTY VT220';-inkscape-font-specification:'Glass TTY VT220'"
           id="path1260" /><path
           d="m 271.80981,2113.7026 q 0,-7.5843 7.58433,-9.6068 12.13493,-3.0337 93.54008,-3.0337 87.4726,0 96.5738,4.5506 4.5506,2.0225 4.5506,8.0899 0,7.5843 -7.58433,9.6068 -12.13493,3.0338 -93.54007,3.0338 -87.47261,0 -96.57381,-4.5506 -4.5506,-2.0225 -4.5506,-8.09 z"
           style="font-family:'Glass TTY VT220';-inkscape-font-specification:'Glass TTY VT220'"
           id="path1262" /><path
           d="m 680.85707,2124.3207 q -4.55059,-2.5281 -4.55059,-10.6181 0,-8.0899 4.55059,-10.1124 5.05622,-2.5281 20.73051,-2.5281 15.67428,0 20.22488,2.5281 5.05622,2.0225 5.05622,10.1124 0,8.09 -5.05622,10.6181 -4.5506,2.0225 -20.22488,2.0225 -15.67429,0 -20.73051,-2.0225 z m -151.6866,0 q -4.5506,-2.5281 -4.5506,-10.6181 0,-8.0899 4.5506,-10.1124 5.05622,-2.5281 20.7305,-2.5281 15.67429,0 20.22488,2.5281 5.05622,2.0225 5.05622,10.1124 0,8.09 -5.05622,10.6181 -4.55059,2.0225 -20.22488,2.0225 -15.67428,0 -20.7305,-2.0225 z m 151.6866,-50.5622 q -4.55059,-2.5281 -4.55059,-10.6181 0,-8.0899 4.55059,-10.1124 5.05622,-2.5281 20.73051,-2.5281 15.67428,0 20.22488,2.5281 5.05622,2.0225 5.05622,10.1124 0,8.09 -5.05622,10.6181 -4.5506,2.0225 -20.22488,2.0225 -15.67429,0 -20.73051,-2.0225 z m -75.8433,0 q -4.5506,-2.5281 -4.5506,-10.6181 0,-8.0899 4.5506,-10.1124 5.05622,-2.5281 20.7305,-2.5281 15.67429,0 20.22489,2.5281 5.05622,2.0225 5.05622,10.1124 0,8.09 -5.05622,10.6181 -4.5506,2.0225 -20.22489,2.0225 -15.67428,0 -20.7305,-2.0225 z m -75.8433,0 q -4.5506,-2.5281 -4.5506,-10.6181 0,-8.0899 4.5506,-10.1124 5.05622,-2.5281 20.7305,-2.5281 15.67429,0 20.22488,2.5281 5.05622,2.0225 5.05622,10.1124 0,8.09 -5.05622,10.6181 -4.55059,2.0225 -20.22488,2.0225 -15.67428,0 -20.7305,-2.0225 z m 151.6866,-50.5622 q -4.55059,-2.5281 -4.55059,-10.6181 0,-8.0899 4.55059,-10.1124 5.05622,-2.5281 20.73051,-2.5281 15.67428,0 20.22488,2.5281 5.05622,2.0225 5.05622,10.1124 0,8.09 -5.05622,10.6181 -4.5506,2.0225 -20.22488,2.0225 -15.67429,0 -20.73051,-2.0225 z m -75.8433,0 q -4.5506,-2.5281 -4.5506,-10.6181 0,-8.0899 4.5506,-10.1124 5.05622,-2.5281 20.7305,-2.5281 15.67429,0 20.22489,2.5281 5.05622,2.0225 5.05622,10.1124 0,8.09 -5.05622,10.6181 -4.5506,2.0225 -20.22489,2.0225 -15.67428,0 -20.7305,-2.0225 z m -75.8433,0 q -4.5506,-2.5281 -4.5506,-10.6181 0,-8.0899 4.5506,-10.1124 5.05622,-2.5281 20.7305,-2.5281 15.67429,0 20.22488,2.5281 5.05622,2.0225 5.05622,10.1124 0,8.09 -5.05622,10.6181 -4.55059,2.0225 -20.22488,2.0225 -15.67428,0 -20.7305,-2.0225 z m -4.5506,-61.1803 q 0,-7.5843 7.58433,-9.6068 12.13493,-3.0337 93.54007,-3.0337 87.47261,0 96.57381,4.5506 4.5506,2.0224 4.5506,8.0899 0,7.5843 -7.58433,9.6068 -12.13493,3.0338 -93.54008,3.0338 -87.4726,0 -96.5738,-4.5506 -4.5506,-2.0225 -4.5506,-8.09 z m 130.9561,-39.9441 q -4.55059,-2.5281 -4.55059,-10.6181 0,-8.0899 4.55059,-10.1124 5.05622,-2.5281 20.73051,-2.5281 15.67428,0 20.22488,2.5281 5.05622,2.0225 5.05622,10.1124 0,8.09 -5.05622,10.6181 -4.5506,2.0225 -20.22488,2.0225 -15.67429,0 -20.73051,-2.0225 z m -124.38301,0 q -6.57309,-2.0225 -6.57309,-10.6181 0,-8.5956 6.57309,-10.618 6.57309,-2.0225 31.34856,-2.0225 24.77548,0 31.34857,2.0225 6.57308,2.0224 6.57308,10.618 0,8.5956 -6.57308,10.6181 -6.57309,2.0225 -31.34857,2.0225 -24.77547,0 -31.34856,-2.0225 z"
           style="font-family:'Glass TTY VT220';-inkscape-font-specification:'Glass TTY VT220'"
           id="path1264" /><path
           d="m 802.71103,2113.7026 q 0,-8.0899 7.58433,-10.1124 9.60682,-2.5281 68.25897,-2.5281 65.22524,0 72.30395,4.5506 3.53935,2.0225 3.53935,8.0899 0,8.09 -7.58433,10.1125 -9.60681,2.5281 -68.25897,2.5281 -65.22524,0 -72.30394,-4.5506 -3.53936,-2.0225 -3.53936,-8.09 z m 130.9561,-39.9441 q -4.5506,-2.5281 -4.5506,-10.6181 0,-8.0899 4.5506,-10.1124 5.05622,-2.5281 20.7305,-2.5281 15.67429,0 20.22489,2.5281 5.05622,2.0225 5.05622,10.1124 0,8.09 -5.05622,10.6181 -4.5506,2.0225 -20.22489,2.0225 -15.67428,0 -20.7305,-2.0225 z m -151.6866,0 q -4.5506,-2.5281 -4.5506,-10.6181 0,-8.0899 4.5506,-10.1124 5.05622,-2.5281 20.7305,-2.5281 15.67428,0 20.22488,2.5281 5.05622,2.0225 5.05622,10.1124 0,8.09 -5.05622,10.6181 -4.5506,2.0225 -20.22488,2.0225 -15.67428,0 -20.7305,-2.0225 z m 151.6866,-50.5622 q -4.5506,-2.5281 -4.5506,-10.6181 0,-8.0899 4.5506,-10.1124 5.05622,-2.5281 20.7305,-2.5281 15.67429,0 20.22489,2.5281 5.05622,2.0225 5.05622,10.1124 0,8.09 -5.05622,10.6181 -4.5506,2.0225 -20.22489,2.0225 -15.67428,0 -20.7305,-2.0225 z m -149.66411,0 q -6.57309,-2.0225 -6.57309,-10.6181 0,-8.5956 6.57309,-10.618 6.57308,-2.0225 31.34856,-2.0225 24.77548,0 31.34857,2.0225 6.57308,2.0224 6.57308,10.618 0,8.5956 -6.57308,10.6181 -6.57309,2.0225 -31.34857,2.0225 -24.77548,0 -31.34856,-2.0225 z m -6.57309,-61.1803 q 0,-7.5843 7.58433,-9.6068 11.12369,-3.0337 80.89952,-3.0337 76.34893,0 84.43888,4.5506 4.04497,2.0224 4.04497,8.0899 0,7.5843 -7.58433,9.6068 -11.12368,3.0338 -80.89952,3.0338 -76.34892,0 -84.43887,-4.5506 -4.04498,-2.0225 -4.04498,-8.09 z m 4.5506,-39.9441 q -4.5506,-2.5281 -4.5506,-10.6181 0,-8.0899 4.5506,-10.1124 5.05622,-2.5281 20.7305,-2.5281 15.67428,0 20.22488,2.5281 5.05622,2.0225 5.05622,10.1124 0,8.09 -5.05622,10.6181 -4.5506,2.0225 -20.22488,2.0225 -15.67428,0 -20.7305,-2.0225 z m 25.2811,-50.5622 q -4.5506,-2.5281 -4.5506,-10.6181 0,-8.0899 4.5506,-10.1124 5.05622,-2.5281 20.7305,-2.5281 15.67428,0 20.22488,2.5281 5.05622,2.0225 5.05622,10.1124 0,8.09 -5.05622,10.6181 -4.5506,2.0225 -20.22488,2.0225 -15.67428,0 -20.7305,-2.0225 z m 21.74175,-54.1016 q -1.01125,-2.5281 -1.01125,-7.0787 0,-4.5506 1.01125,-6.5731 1.51686,-2.5281 8.59557,-4.045 7.58433,-1.5168 18.70802,-1.5168 11.12368,-0.5056 34.88791,-0.5056 23.76424,0 34.88792,0.5056 11.12369,0 18.20239,1.5168 7.58433,1.5169 8.59558,4.045 1.51686,2.0225 1.51686,6.5731 0,4.5506 -1.51686,7.0787 -1.01125,2.0225 -8.59558,3.5394 -7.0787,1.5168 -18.20239,2.0225 -11.12368,0 -34.88792,0 -23.76423,0 -34.88791,0 -11.12369,-0.5057 -18.70802,-2.0225 -7.07871,-1.5169 -8.59557,-3.5394 z"
           style="font-family:'Glass TTY VT220';-inkscape-font-specification:'Glass TTY VT220'"
           id="path1266" /><path
           d="m 1055.5211,2113.7026 q 0,-8.0899 7.5843,-10.1124 9.6068,-2.5281 68.259,-2.5281 65.2252,0 72.3039,4.5506 3.5394,2.0225 3.5394,8.0899 0,8.09 -7.5843,10.1125 -9.6069,2.5281 -68.259,2.5281 -65.2252,0 -72.304,-4.5506 -3.5393,-2.0225 -3.5393,-8.09 z m 130.9561,-39.9441 q -4.5506,-2.5281 -4.5506,-10.6181 0,-8.0899 4.5506,-10.1124 5.0562,-2.5281 20.7305,-2.5281 15.6743,0 20.2249,2.5281 5.0562,2.0225 5.0562,10.1124 0,8.09 -5.0562,10.6181 -4.5506,2.0225 -20.2249,2.0225 -15.6743,0 -20.7305,-2.0225 z m -151.6866,0 q -4.5506,-2.5281 -4.5506,-10.6181 0,-8.0899 4.5506,-10.1124 5.0562,-2.5281 20.7305,-2.5281 15.6743,0 20.2249,2.5281 5.0562,2.0225 5.0562,10.1124 0,8.09 -5.0562,10.6181 -4.5506,2.0225 -20.2249,2.0225 -15.6743,0 -20.7305,-2.0225 z m 151.6866,-50.5622 q -4.5506,-2.5281 -4.5506,-10.6181 0,-8.0899 4.5506,-10.1124 5.0562,-2.5281 20.7305,-2.5281 15.6743,0 20.2249,2.5281 5.0562,2.0225 5.0562,10.1124 0,8.09 -5.0562,10.6181 -4.5506,2.0225 -20.2249,2.0225 -15.6743,0 -20.7305,-2.0225 z m -151.6866,0 q -4.5506,-2.5281 -4.5506,-10.6181 0,-8.0899 4.5506,-10.1124 5.0562,-2.5281 20.7305,-2.5281 15.6743,0 20.2249,2.5281 5.0562,2.0225 5.0562,10.1124 0,8.09 -5.0562,10.6181 -4.5506,2.0225 -20.2249,2.0225 -15.6743,0 -20.7305,-2.0225 z m 20.7305,-61.1803 q 0,-8.0899 7.5843,-10.1124 9.6068,-2.5281 68.259,-2.5281 65.2252,0 72.3039,4.5506 3.5394,2.0224 3.5394,8.0899 0,8.09 -7.5843,10.1125 -9.6069,2.5281 -68.259,2.5281 -65.2252,0 -72.304,-4.5506 -3.5393,-2.0225 -3.5393,-8.09 z m 130.9561,-39.9441 q -4.5506,-2.5281 -4.5506,-10.6181 0,-8.0899 4.5506,-10.1124 5.0562,-2.5281 20.7305,-2.5281 15.6743,0 20.2249,2.5281 5.0562,2.0225 5.0562,10.1124 0,8.09 -5.0562,10.6181 -4.5506,2.0225 -20.2249,2.0225 -15.6743,0 -20.7305,-2.0225 z m -151.6866,0 q -4.5506,-2.5281 -4.5506,-10.6181 0,-8.0899 4.5506,-10.1124 5.0562,-2.5281 20.7305,-2.5281 15.6743,0 20.2249,2.5281 5.0562,2.0225 5.0562,10.1124 0,8.09 -5.0562,10.6181 -4.5506,2.0225 -20.2249,2.0225 -15.6743,0 -20.7305,-2.0225 z m 151.6866,-50.5622 q -4.5506,-2.5281 -4.5506,-10.6181 0,-8.0899 4.5506,-10.1124 5.0562,-2.5281 20.7305,-2.5281 15.6743,0 20.2249,2.5281 5.0562,2.0225 5.0562,10.1124 0,8.09 -5.0562,10.6181 -4.5506,2.0225 -20.2249,2.0225 -15.6743,0 -20.7305,-2.0225 z m -151.6866,0 q -4.5506,-2.5281 -4.5506,-10.6181 0,-8.0899 4.5506,-10.1124 5.0562,-2.5281 20.7305,-2.5281 15.6743,0 20.2249,2.5281 5.0562,2.0225 5.0562,10.1124 0,8.09 -5.0562,10.6181 -4.5506,2.0225 -20.2249,2.0225 -15.6743,0 -20.7305,-2.0225 z m 20.7305,-61.1803 q 0,-8.0899 7.5843,-10.1124 9.6068,-2.5281 68.259,-2.5281 65.2252,0 72.3039,4.5506 3.5394,2.0224 3.5394,8.0899 0,8.09 -7.5843,10.1125 -9.6069,2.5281 -68.259,2.5281 -65.2252,0 -72.304,-4.5506 -3.5393,-2.0225 -3.5393,-8.09 z"
           style="font-family:'Glass TTY VT220';-inkscape-font-specification:'Glass TTY VT220'"
           id="path1268" /><path
           d="m 1439.2871,2124.3207 q -4.5506,-2.5281 -4.5506,-10.6181 0,-8.0899 4.5506,-10.1124 5.0562,-2.5281 20.7305,-2.5281 15.6743,0 20.2249,2.5281 5.0562,2.0225 5.0562,10.1124 0,8.09 -5.0562,10.6181 -4.5506,2.0225 -20.2249,2.0225 -15.6743,0 -20.7305,-2.0225 z m -151.6866,0 q -4.5506,-2.5281 -4.5506,-10.6181 0,-8.0899 4.5506,-10.1124 5.0562,-2.5281 20.7305,-2.5281 15.6743,0 20.2249,2.5281 5.0562,2.0225 5.0562,10.1124 0,8.09 -5.0562,10.6181 -4.5506,2.0225 -20.2249,2.0225 -15.6743,0 -20.7305,-2.0225 z m 101.1244,-50.5622 q -4.5506,-2.5281 -4.5506,-10.6181 0,-8.0899 4.5506,-10.1124 5.0562,-2.5281 20.7305,-2.5281 15.6743,0 20.2249,2.5281 5.0562,2.0225 5.0562,10.1124 0,8.09 -5.0562,10.6181 -4.5506,2.0225 -20.2249,2.0225 -15.6743,0 -20.7305,-2.0225 z m -101.1244,0 q -4.5506,-2.5281 -4.5506,-10.6181 0,-8.0899 4.5506,-10.1124 5.0562,-2.5281 20.7305,-2.5281 15.6743,0 20.2249,2.5281 5.0562,2.0225 5.0562,10.1124 0,8.09 -5.0562,10.6181 -4.5506,2.0225 -20.2249,2.0225 -15.6743,0 -20.7305,-2.0225 z m 3.5394,-50.5622 q -8.09,-2.0225 -8.09,-10.6181 0,-8.5956 8.09,-10.618 8.0899,-2.0225 42.4722,-2.0225 34.3823,0 42.4723,2.0225 8.0899,2.0224 8.0899,10.618 0,8.5956 -8.0899,10.6181 -8.09,2.0225 -42.4723,2.0225 -34.3823,0 -42.4722,-2.0225 z m 72.3039,-50.5622 q -4.5506,-2.5281 -4.5506,-10.6181 0,-8.0899 4.5506,-10.1124 5.0562,-2.5281 20.7305,-2.5281 15.6743,0 20.2249,2.5281 5.0562,2.0225 5.0562,10.1124 0,8.09 -5.0562,10.6181 -4.5506,2.0225 -20.2249,2.0225 -15.6743,0 -20.7305,-2.0225 z m -75.8433,0 q -4.5506,-2.5281 -4.5506,-10.6181 0,-8.0899 4.5506,-10.1124 5.0562,-2.5281 20.7305,-2.5281 15.6743,0 20.2249,2.5281 5.0562,2.0225 5.0562,10.1124 0,8.09 -5.0562,10.6181 -4.5506,2.0225 -20.2249,2.0225 -15.6743,0 -20.7305,-2.0225 z m 101.1244,-50.5622 q -4.5506,-2.5281 -4.5506,-10.6181 0,-8.0899 4.5506,-10.1124 5.0562,-2.5281 20.7305,-2.5281 15.6743,0 20.2249,2.5281 5.0562,2.0225 5.0562,10.1124 0,8.09 -5.0562,10.6181 -4.5506,2.0225 -20.2249,2.0225 -15.6743,0 -20.7305,-2.0225 z m -101.1244,0 q -4.5506,-2.5281 -4.5506,-10.6181 0,-8.0899 4.5506,-10.1124 5.0562,-2.5281 20.7305,-2.5281 15.6743,0 20.2249,2.5281 5.0562,2.0225 5.0562,10.1124 0,8.09 -5.0562,10.6181 -4.5506,2.0225 -20.2249,2.0225 -15.6743,0 -20.7305,-2.0225 z m 0,-50.5622 q -4.5506,-2.5281 -4.5506,-10.6181 0,-8.0899 4.5506,-10.1124 5.0562,-2.5281 20.7305,-2.5281 15.6743,0 20.2249,2.5281 5.0562,2.0225 5.0562,10.1124 0,8.09 -5.0562,10.6181 -4.5506,2.0225 -20.2249,2.0225 -15.6743,0 -20.7305,-2.0225 z m 0,-50.5622 q -4.5506,-2.5281 -4.5506,-10.6181 0,-8.0899 4.5506,-10.1124 5.0562,-2.5281 20.7305,-2.5281 15.6743,0 20.2249,2.5281 5.0562,2.0225 5.0562,10.1124 0,8.09 -5.0562,10.6181 -4.5506,2.0225 -20.2249,2.0225 -15.6743,0 -20.7305,-2.0225 z"
           style="font-family:'Glass TTY VT220';-inkscape-font-specification:'Glass TTY VT220'"
           id="path1270" /></g><g
         aria-label="CERTIFIED PRODUCT"
         id="text1102"
         style="font-size:137.852px;line-height:1.25;font-family:AppleGothic;-inkscape-font-specification:AppleGothic;stroke-width:0.34463"><path
           d="m 408.95253,2171.0785 -5.78978,5.7898 -7.30616,-7.0305 h -14.33661 l -22.60773,22.6077 v 13.9231 l 22.74558,22.4699 14.06091,0.1378 7.1683,-7.5818 6.06549,5.7898 -8.40897,8.8225 q -1.24067,1.2406 -3.03274,1.2406 h -17.50721 q -1.51637,0 -2.89489,-1.3785 l -25.22692,-24.8133 q -1.24067,-1.2407 -1.24067,-2.8949 v -17.3694 q 0,-1.7921 1.10282,-2.8949 l 25.22692,-25.089 q 1.24066,-1.2407 2.89489,-1.2407 h 17.64506 q 1.79207,0 2.89489,1.1028 z"
           style="font-family:'IBM 3270 Narrow';-inkscape-font-specification:'IBM 3270 Narrow'"
           id="path1273" /><path
           d="m 417.91277,2161.5667 h 58.3114 v 8.409 h -49.90243 v 25.2269 h 33.08448 v 8.409 h -33.08448 v 25.3647 h 49.90243 v 8.2711 h -58.3114 z"
           style="font-family:'IBM 3270 Narrow';-inkscape-font-specification:'IBM 3270 Narrow'"
           id="path1275" /><path
           d="m 515.6497,2203.4737 26.46759,26.7433 q 1.24066,1.2407 1.24066,2.8949 v 4.1355 h -8.27112 v -2.4813 l -31.2924,-31.2924 h -10.75246 l 0.13785,33.7737 h -8.40897 v -75.5428 h 46.18042 q 1.65423,0 2.8949,1.2406 l 8.40897,8.2711 q 1.24067,1.2407 1.24067,2.8949 v 16.9558 q 0,1.6543 -1.24067,2.8949 l -8.13327,8.2711 q -1.24067,1.2407 -2.89489,1.2407 z m -22.60773,-8.2711 h 36.39293 l 5.78979,-5.7898 v -13.5095 l -5.92764,-5.9276 h -36.25508 z"
           style="font-family:'IBM 3270 Narrow';-inkscape-font-specification:'IBM 3270 Narrow'"
           id="path1277" /><path
           d="m 552.04249,2161.5667 h 58.72495 v 8.409 h -25.22691 v 67.2717 h -8.40898 v -67.2717 h -25.08906 z"
           style="font-family:'IBM 3270 Narrow';-inkscape-font-specification:'IBM 3270 Narrow'"
           id="path1279" /><path
           d="m 636.26992,2161.5667 h 25.08907 v 8.409 h -8.40898 v 59.0006 h 8.40898 v 8.409 l -25.22692,-0.1379 v -8.4089 l 8.40897,0.1378 v -59.0006 h -8.40897 z"
           style="font-family:'IBM 3270 Narrow';-inkscape-font-specification:'IBM 3270 Narrow'"
           id="path1281" /><path
           d="m 686.99932,2161.5667 h 58.3114 v 8.409 h -49.90243 v 25.2269 h 41.63131 v 8.409 h -41.63131 v 33.6358 h -8.40897 z"
           style="font-family:'IBM 3270 Narrow';-inkscape-font-specification:'IBM 3270 Narrow'"
           id="path1283" /><path
           d="m 770.8132,2161.5667 h 25.08906 v 8.409 h -8.40897 v 59.0006 h 8.40897 v 8.409 l -25.22692,-0.1379 v -8.4089 l 8.40898,0.1378 v -59.0006 h -8.40898 z"
           style="font-family:'IBM 3270 Narrow';-inkscape-font-specification:'IBM 3270 Narrow'"
           id="path1285" /><path
           d="m 821.54259,2161.5667 h 58.3114 v 8.409 h -49.90243 v 25.2269 h 33.08449 v 8.409 h -33.08449 v 25.3647 h 49.90243 v 8.2711 h -58.3114 z"
           style="font-family:'IBM 3270 Narrow';-inkscape-font-specification:'IBM 3270 Narrow'"
           id="path1287" /><path
           d="m 905.63217,2228.8385 h 19.02358 l 14.19876,-14.1988 v -30.3274 l -14.19876,-14.3366 -19.02358,-0.1379 z m -8.40897,-59.0007 h -8.40897 v -8.2711 l 37.6336,0.1379 q 1.65422,0 2.89489,1.2406 l 16.54224,16.818 q 1.24067,1.2406 1.24067,2.8949 v 33.6358 q 0,1.7921 -1.24067,3.0328 l -16.68009,16.5422 q -1.24067,1.2407 -2.8949,1.2407 l -37.49574,0.1378 v -8.2711 h 8.40897 z"
           style="font-family:'IBM 3270 Narrow';-inkscape-font-specification:'IBM 3270 Narrow'"
           id="path1289" /><path
           d="m 1031.4908,2203.6116 h 27.5704 l 14.3366,-14.4745 -0.1379,-5.3762 -14.0609,-13.9231 -27.7082,0.1379 z m 0,8.5468 v 25.2269 h -8.5469 v -75.8186 h 37.9093 q 1.6543,0 2.8949,1.2407 l 16.5423,16.2665 q 1.2406,1.2407 1.2406,2.8949 l 0.1379,8.8225 q 0,1.6542 -1.2407,2.8949 l -16.6801,16.9558 q -1.2406,1.2407 -2.8949,1.2407 z"
           style="font-family:'IBM 3270 Narrow';-inkscape-font-specification:'IBM 3270 Narrow'"
           id="path1291" /><path
           d="m 1121.0945,2203.4737 26.4675,26.7433 q 1.2407,1.2407 1.2407,2.8949 v 4.1355 h -8.2711 v -2.4813 l -31.2924,-31.2924 h -10.7525 l 0.1379,33.7737 h -8.409 v -75.5428 h 46.1804 q 1.6543,0 2.8949,1.2406 l 8.409,8.2711 q 1.2407,1.2407 1.2407,2.8949 v 16.9558 q 0,1.6543 -1.2407,2.8949 l -8.1333,8.2711 q -1.2406,1.2407 -2.8949,1.2407 z m -22.6078,-8.2711 h 36.393 l 5.7897,-5.7898 v -13.5095 l -5.9276,-5.9276 h -36.2551 z"
           style="font-family:'IBM 3270 Narrow';-inkscape-font-specification:'IBM 3270 Narrow'"
           id="path1293" /><path
           d="m 1166.034,2175.9033 -0.2757,47.4211 5.652,5.5141 h 30.6031 l 5.9277,-5.9277 v -46.8696 l -5.9277,-6.0655 -30.4653,-0.1379 z m -7.1683,-4.4113 7.8576,-8.5468 q 1.2407,-1.3785 3.0327,-1.3785 l 34.0495,0.1379 q 2.0678,0 3.0327,1.2406 l 8.2712,8.5468 q 1.1028,1.1029 1.1028,2.8949 v 50.316 q 0,1.9299 -1.2407,2.8949 l -8.409,8.2711 q -1.2406,1.2407 -2.8949,1.2407 h -33.9116 q -1.792,0 -2.8948,-1.1028 l -8.1333,-7.8576 q -1.2407,-1.2407 -1.2407,-3.0327 l 0.2757,-50.8674 q 0,-1.6542 1.1028,-2.7571 z"
           style="font-family:'IBM 3270 Narrow';-inkscape-font-specification:'IBM 3270 Narrow'"
           id="path1295" /><path
           d="m 1241.9903,2228.8385 h 19.0236 l 14.1988,-14.1988 v -30.3274 l -14.1988,-14.3366 -19.0236,-0.1379 z m -8.4089,-59.0007 h -8.409 v -8.2711 l 37.6336,0.1379 q 1.6542,0 2.8949,1.2406 l 16.5422,16.818 q 1.2407,1.2406 1.2407,2.8949 v 33.6358 q 0,1.7921 -1.2407,3.0328 l -16.6801,16.5422 q -1.2406,1.2407 -2.8949,1.2407 l -37.4957,0.1378 v -8.2711 h 8.409 z"
           style="font-family:'IBM 3270 Narrow';-inkscape-font-specification:'IBM 3270 Narrow'"
           id="path1297" /><path
           d="m 1292.0305,2161.7046 h 8.2711 l 0.2757,61.3441 5.652,5.7898 h 30.6031 l 5.6519,-5.9277 v -61.3441 h 8.2711 v 62.9984 q 0,1.6542 -1.1028,2.757 l -7.9954,8.409 q -1.3785,1.3785 -3.0327,1.3785 h -34.1873 q -1.6542,0 -2.8949,-1.2407 l -8.1333,-8.1332 q -1.1028,-1.1029 -1.1028,-2.8949 z"
           style="font-family:'IBM 3270 Narrow';-inkscape-font-specification:'IBM 3270 Narrow'"
           id="path1299" /><path
           d="m 1418.0271,2171.0785 -5.7898,5.7898 -7.3061,-7.0305 h -14.3366 l -22.6078,22.6077 v 13.9231 l 22.7456,22.4699 14.0609,0.1378 7.1683,-7.5818 6.0655,5.7898 -8.409,8.8225 q -1.2406,1.2406 -3.0327,1.2406 h -17.5072 q -1.5164,0 -2.8949,-1.3785 l -25.2269,-24.8133 q -1.2407,-1.2407 -1.2407,-2.8949 v -17.3694 q 0,-1.7921 1.1028,-2.8949 l 25.227,-25.089 q 1.2406,-1.2407 2.8948,-1.2407 h 17.6451 q 1.7921,0 2.8949,1.1028 z"
           style="font-family:'IBM 3270 Narrow';-inkscape-font-specification:'IBM 3270 Narrow'"
           id="path1301" /><path
           d="m 1426.5738,2161.5667 h 58.7249 v 8.409 h -25.2269 v 67.2717 h -8.409 v -67.2717 h -25.089 z"
           style="font-family:'IBM 3270 Narrow';-inkscape-font-specification:'IBM 3270 Narrow'"
           id="path1303" /></g></g></g></svg>
