<?xml version="1.0" encoding="UTF-8" standalone="no"?>
<!-- Created with Inkscape (http://www.inkscape.org/) -->

<svg
   width="1676.7245mm"
   height="448.74255mm"
   viewBox="0 0 1676.7245 448.74255"
   version="1.1"
   id="svg361"
   xml:space="preserve"
   inkscape:version="1.2 (dc2aeda, 2022-05-15)"
   sodipodi:docname="xosera-logo-scans.svg"
   xmlns:inkscape="http://www.inkscape.org/namespaces/inkscape"
   xmlns:sodipodi="http://sodipodi.sourceforge.net/DTD/sodipodi-0.dtd"
   xmlns="http://www.w3.org/2000/svg"
   xmlns:svg="http://www.w3.org/2000/svg"><sodipodi:namedview
     id="namedview363"
     pagecolor="#ffffff"
     bordercolor="#666666"
     borderopacity="1.0"
     inkscape:showpageshadow="2"
     inkscape:pageopacity="0.0"
     inkscape:pagecheckerboard="0"
     inkscape:deskcolor="#d1d1d1"
     inkscape:document-units="mm"
     showgrid="false"
     inkscape:zoom="0.078306982"
     inkscape:cx="2445.5035"
     inkscape:cy="3160.6377"
     inkscape:window-width="1676"
     inkscape:window-height="1123"
     inkscape:window-x="0"
     inkscape:window-y="25"
     inkscape:window-maximized="0"
     inkscape:current-layer="layer1" /><defs
     id="defs358" /><g
     inkscape:label="Layer 1"
     inkscape:groupmode="layer"
     id="layer1"
     transform="translate(259.10871,-1204.9824)"><g
       id="g1361"><g
         aria-label="XOSERA"
         id="text666"
         style="font-size:536.012px;line-height:1.25;font-family:AppleGothic;-inkscape-font-specification:AppleGothic;stroke-width:2.79174"><path
           d="m -139.53756,1374.8982 -81.47383,82.5459 v 41.2729 h -32.16072 v -47.7051 q 0,-6.4321 4.82411,-11.2562 l 86.29793,-87.37 -86.29793,-87.906 q -4.82411,-4.8241 -4.82411,-11.2562 v -48.2411 h 32.16072 v 41.8089 l 82.00984,82.5459 81.473828,-82.5459 v -41.8089 h 32.160721 v 48.2411 q 0,6.4321 -4.824108,11.2562 l -86.297931,87.37 86.297931,87.906 q 4.824108,4.8241 4.824108,11.2562 v 47.7051 h -32.160721 v -41.2729 z"
           style="font-family:'IBM 3270';-inkscape-font-specification:'IBM 3270, '"
           id="path1200" /><path
           d="m 67.362698,1260.7276 -1.072025,184.3882 21.976493,21.4405 H 207.26184 l 23.04851,-23.0486 v -182.244 l -23.04851,-23.5846 -118.458662,-0.536 z m -27.872626,-17.1523 30.552686,-33.2328 q 4.824108,-5.3601 11.792264,-5.3601 l 132.394968,0.536 q 8.04018,0 11.79227,4.8241 l 32.16072,33.2328 q 4.28809,4.288 4.28809,11.2562 v 195.6444 q 0,7.5042 -4.8241,11.2562 l -32.69674,32.1608 q -4.82411,4.8241 -11.25625,4.8241 H 81.835022 q -6.968156,0 -11.256252,-4.2881 l -31.62471,-30.5527 q -4.824108,-4.8241 -4.824108,-11.7923 l 1.072024,-197.7884 q 0,-6.4322 4.288096,-10.7202 z"
           style="font-family:'IBM 3270';-inkscape-font-specification:'IBM 3270, '"
           id="path1202" /><path
           d="m 517.61242,1258.5836 -21.44049,-21.4405 H 378.24929 l -23.04852,23.0485 v 17.1524 l 186.53219,127.5709 q 6.96815,4.8241 6.96815,13.4003 v 31.6247 q 0,5.3601 -4.28809,10.7202 l -30.55269,33.2328 q -5.36012,5.3601 -11.79226,5.3601 l -131.85896,0.536 q -6.43215,0 -11.25625,-4.8241 l -32.69674,-32.6967 q -4.8241,-4.8241 -4.8241,-11.2563 v -16.6164 h 32.16072 v 10.1843 l 23.04851,23.0485 118.45866,-0.536 21.44048,-23.5846 v -16.6163 L 330.00821,1299.3205 q -6.96816,-4.8241 -6.96816,-13.4003 v -32.1607 q 0,-6.4322 4.82411,-11.2563 l 32.69673,-32.6967 q 4.82411,-4.8241 11.25626,-4.8241 h 130.78693 q 6.43214,0 11.25625,4.8241 l 31.0887,31.0887 q 4.82411,4.8241 4.82411,11.2562 v 17.1524 h -32.16072 z"
           style="font-family:'IBM 3270';-inkscape-font-specification:'IBM 3270, '"
           id="path1204" /><path
           d="M 610.34211,1204.9824 H 837.0752 v 32.6967 H 643.03885 v 98.0902 h 128.64288 v 32.6968 H 643.03885 v 98.6262 H 837.0752 v 32.1607 H 610.34211 Z"
           style="font-family:'IBM 3270';-inkscape-font-specification:'IBM 3270, '"
           id="path1206" /><path
           d="m 1016.1028,1367.93 102.9143,103.9864 q 4.8242,4.8241 4.8242,11.2562 v 16.0804 h -32.1608 v -9.6482 L 970.0058,1367.93 h -41.80894 l 0.53601,131.323 h -32.69673 v -293.7346 h 179.56406 q 6.4321,0 11.2562,4.8241 l 32.6968,32.1607 q 4.8241,4.8241 4.8241,11.2563 v 65.9295 q 0,6.4321 -4.8241,11.2562 l -31.6248,32.1607 q -4.8241,4.8241 -11.2562,4.8241 z m -87.90594,-32.1607 H 1069.704 l 22.5125,-22.5125 v -52.5292 l -23.0485,-23.0485 H 928.19686 Z"
           style="font-family:'IBM 3270';-inkscape-font-specification:'IBM 3270, '"
           id="path1208" /><path
           d="m 1216.5709,1401.1628 v 98.0902 h -31.6247 v -181.1721 q 0,-5.8961 4.8241,-10.7202 l 96.4822,-97.0182 q 4.288,-4.8241 10.7202,-4.8241 7.5042,0 12.3283,4.8241 l 98.0902,97.5542 q 4.2881,4.2881 4.2881,11.2562 v 180.1001 h -32.1608 l 0.5361,-98.0902 z m 0.536,-32.6967 h 162.4116 v -42.881 l -82.0098,-81.4738 -80.4018,80.9378 z"
           style="font-family:'IBM 3270';-inkscape-font-specification:'IBM 3270, '"
           id="path1210" /></g><g
         aria-label="POWERED BY XARKLABS"
         id="text666-4"
         style="font-size:166.441px;line-height:1.25;font-family:AppleGothic;-inkscape-font-specification:AppleGothic;stroke-width:0.866883"><path
           d="m -248.78937,1612.9469 h 33.2882 l 17.30986,-17.4763 -0.16644,-6.4912 -16.97698,-16.8105 -33.45464,0.1664 z m 0,10.3193 v 30.4587 h -10.31934 v -91.5425 h 45.77127 q 1.99729,0 3.49526,1.498 l 19.97292,19.64 q 1.49797,1.498 1.49797,3.4953 l 0.16644,10.6522 q 0,1.9973 -1.49797,3.4952 l -20.13936,20.4723 q -1.49797,1.498 -3.49526,1.498 z"
           style="font-family:'IBM 3270';-inkscape-font-specification:'IBM 3270, '"
           id="path1213" /><path
           d="m -159.57711,1579.4923 -0.33289,57.2557 6.82408,6.6576 h 36.94991 l 7.15696,-7.157 v -56.5899 l -7.15696,-7.3234 -36.78346,-0.1664 z m -8.65494,-5.3262 9.48714,-10.3193 q 1.49797,-1.6644 3.6617,-1.6644 l 41.11093,0.1664 q 2.49661,0 3.6617,1.498 l 9.98646,10.3193 q 1.331528,1.3316 1.331528,3.4953 v 60.751 q 0,2.3301 -1.497968,3.4952 l -10.1529,9.9865 q -1.49797,1.498 -3.49526,1.498 h -40.94449 q -2.16373,0 -3.49526,-1.3316 l -9.82002,-9.4871 q -1.49797,-1.498 -1.49797,-3.6617 l 0.33289,-61.4167 q 0,-1.9973 1.33152,-3.3289 z"
           style="font-family:'IBM 3270';-inkscape-font-specification:'IBM 3270, '"
           id="path1215" /><path
           d="m -45.398708,1635.5829 -16.644099,16.6441 q -1.497969,1.4979 -3.495261,1.4979 -1.997292,0 -3.495261,-1.4979 l -9.98646,-9.9865 q -1.497969,-1.498 -1.497969,-3.4952 l -0.166441,-76.3965 h 9.98646 l 0.166441,74.3992 4.99323,4.8268 15.312571,-15.3126 v -23.1353 h 9.98646 v 23.4682 l 15.312571,14.9797 5.159671,-4.9933 v -74.3991 h 9.9864599 v 76.5629 q 0,2.1637 -1.4979689,3.6617 l -10.152901,9.82 q -1.66441,1.3315 -3.495261,1.3315 -1.997291,0 -3.49526,-1.498 z"
           style="font-family:'IBM 3270';-inkscape-font-specification:'IBM 3270, '"
           id="path1217" /><path
           d="M 9.0273894,1562.1824 H 79.43193 v 10.1529 H 19.18029 v 30.4587 h 39.945839 v 10.1529 H 19.18029 v 30.6251 h 60.25164 v 9.9865 H 9.0273894 Z"
           style="font-family:'IBM 3270';-inkscape-font-specification:'IBM 3270, '"
           id="path1219" /><path
           d="m 135.0231,1612.7805 31.95667,32.2895 q 1.49797,1.498 1.49797,3.4953 v 4.9932 h -9.98646 v -2.9959 l -37.78211,-37.7821 h -12.98239 l 0.16644,40.778 H 97.740316 v -91.2097 h 55.757734 q 1.99729,0 3.49526,1.498 l 10.1529,9.9865 q 1.49797,1.4979 1.49797,3.4952 v 20.4723 q 0,1.9973 -1.49797,3.4952 l -9.82002,9.9865 q -1.49797,1.498 -3.49526,1.498 z m -27.29632,-9.9865 h 43.94042 l 6.99052,-6.9905 v -16.3112 l -7.15696,-7.157 h -43.77398 z"
           style="font-family:'IBM 3270';-inkscape-font-specification:'IBM 3270, '"
           id="path1221" /><path
           d="m 187.45189,1562.1824 h 70.40454 v 10.1529 h -60.25164 v 30.4587 h 39.94584 v 10.1529 h -39.94584 v 30.6251 h 60.25164 v 9.9865 h -70.40454 z"
           style="font-family:'IBM 3270';-inkscape-font-specification:'IBM 3270, '"
           id="path1223" /><path
           d="m 296.96997,1643.4056 h 22.96886 l 17.14342,-17.1434 v -36.617 l -17.14342,-17.3099 -22.96886,-0.1664 z m -10.1529,-71.2367 h -10.1529 v -9.9865 l 45.43839,0.1664 q 1.99729,0 3.49526,1.498 l 19.97292,20.3058 q 1.49797,1.498 1.49797,3.4953 v 40.6116 q 0,2.1637 -1.49797,3.6617 l -20.13936,19.9729 q -1.49797,1.498 -3.49526,1.498 l -45.27195,0.1664 v -9.9865 h 10.1529 z"
           style="font-family:'IBM 3270';-inkscape-font-specification:'IBM 3270, '"
           id="path1225" /><path
           d="m 465.24157,1643.572 v -71.4031 h -10.1529 v -9.9865 h 45.43839 q 1.66441,0 3.6617,1.498 l 19.97292,20.8051 q 1.33153,1.3315 1.33153,3.3288 0,2.3302 -1.49797,3.8282 l -16.81054,16.1447 16.81054,16.4777 q 1.49797,1.498 1.49797,3.3288 0,2.1637 -1.49797,3.6617 l -20.3058,20.8051 q -1.49797,1.498 -3.49526,1.498 h -45.10551 v -9.9865 z m 32.95532,-30.6251 h -22.80242 v 30.6251 h 22.63598 l 15.47901,-15.6454 z m -0.16644,-10.1529 15.47901,-14.9797 -15.14613,-15.6454 h -22.96886 v 30.6251 z"
           style="font-family:'IBM 3270';-inkscape-font-specification:'IBM 3270, '"
           id="path1227" /><path
           d="m 584.41323,1599.9645 v 53.594 h -10.1529 v -53.594 l -28.79429,-28.9607 q -1.49797,-1.498 -1.49797,-3.4953 v -5.3261 h 9.98646 v 3.1624 l 25.63191,25.4654 25.29903,-25.6319 v -2.9959 h 9.98646 v 4.9932 q 0,2.3302 -1.33153,3.6617 z"
           style="font-family:'IBM 3270';-inkscape-font-specification:'IBM 3270, '"
           id="path1229" /><path
           d="m 757.51162,1614.9442 -25.29903,25.6319 v 12.816 h -9.98646 v -14.8133 q 0,-1.9973 1.49796,-3.4952 l 26.797,-27.1299 -26.797,-27.2964 q -1.49796,-1.4979 -1.49796,-3.4952 v -14.9797 h 9.98646 v 12.9824 l 25.46547,25.6319 25.29903,-25.6319 v -12.9824 h 9.98646 v 14.9797 q 0,1.9973 -1.49797,3.4952 l -26.797,27.1299 26.797,27.2964 q 1.49797,1.4979 1.49797,3.4952 v 14.8133 h -9.98646 v -12.816 z"
           style="font-family:'IBM 3270';-inkscape-font-specification:'IBM 3270, '"
           id="path1231" /><path
           d="m 821.75775,1623.0998 v 30.4587 h -9.82002 v -56.2571 q 0,-1.8308 1.49797,-3.3288 l 29.95938,-30.1258 q 1.33152,-1.498 3.32882,-1.498 2.33017,0 3.82814,1.498 l 30.4587,30.2923 q 1.33153,1.3315 1.33153,3.4952 v 55.9242 h -9.98646 l 0.16644,-30.4587 z m 0.16644,-10.1529 h 50.43162 v -13.3153 l -25.46547,-25.299 -24.96615,25.1326 z"
           style="font-family:'IBM 3270';-inkscape-font-specification:'IBM 3270, '"
           id="path1233" /><path
           d="m 937.93347,1612.7805 31.95667,32.2895 q 1.49797,1.498 1.49797,3.4953 v 4.9932 h -9.98646 v -2.9959 l -37.78211,-37.7821 h -12.98239 l 0.16644,40.778 h -10.1529 v -91.2097 h 55.75773 q 1.99729,0 3.49526,1.498 l 10.1529,9.9865 q 1.49797,1.4979 1.49797,3.4952 v 20.4723 q 0,1.9973 -1.49797,3.4952 l -9.82002,9.9865 q -1.49797,1.498 -3.49526,1.498 z m -27.29632,-9.9865 h 43.94042 l 6.99052,-6.9905 v -16.3112 l -7.15696,-7.157 h -43.77398 z"
           style="font-family:'IBM 3270';-inkscape-font-specification:'IBM 3270, '"
           id="path1235" /><path
           d="m 1000.8479,1630.4232 v 23.1353 h -10.48573 v -91.3761 h 10.48573 v 53.9269 l 50.0988,-50.5981 v -3.1624 h 9.9864 v 5.1597 q 0,1.9973 -1.4979,3.4953 l -36.7835,36.9499 36.9499,36.9499 q 1.498,1.4979 1.498,3.4952 v 5.1597 h -9.9865 v -3.1624 l -35.4519,-35.4519 z"
           style="font-family:'IBM 3270';-inkscape-font-specification:'IBM 3270, '"
           id="path1237" /><path
           d="m 1079.5744,1562.1824 h 10.1529 v 81.3896 h 60.2517 v 9.9865 h -70.4046 z"
           style="font-family:'IBM 3270';-inkscape-font-specification:'IBM 3270, '"
           id="path1239" /><path
           d="m 1178.6067,1623.0998 v 30.4587 h -9.82 v -56.2571 q 0,-1.8308 1.498,-3.3288 l 29.9594,-30.1258 q 1.3315,-1.498 3.3288,-1.498 2.3302,0 3.8281,1.498 l 30.4587,30.2923 q 1.3316,1.3315 1.3316,3.4952 v 55.9242 h -9.9865 l 0.1664,-30.4587 z m 0.1665,-10.1529 h 50.4316 v -13.3153 l -25.4655,-25.299 -24.9661,25.1326 z"
           style="font-family:'IBM 3270';-inkscape-font-specification:'IBM 3270, '"
           id="path1241" /><path
           d="m 1268.1519,1643.572 v -71.4031 h -10.1529 v -9.9865 h 45.4384 q 1.6644,0 3.6617,1.498 l 19.9729,20.8051 q 1.3315,1.3315 1.3315,3.3288 0,2.3302 -1.4979,3.8282 l -16.8106,16.1447 16.8106,16.4777 q 1.4979,1.498 1.4979,3.3288 0,2.1637 -1.4979,3.6617 l -20.3058,20.8051 q -1.498,1.498 -3.4953,1.498 h -45.1055 v -9.9865 z m 32.9553,-30.6251 h -22.8024 v 30.6251 h 22.636 l 15.479,-15.6454 z m -0.1664,-10.1529 15.479,-14.9797 -15.1461,-15.6454 h -22.9689 v 30.6251 z"
           style="font-family:'IBM 3270';-inkscape-font-specification:'IBM 3270, '"
           id="path1243" /><path
           d="m 1407.6294,1578.8265 -6.6577,-6.6576 h -36.617 l -7.157,7.1569 v 5.3261 l 57.9215,39.613 q 2.1637,1.498 2.1637,4.161 v 9.82 q 0,1.6644 -1.3315,3.3289 l -9.4871,10.3193 q -1.6644,1.6644 -3.6617,1.6644 l -40.9445,0.1664 q -1.9973,0 -3.4953,-1.4979 l -10.1529,-10.1529 q -1.4979,-1.498 -1.4979,-3.4953 v -5.1597 h 9.9864 v 3.1624 l 7.157,7.157 36.7834,-0.1665 6.6577,-7.3234 v -5.1596 l -57.9215,-39.613 q -2.1637,-1.498 -2.1637,-4.161 v -9.9865 q 0,-1.9973 1.498,-3.4952 l 10.1529,-10.1529 q 1.4979,-1.498 3.4952,-1.498 h 40.6116 q 1.9973,0 3.4953,1.498 l 9.6536,9.6535 q 1.4979,1.498 1.4979,3.4953 v 5.3261 h -9.9864 z"
           style="font-family:'IBM 3270';-inkscape-font-specification:'IBM 3270, '"
           id="path1245" /></g></g></g></svg>
